<svg xmlns="http://www.w3.org/2000/svg" xmlns:xlink="http://www.w3.org/1999/xlink" width="98" height="97.998" viewBox="0 0 98 97.998">
  <defs>
    <linearGradient id="linear-gradient" x1="0.5" x2="0.5" y2="1.267" gradientUnits="objectBoundingBox">
      <stop offset="0" stop-color="#ff9f8a"/>
      <stop offset="1" stop-color="#c946b0"/>
    </linearGradient>
  </defs>
  <g id="Group_1272002" data-name="Group 1272002" transform="translate(-802.781 -1967)">
    <g id="Group_1204180" data-name="Group 1204180" transform="translate(-1 -5.016)">
      <g id="Group_1204143" data-name="Group 1204143" transform="translate(-67.331 1694.852)">
        <g id="Group_1188789" data-name="Group 1188789" transform="translate(871.113 277.164)">
          <path id="Path_1243039" data-name="Path 1243039" d="M41.05,0h0a41.05,41.05,0,0,1,0,82.1h0a41.05,41.05,0,0,1,0-82.1Z" transform="translate(7.951 7.949)" fill="url(#linear-gradient)"/>
          <rect id="Rectangle_400907" data-name="Rectangle 400907" width="88.438" height="88.437" rx="44.218" transform="translate(4.782 4.781)" fill="none"/>
          <g id="Group_1098742" data-name="Group 1098742" transform="translate(0)">
            <g id="Rectangle_400898" data-name="Rectangle 400898" transform="translate(0)" fill="none" stroke="#fff" stroke-width="2" opacity="0.859">
              <rect width="98" height="97.999" rx="48.999" stroke="none"/>
              <rect x="1" y="1" width="96" height="95.999" rx="47.999" fill="none"/>
            </g>
            <g id="Rectangle_400907-2" data-name="Rectangle 400907" transform="translate(0)" fill="none" stroke="#0f1f33" stroke-linecap="round" stroke-width="2">
              <rect width="98" height="97.999" rx="48.999" stroke="none"/>
              <rect x="1" y="1" width="96" height="95.999" rx="47.999" fill="none"/>
            </g>
          </g>
        </g>
      </g>
    </g>
    <g id="Group_1272418" data-name="Group 1272418" transform="translate(3373.662 -7555.838)">
      <path id="Path_1491756" data-name="Path 1491756" d="M51.88,28.962H6.157a4.954,4.954,0,0,0-4.946,4.946V65.7a4.954,4.954,0,0,0,4.946,4.947H51.88A4.955,4.955,0,0,0,56.826,65.7V33.908a4.954,4.954,0,0,0-4.946-4.946" transform="translate(-2551 9524)" fill="#f2deb9"/>
      <path id="Path_1491757" data-name="Path 1491757" d="M38.658,42.992a2.016,2.016,0,0,1,0,2.726l-1.615,1.413-5.652,5.652-2.725,2.725L25.94,52.783l-1.312-1.312a1.671,1.671,0,0,1-.5-1.313,1.914,1.914,0,0,1,.5-1.311,2.016,2.016,0,0,1,2.726,0l1.312,1.311L34.722,44.1l1.11-1.11a1.674,1.674,0,0,1,1.312-.505,1.67,1.67,0,0,1,1.514.505" transform="translate(-2551 9524)" fill="#2a4356"/>
      <path id="Path_1491758" data-name="Path 1491758" d="M37.043,47.131a10.039,10.039,0,0,1,.808,3.835,9.477,9.477,0,0,1-9.488,9.488,9.305,9.305,0,0,1-9.387-9.387,9.477,9.477,0,0,1,9.487-9.488A9,9,0,0,1,34.822,44.1l-6.056,6.055-1.312-1.311a2.015,2.015,0,0,0-2.725,0,1.668,1.668,0,0,0-.5,1.311,1.92,1.92,0,0,0,.5,1.313l1.312,1.312,2.725,2.725,2.726-2.725Z" transform="translate(-2551 9524)" fill="#ff6d3b"/>
      <path id="Path_1491759" data-name="Path 1491759" d="M51.779,36.532a1.313,1.313,0,1,1-1.312,1.312,1.41,1.41,0,0,1,1.312-1.312" transform="translate(-2551 9524)"/>
      <path id="Path_1491760" data-name="Path 1491760" d="M6.359,63.078A1.312,1.312,0,1,1,5.047,64.39a1.336,1.336,0,0,1,1.312-1.312" transform="translate(-2551 9524)"/>
      <path id="Path_1491761" data-name="Path 1491761" d="M51.881,71.859H6.258A6.117,6.117,0,0,1,.1,65.7V33.908a6.117,6.117,0,0,1,6.157-6.157H51.982a6.117,6.117,0,0,1,6.156,6.157V65.7a6.2,6.2,0,0,1-6.257,6.157M6.258,30.274a3.619,3.619,0,0,0-3.633,3.634V65.7a3.619,3.619,0,0,0,3.633,3.634H51.982A3.619,3.619,0,0,0,55.615,65.7V33.908a3.619,3.619,0,0,0-3.633-3.634Z" transform="translate(-2551 9524)"/>
      <path id="Path_1491762" data-name="Path 1491762" d="M11.406,34.009a1.312,1.312,0,1,1,0-2.624,2.524,2.524,0,1,0-2.524-2.523,1.312,1.312,0,1,1-2.624,0,5.048,5.048,0,1,1,5.148,5.147" transform="translate(-2551 9524)"/>
      <path id="Path_1491763" data-name="Path 1491763" d="M20.288,34.009a1.312,1.312,0,1,1,0-2.624,2.524,2.524,0,1,0-2.523-2.523,1.312,1.312,0,1,1-2.624,0,5.046,5.046,0,1,1,10.093,0,5.064,5.064,0,0,1-4.946,5.147" transform="translate(-2551 9524)"/>
      <path id="Path_1491764" data-name="Path 1491764" d="M29.069,34.009a1.312,1.312,0,1,1,0-2.624,2.524,2.524,0,1,0-2.523-2.523,1.336,1.336,0,0,1-1.312,1.312,1.167,1.167,0,0,1-1.212-1.212,5.047,5.047,0,1,1,5.047,5.047" transform="translate(-2551 9524)"/>
      <path id="Path_1491765" data-name="Path 1491765" d="M37.951,34.009a1.312,1.312,0,1,1,0-2.624,2.524,2.524,0,1,0-2.523-2.523,1.312,1.312,0,1,1-2.624,0,5.046,5.046,0,1,1,10.093,0,5.064,5.064,0,0,1-4.946,5.147" transform="translate(-2551 9524)"/>
      <path id="Path_1491766" data-name="Path 1491766" d="M46.733,34.009a1.312,1.312,0,1,1,0-2.624,2.524,2.524,0,0,0,0-5.047,2.585,2.585,0,0,0-2.523,2.624,1.313,1.313,0,1,1-2.625,0,5.047,5.047,0,0,1,10.094,0,4.914,4.914,0,0,1-4.946,5.047" transform="translate(-2551 9524)"/>
      <path id="Path_1491767" data-name="Path 1491767" d="M48.045,39.056H1.312a1.312,1.312,0,0,1,0-2.624H48.045a1.335,1.335,0,0,1,1.312,1.312,1.5,1.5,0,0,1-1.312,1.312" transform="translate(-2551 9524)"/>
      <path id="Path_1491768" data-name="Path 1491768" d="M56.826,65.6H10.194a1.312,1.312,0,1,1,0-2.624H56.927a1.335,1.335,0,0,1,1.312,1.312A1.507,1.507,0,0,1,56.826,65.6" transform="translate(-2551 9524)"/>
      <path id="Path_1491769" data-name="Path 1491769" d="M28.463,61.766a10.7,10.7,0,1,1,7.268-18.571,1.287,1.287,0,0,1-1.716,1.918,8.213,8.213,0,1,0,2.624,6.055,7.312,7.312,0,0,0-.707-3.331,1.287,1.287,0,1,1,2.322-1.11,10.721,10.721,0,0,1-9.791,15.039" transform="translate(-2551 9524)"/>
      <path id="Path_1491770" data-name="Path 1491770" d="M28.766,56.72a1.233,1.233,0,0,1-.908-.405L23.82,52.278a3.141,3.141,0,0,1,4.442-4.441l.4.4,6.258-6.258a3.167,3.167,0,0,1,4.441,0,3.167,3.167,0,0,1,0,4.441l-9.79,9.791a.758.758,0,0,1-.808.505m-2.624-7.268a.4.4,0,0,0-.4.2.764.764,0,0,0-.2.4.526.526,0,0,0,.2.405l3.129,3.129,8.882-8.883a.752.752,0,0,0,0-.908.765.765,0,0,0-.4-.2.525.525,0,0,0-.4.2l-7.166,7.166a1.281,1.281,0,0,1-1.817,0l-1.313-1.312a.65.65,0,0,0-.5-.2" transform="translate(-2551 9524)"/>
      <path id="Path_1491771" data-name="Path 1491771" d="M10.194,44.1H6.359a1.312,1.312,0,0,1,0-2.624h3.835a1.335,1.335,0,0,1,1.312,1.312A1.5,1.5,0,0,1,10.194,44.1" transform="translate(-2551 9524)"/>
      <path id="Path_1491772" data-name="Path 1491772" d="M10.194,47.939H6.359a1.313,1.313,0,0,1,0-2.625h3.835a1.335,1.335,0,0,1,1.312,1.313,1.411,1.411,0,0,1-1.312,1.312" transform="translate(-2551 9524)"/>
      <path id="Path_1491773" data-name="Path 1491773" d="M10.194,51.673H6.359a1.312,1.312,0,0,1,0-2.624h3.835a1.335,1.335,0,0,1,1.312,1.312,1.41,1.41,0,0,1-1.312,1.312" transform="translate(-2551 9524)"/>
      <path id="Path_1491774" data-name="Path 1491774" d="M10.194,55.508H6.359a1.312,1.312,0,1,1,0-2.624h3.835A1.336,1.336,0,0,1,11.506,54.2a1.41,1.41,0,0,1-1.312,1.311" transform="translate(-2551 9524)"/>
      <path id="Path_1491775" data-name="Path 1491775" d="M10.194,59.243H6.359a1.313,1.313,0,0,1,0-2.625h3.835a1.335,1.335,0,0,1,1.312,1.313,1.5,1.5,0,0,1-1.312,1.312" transform="translate(-2551 9524)"/>
      <path id="Path_1491776" data-name="Path 1491776" d="M51.779,44.1H47.944a1.312,1.312,0,1,1,0-2.624h3.835a1.312,1.312,0,1,1,0,2.624" transform="translate(-2551 9524)"/>
      <path id="Path_1491777" data-name="Path 1491777" d="M51.779,47.939H47.944a1.313,1.313,0,0,1,0-2.625h3.835a1.313,1.313,0,0,1,0,2.625" transform="translate(-2551 9524)"/>
      <path id="Path_1491778" data-name="Path 1491778" d="M51.779,51.673H47.944a1.312,1.312,0,0,1,0-2.624h3.835a1.312,1.312,0,1,1,0,2.624" transform="translate(-2551 9524)"/>
      <path id="Path_1491779" data-name="Path 1491779" d="M51.779,55.508H47.944a1.312,1.312,0,1,1,0-2.624h3.835a1.312,1.312,0,1,1,0,2.624" transform="translate(-2551 9524)"/>
      <path id="Path_1491780" data-name="Path 1491780" d="M51.779,59.243H47.944a1.313,1.313,0,0,1,0-2.625h3.835a1.313,1.313,0,0,1,0,2.625" transform="translate(-2551 9524)"/>
    </g>
  </g>
</svg>
