<svg xmlns="http://www.w3.org/2000/svg" xmlns:xlink="http://www.w3.org/1999/xlink" width="98" height="97.998" viewBox="0 0 98 97.998">
  <defs>
    <linearGradient id="linear-gradient" x1="0.5" x2="0.5" y2="1.267" gradientUnits="objectBoundingBox">
      <stop offset="0" stop-color="#ff9f8a"/>
      <stop offset="1" stop-color="#c946b0"/>
    </linearGradient>
  </defs>
  <g id="Group_1271692" data-name="Group 1271692" transform="translate(-802.781 -1967)">
    <g id="Group_1204180" data-name="Group 1204180" transform="translate(-1 -5.016)">
      <g id="Group_1204143" data-name="Group 1204143" transform="translate(-67.331 1694.852)">
        <g id="Group_1188789" data-name="Group 1188789" transform="translate(871.113 277.164)">
          <path id="Path_1243039" data-name="Path 1243039" d="M41.05,0h0a41.05,41.05,0,0,1,0,82.1h0a41.05,41.05,0,0,1,0-82.1Z" transform="translate(7.951 7.949)" fill="url(#linear-gradient)"/>
          <rect id="Rectangle_400907" data-name="Rectangle 400907" width="88.438" height="88.437" rx="44.218" transform="translate(4.782 4.781)" fill="none"/>
          <g id="Group_1098742" data-name="Group 1098742" transform="translate(0)">
            <g id="Rectangle_400898" data-name="Rectangle 400898" transform="translate(0)" fill="none" stroke="#fff" stroke-width="2" opacity="0.859">
              <rect width="98" height="97.999" rx="48.999" stroke="none"/>
              <rect x="1" y="1" width="96" height="95.999" rx="47.999" fill="none"/>
            </g>
            <g id="Rectangle_400907-2" data-name="Rectangle 400907" transform="translate(0)" fill="none" stroke="#0f1f33" stroke-linecap="round" stroke-width="2">
              <rect width="98" height="97.999" rx="48.999" stroke="none"/>
              <rect x="1" y="1" width="96" height="95.999" rx="47.999" fill="none"/>
            </g>
          </g>
        </g>
      </g>
    </g>
    <g id="Group_1272419" data-name="Group 1272419" transform="translate(3137.594 -7544.047)">
      <path id="Path_1491788" data-name="Path 1491788" d="M252.383,46.611l19.862,1.714a3.4,3.4,0,0,1,2.016.908l.1.1a3.242,3.242,0,0,1,1.008,2.117,2.881,2.881,0,0,1-.2,1.614l12.1-12.1a3.9,3.9,0,0,1,2.722-1.109,4.082,4.082,0,0,1,2.723,1.109,3.715,3.715,0,0,1,0,5.344L277.589,61.331a7.6,7.6,0,0,1-6.05,2.218l-19.358-1.311-4.637,3.328-9.881-9.881,8.166-7.259a7.789,7.789,0,0,1,5.848-1.916Z" transform="translate(-2551 9524)" fill="#ffd8a8"/>
      <path id="Path_1491789" data-name="Path 1491789" d="M255.609,18.986l-12.1,12.1a3.9,3.9,0,0,1-2.722,1.109,4.087,4.087,0,0,1-2.722-1.109,3.715,3.715,0,0,1,0-5.344l15.022-15.023a7.6,7.6,0,0,1,6.05-2.218L278.5,9.811l4.637-3.327,9.982,9.88-8.167,7.26a7.784,7.784,0,0,1-5.847,1.915l-5.949-.5-14.417-1.21h-.2a3.508,3.508,0,0,1-3.126-3.125,3.241,3.241,0,0,1,.2-1.714" transform="translate(-2551 9524)" fill="#ffd8a8"/>
      <path id="Path_1491790" data-name="Path 1491790" d="M264.482,34.311V32.194c-.807.1-1.21.4-1.21,1.008a.912.912,0,0,0,.3.705,1.9,1.9,0,0,0,.908.4m.806,3.226v2.117c.908,0,1.311-.3,1.311-.907a.762.762,0,0,0-.4-.706,2.642,2.642,0,0,0-.908-.5m4.033-6.654L268.01,33.3a1.273,1.273,0,0,0-.3-.2l-.605-.3c-.3-.1-.5-.2-.907-.3a2.982,2.982,0,0,0-1.009-.2v2.218l.6.1c.605.2,1.109.3,1.614.5a3.5,3.5,0,0,1,1.209.706,3.958,3.958,0,0,1,.807,1.008,3.379,3.379,0,0,1,.3,1.512,4.361,4.361,0,0,1-.3,1.715,2.467,2.467,0,0,1-.908,1.109,5.416,5.416,0,0,1-1.31.705,7.639,7.639,0,0,1-1.613.3v2.016h-1.21V42.175a10.083,10.083,0,0,1-4.537-1.513l1.209-2.52c0,.1.2.2.4.3a5.961,5.961,0,0,0,.806.4c.3.1.706.3,1.109.4l1.21.3V37.235l-.806-.2a11.933,11.933,0,0,1-1.513-.6,2.576,2.576,0,0,1-1.008-.706,2.388,2.388,0,0,1-.605-.907,4.328,4.328,0,0,1-.2-1.21,4.172,4.172,0,0,1,.3-1.613,3.62,3.62,0,0,1,.807-1.21,8.428,8.428,0,0,1,1.21-.807,7.6,7.6,0,0,1,1.613-.4V27.757h1.21v1.815a6.549,6.549,0,0,1,2.117.5l1.613.807" transform="translate(-2551 9524)"/>
      <path id="Path_1491791" data-name="Path 1491791" d="M247.544,66.875a1.23,1.23,0,0,1-.908-.4l-9.981-9.981a1.221,1.221,0,0,1,0-1.815l8.167-7.259a9.16,9.16,0,0,1,6.755-2.218l20.567,1.713a4.519,4.519,0,0,1,2.723,1.21l.1.1a3.889,3.889,0,0,1,1.109,1.714l9.982-9.981a5.134,5.134,0,0,1,3.528-1.512,4.729,4.729,0,0,1,3.529,1.512,5.175,5.175,0,0,1,0,7.158L278.5,62.238a9.027,9.027,0,0,1-6.957,2.621l-18.954-1.311-4.235,3.025a1.336,1.336,0,0,1-.806.3m-8.066-11.09,8.268,8.268,3.729-2.723a.786.786,0,0,1,.807-.2l19.358,1.311a6.606,6.606,0,0,0,5.041-1.915L291.7,45.5a2.472,2.472,0,0,0-1.815-4.235,2.9,2.9,0,0,0-1.815.706l-11.8,11.8a4.786,4.786,0,0,1-4.537,2.723l-13.51-.6a1.261,1.261,0,0,1,.1-2.521l13.511.6a2.323,2.323,0,0,0,2.016-1.109.769.769,0,0,1,.2-.5,2.5,2.5,0,0,0,.1-.806,2.108,2.108,0,0,0-.706-1.311l-.1-.1a3.121,3.121,0,0,0-1.311-.6L251.475,47.82a6.068,6.068,0,0,0-4.839,1.613Z" transform="translate(-2551 9524)"/>
      <path id="Path_1491792" data-name="Path 1491792" d="M252.181,63.549a1.148,1.148,0,0,1-.807-.3L245.022,57.8a1.286,1.286,0,0,1,1.715-1.916l6.351,5.445a1.277,1.277,0,0,1,.1,1.815,1.446,1.446,0,0,1-1.008.4" transform="translate(-2551 9524)"/>
      <path id="Path_1491793" data-name="Path 1491793" d="M240.788,33.5a4.731,4.731,0,0,1-3.529-1.512,5.177,5.177,0,0,1,0-7.159L252.281,9.811a9.03,9.03,0,0,1,6.957-2.622L278.193,8.5l4.234-3.024a1.226,1.226,0,0,1,1.614.1l9.981,9.982a1.5,1.5,0,0,1,.4.907,1.506,1.506,0,0,1-.4.908l-8.167,7.259A9.169,9.169,0,0,1,279.1,26.85l-20.568-1.714a5.193,5.193,0,0,1-2.924-1.311,3.89,3.89,0,0,1-1.108-1.714l-9.982,9.981a6.315,6.315,0,0,1-3.73,1.412M258.734,9.71a6.653,6.653,0,0,0-4.638,1.915L239.074,26.648a2.43,2.43,0,0,0-.706,1.815,2.9,2.9,0,0,0,.706,1.815,2.429,2.429,0,0,0,1.815.7,2.9,2.9,0,0,0,1.814-.7l11.9-11.9a4.787,4.787,0,0,1,4.537-2.722l13.511.6a1.261,1.261,0,1,1-.1,2.52l-13.51-.6a2.326,2.326,0,0,0-2.017,1.109.773.773,0,0,1-.2.5,2.5,2.5,0,0,0-.1.807,2.112,2.112,0,0,0,.705,1.311,1.777,1.777,0,0,0,1.311.6h.2L279.3,24.229a6.07,6.07,0,0,0,4.839-1.614l7.158-6.351L283.032,8.1l-3.73,2.722a.784.784,0,0,1-.807.2L259.137,9.71Z" transform="translate(-2551 9524)"/>
      <path id="Path_1491794" data-name="Path 1491794" d="M284.948,16.465a1.15,1.15,0,0,1-.807-.3l-6.351-5.445A1.285,1.285,0,1,1,279.5,8.8l6.351,5.444a1.277,1.277,0,0,1,.1,1.815,1.446,1.446,0,0,1-1.008.4" transform="translate(-2551 9524)"/>
      <path id="Path_1491795" data-name="Path 1491795" d="M273.858,50.038a1.144,1.144,0,0,1-.3-.806,1.1,1.1,0,0,1,.4-.908,1.283,1.283,0,0,1,1.815.1,1.148,1.148,0,0,1,.3.807,1.1,1.1,0,0,1-.4.907,1.144,1.144,0,0,1-.807.3,1.292,1.292,0,0,1-1.008-.4m2.621-2.419a1.243,1.243,0,0,1-.5-1.009,1.863,1.863,0,0,1,.2-.705,1.188,1.188,0,0,1,1.714-.3,1.243,1.243,0,0,1,.5,1.008,1.868,1.868,0,0,1-.2.706,1.237,1.237,0,0,1-1.008.5,1.466,1.466,0,0,1-.706-.2m1.916-3.025a1.31,1.31,0,0,1-.806-1.21.915.915,0,0,1,.1-.5,1.263,1.263,0,0,1,1.613-.706,1.311,1.311,0,0,1,.807,1.21.907.907,0,0,1-.1.5,1.311,1.311,0,0,1-1.21.807.6.6,0,0,1-.4-.1m1.21-3.327a1.289,1.289,0,0,1-1.109-1.21v-.2a1.253,1.253,0,0,1,1.411-1.109,1.289,1.289,0,0,1,1.109,1.21v.2a1.289,1.289,0,0,1-1.21,1.109ZM278.6,36.629h0v-.1a1.211,1.211,0,0,1,1.11-1.21,1.255,1.255,0,0,1,1.411,1.109v.1a1.211,1.211,0,0,1-1.109,1.21h-.1a1.173,1.173,0,0,1-1.311-1.109m-.705-3.126c0-.1-.1-.3-.1-.4a1.267,1.267,0,0,1,.907-1.21,1.24,1.24,0,0,1,1.614.807c0,.1.1.3.1.4a1.31,1.31,0,0,1-.806,1.21c-.1,0-.3.1-.4.1a1.609,1.609,0,0,1-1.31-.908m-1.412-2.923a1.459,1.459,0,0,1-.2-.706,1.393,1.393,0,0,1,.6-1.109,1.179,1.179,0,0,1,1.714.4,1.456,1.456,0,0,1,.2.706,1.394,1.394,0,0,1-.605,1.109,1.452,1.452,0,0,1-.706.2,1.379,1.379,0,0,1-1.008-.6m-2.016-2.521h0a1.5,1.5,0,0,1-.4-.907,1.23,1.23,0,0,1,.4-.908,1.278,1.278,0,0,1,1.815,0,1.1,1.1,0,0,1,.4.908,1.232,1.232,0,0,1-.4.907,1.5,1.5,0,0,1-.908.4,3.571,3.571,0,0,1-.907-.4" transform="translate(-2551 9524)"/>
      <path id="Path_1491796" data-name="Path 1491796" d="M250.165,45.4a1.277,1.277,0,0,1-.1-.6,1.091,1.091,0,0,1,.706-1.109,1.291,1.291,0,0,1,1.713.5,1.266,1.266,0,0,1,.1.6,1.089,1.089,0,0,1-.706,1.109,1.279,1.279,0,0,1-.6.1,1.087,1.087,0,0,1-1.109-.6m-1.311-3.629v-.3a1.285,1.285,0,0,1,2.521-.3v.3a1.2,1.2,0,0,1-1.009,1.21h-.3a1.042,1.042,0,0,1-1.21-.907m-.5-3.731h0a1.32,1.32,0,0,1,1.21-1.31,1.25,1.25,0,0,1,1.311,1.209,1.226,1.226,0,0,1-1.21,1.21,1.118,1.118,0,0,1-1.311-1.109m1.411-2.319a1.2,1.2,0,0,1-1.008-1.21v-.3a1.285,1.285,0,0,1,2.521.3v.3a1.2,1.2,0,0,1-1.21,1.008.371.371,0,0,1-.3-.1m.908-3.428a1.368,1.368,0,0,1-.706-1.109,1.279,1.279,0,0,1,.1-.6,1.331,1.331,0,0,1,1.714-.6,1.368,1.368,0,0,1,.705,1.11,1.284,1.284,0,0,1-.1.6,1.369,1.369,0,0,1-1.109.706.564.564,0,0,1-.6-.1m1.613-3.024a1.243,1.243,0,0,1-.5-1.009,1.146,1.146,0,0,1,.3-.806,1.375,1.375,0,0,1,1.815-.2,1.243,1.243,0,0,1,.5,1.008,1.148,1.148,0,0,1-.3.807,1.243,1.243,0,0,1-1.009.5,2.662,2.662,0,0,1-.806-.3m2.42-2.722a1.091,1.091,0,0,1-.3-.706,1.241,1.241,0,0,1,.5-1.008,1.388,1.388,0,0,1,1.815.2,1.089,1.089,0,0,1,.3.706,1.241,1.241,0,0,1-.5,1.008,1.145,1.145,0,0,1-.807.3,1.023,1.023,0,0,1-1.008-.5m2.823-2.017a.907.907,0,0,1-.1-.5,1.282,1.282,0,0,1,2.42-.5.913.913,0,0,1,.1.5,1.24,1.24,0,0,1-.7,1.109.909.909,0,0,1-.5.1,1.1,1.1,0,0,1-1.21-.706" transform="translate(-2551 9524)"/>
    </g>
  </g>
</svg>
