<svg xmlns="http://www.w3.org/2000/svg" width="76.345" height="76.345" viewBox="0 0 76.345 76.345">
  <g id="Group_1272245" data-name="Group 1272245" transform="translate(-1021.691 -3105.655)">
    <g id="Group_1200255" data-name="Group 1200255" transform="translate(-0.275 13)">
      <g id="Group_1187152" data-name="Group 1187152">
        <g id="Group_1185946" data-name="Group 1185946" transform="translate(-3.07)">
          <g id="Group_1184280" data-name="Group 1184280">
            <g id="Group_1182168" data-name="Group 1182168">
              <g id="Group_1178877" data-name="Group 1178877">
                <g id="Group_1111311" data-name="Group 1111311">
                  <g id="Group_1098742" data-name="Group 1098742" transform="translate(1025.482 3093.101)">
                    <g id="Rectangle_400898" data-name="Rectangle 400898" transform="translate(-0.445 -0.445)" fill="#bbccf6" stroke="#828dab" stroke-width="0.5" opacity="0.859">
                      <rect width="76.345" height="76.345" rx="38.172" stroke="none"/>
                      <rect x="0.25" y="0.25" width="75.845" height="75.845" rx="37.922" fill="none"/>
                    </g>
                    <g id="Rectangle_400907" data-name="Rectangle 400907" transform="translate(-0.446 -0.445)" fill="none" stroke="#828dab" stroke-width="0.5">
                      <rect width="76.345" height="76.345" rx="38.172" stroke="none"/>
                      <rect x="0.25" y="0.25" width="75.845" height="75.845" rx="37.922" fill="none"/>
                    </g>
                  </g>
                </g>
              </g>
            </g>
          </g>
        </g>
      </g>
    </g>
    <g id="transparency_18122277" transform="translate(1023.316 3105.285)">
      <path id="Path_1244914" data-name="Path 1244914" d="M133.817,23.582h28.472v6.811H169.1V69.457H133.817Z" transform="translate(-110.696 -8.683)" fill="#ecf2f6" fill-rule="evenodd"/>
      <path id="Path_1244915" data-name="Path 1244915" d="M422.314,30.393h6.811l-6.811-6.811Z" transform="translate(-370.721 -8.683)" fill="#ccc" fill-rule="evenodd"/>
      <path id="Path_1244916" data-name="Path 1244916" d="M0,0H9.724V3.856H0Z" transform="translate(22.323 47.672) rotate(-45)" fill="#8f848f"/>
      <path id="Path_1244917" data-name="Path 1244917" d="M0,0H12.91V7.377H0Z" transform="translate(11.95 55.554) rotate(-45)" fill="#a49ba4"/>
      <path id="Path_1244918" data-name="Path 1244918" d="M0,0H9.724V1.928H0Z" transform="translate(22.323 47.671) rotate(-45)" fill="#a49ba4"/>
      <path id="Path_1244919" data-name="Path 1244919" d="M0,0H12.91V3.688H0Z" transform="translate(11.95 55.553) rotate(-45)" fill="#8f848f"/>
      <path id="Path_1244920" data-name="Path 1244920" d="M213.137,415.847h4.073v7.162h-4.073Z" transform="translate(-182.188 -362.235)" fill="#fd4755"/>
      <path id="Path_1244921" data-name="Path 1244921" d="M292.112,380.183h4.073v10.682h-4.073Z" transform="translate(-253.369 -330.091)" fill="#ffd064"/>
      <path id="Path_1244922" data-name="Path 1244922" d="M371.087,348.167h4.073v13.841h-4.073Z" transform="translate(-324.55 -301.235)" fill="#00e499"/>
      <path id="Path_1244923" data-name="Path 1244923" d="M450.062,296.94h4.073v18.9h-4.073Z" transform="translate(-395.731 -255.063)" fill="#60b7ff"/>
      <path id="Path_1244924" data-name="Path 1244924" d="M450.062,296.94H452.1v18.9h-2.036Z" transform="translate(-395.731 -255.063)" fill="#8ac9fe"/>
      <path id="Path_1244925" data-name="Path 1244925" d="M371.087,348.167h2.036v13.841h-2.036Z" transform="translate(-324.55 -301.235)" fill="#6cf5c2"/>
      <path id="Path_1244926" data-name="Path 1244926" d="M292.112,380.183h2.036v10.682h-2.036Z" transform="translate(-253.369 -330.091)" fill="#ffe177"/>
      <path id="Path_1244927" data-name="Path 1244927" d="M213.137,415.847h2.036v7.162h-2.036Z" transform="translate(-182.188 -362.235)" fill="#fe646f"/>
      <g id="Group_1204347" data-name="Group 1204347" transform="translate(26.532 17.473)">
        <path id="Path_1244928" data-name="Path 1244928" d="M168.944,50.787a.562.562,0,1,1,0-1.123h19.239a.562.562,0,1,1,0,1.123Z" transform="translate(-168.382 -49.664)" fill="#ccc" fill-rule="evenodd"/>
        <path id="Path_1244929" data-name="Path 1244929" d="M168.944,82.336a.562.562,0,1,1,0-1.123h19.239a.562.562,0,1,1,0,1.123Z" transform="translate(-168.382 -78.099)" fill="#ccc" fill-rule="evenodd"/>
        <path id="Path_1244930" data-name="Path 1244930" d="M187.511,119.465a11.065,11.065,0,1,1-15.649,0A11.065,11.065,0,0,1,187.511,119.465Zm-2.608,2.608a7.378,7.378,0,1,0,0,10.434A7.378,7.378,0,0,0,184.9,122.072Z" transform="translate(-168.597 -109.655)" fill="#60b7ff" fill-rule="evenodd"/>
        <path id="Path_1244931" data-name="Path 1244931" d="M171.862,135.114a11.065,11.065,0,1,1,15.649-15.649l-2.608,2.608a7.378,7.378,0,0,0-10.434,10.434l-2.608,2.608Z" transform="translate(-168.597 -109.655)" fill="#8ac9fe" fill-rule="evenodd"/>
      </g>
      <circle id="Ellipse_12458" data-name="Ellipse 12458" cx="8.153" cy="8.153" r="8.153" transform="translate(26.976 30.69) rotate(-22.514)" fill="#ffd064"/>
      <path id="Path_1244932" data-name="Path 1244932" d="M206.286,145.735a8.128,8.128,0,0,1,5.765,2.388l-11.53,11.53a8.153,8.153,0,0,1,5.765-13.918Z" transform="translate(-168.665 -118.781)" fill="#ffe177" fill-rule="evenodd"/>
      <g id="Group_1204348" data-name="Group 1204348" transform="translate(11 13.948)">
        <path id="Path_1244933" data-name="Path 1244933" d="M161.95,61.725H126.225a.664.664,0,0,1-.664-.664V58.049a.664.664,0,1,1,1.327,0V60.4h34.4V21.783l-6.507-6.507H126.888V43.2a.664.664,0,1,1-1.327,0V14.613a.663.663,0,0,1,.664-.664h28.829a.659.659,0,0,1,.468.194l6.9,6.9a.661.661,0,0,1,.195.469V61.062a.664.664,0,0,1-.663.664Z" transform="translate(-114.255 -13.949)" fill-rule="evenodd"/>
        <path id="Path_1244934" data-name="Path 1244934" d="M425.234,22.172h-6.9a.664.664,0,0,1-.664-.664v-6.9a.663.663,0,1,1,1.327,0v6.233h6.233a.664.664,0,0,1,0,1.327Z" transform="translate(-377.539 -13.948)" fill-rule="evenodd"/>
        <path id="Path_1244935" data-name="Path 1244935" d="M118.092,293.974a.664.664,0,0,1-.47-1.133l6.3-6.3a.664.664,0,0,1,.938.938l-6.3,6.3a.662.662,0,0,1-.469.194Zm2.76,2.761a.659.659,0,0,0,.469-.2l6.3-6.3a.664.664,0,0,0-.938-.938l-6.3,6.3a.664.664,0,0,0,.469,1.133Z" transform="translate(-106.925 -259.462)" fill-rule="evenodd"/>
        <path id="Path_1244936" data-name="Path 1244936" d="M12.6,347.334l4.344,4.344,8.3-8.3-4.343-4.343-8.3,8.3Zm4.344,5.946a.661.661,0,0,1-.47-.2L11.194,347.8a.664.664,0,0,1,0-.938l9.243-9.242a.661.661,0,0,1,.938,0l5.282,5.281a.664.664,0,0,1,0,.939l-9.242,9.242a.663.663,0,0,1-.469.2Z" transform="translate(-11 -305.503)" fill-rule="evenodd"/>
        <path id="Path_1244937" data-name="Path 1244937" d="M172.719,112.076a7.59,7.59,0,1,0,5.367,2.223A7.539,7.539,0,0,0,172.719,112.076Zm0,16.5a8.915,8.915,0,1,1,6.305-15.218h0a8.913,8.913,0,0,1-6.305,15.218Zm0-19.449a10.536,10.536,0,1,1-7.453,3.083,10.508,10.508,0,0,1,7.453-3.083Zm0,22.4a11.862,11.862,0,1,1,8.392-3.47,11.827,11.827,0,0,1-8.392,3.47Z" transform="translate(-146.068 -98.541)" fill-rule="evenodd"/>
        <path id="Path_1244938" data-name="Path 1244938" d="M210.657,419.7a.665.665,0,0,1-.664-.664v-6.588h-2.8v6.588a.664.664,0,0,1-1.327,0v-7.252a.664.664,0,0,1,.664-.664h4.124a.663.663,0,0,1,.663.664v7.252a.664.664,0,0,1-.663.664Z" transform="translate(-186.638 -371.926)" fill-rule="evenodd"/>
        <path id="Path_1244939" data-name="Path 1244939" d="M290.62,387.152a.665.665,0,0,1-.664-.664V376.336h-2.8v10.152a.664.664,0,0,1-1.327,0V375.673a.664.664,0,0,1,.664-.664h4.124a.663.663,0,0,1,.663.664v10.816A.664.664,0,0,1,290.62,387.152Z" transform="translate(-258.709 -339.376)" fill-rule="evenodd"/>
        <path id="Path_1244940" data-name="Path 1244940" d="M370.584,357.934a.665.665,0,0,1-.664-.664V343.918h-2.8V357.27a.664.664,0,1,1-1.327,0V343.255a.664.664,0,0,1,.664-.664h4.124a.663.663,0,0,1,.663.664V357.27a.664.664,0,0,1-.663.664Z" transform="translate(-330.781 -310.157)" fill-rule="evenodd"/>
        <path id="Path_1244941" data-name="Path 1244941" d="M446.434,311.184a.664.664,0,0,1-.664-.664V291.387a.663.663,0,0,1,.663-.664h4.124a.664.664,0,0,1,0,1.327H447.1v18.471A.665.665,0,0,1,446.434,311.184Z" transform="translate(-402.862 -263.408)" fill-rule="evenodd"/>
        <path id="Path_1244942" data-name="Path 1244942" d="M255.681,176.393a.664.664,0,0,1-.664-.664v-1.16a3.208,3.208,0,0,1-1.759-.963.663.663,0,1,1,.962-.913,1.834,1.834,0,0,0,1.959.49,1.317,1.317,0,0,0,.935-1.073c.046-.573-.518-1.086-1.505-1.374-2.3-.67-2.655-2-2.7-2.544a2.544,2.544,0,0,1,1.524-2.42,2.987,2.987,0,0,1,.583-.207v-1.2a.664.664,0,1,1,1.327,0v1.167a3.765,3.765,0,0,1,1.907,1.018.663.663,0,1,1-.913.963,2.065,2.065,0,0,0-2.331-.546,1.222,1.222,0,0,0-.775,1.115c.047.567.683,1.069,1.748,1.378,2.428.707,2.494,2.286,2.457,2.754a2.607,2.607,0,0,1-1.815,2.219c-.092.033-.185.061-.278.084v1.211a.663.663,0,0,1-.663.664Z" transform="translate(-229.029 -148.924)" fill-rule="evenodd"/>
      </g>
    </g>
  </g>
</svg>
