<svg xmlns="http://www.w3.org/2000/svg" width="110.002" height="110" viewBox="0 0 110.002 110">
  <g id="Group_1271861" data-name="Group 1271861" transform="translate(-871.113 -277.164)">
    <g id="Group_1188789" data-name="Group 1188789" transform="translate(871.113 277.164)">
      <path id="Path_1243039" data-name="Path 1243039" d="M47.05,0h0a47.05,47.05,0,1,1,0,94.1h0a47.05,47.05,0,1,1,0-94.1Z" transform="translate(7.951 7.949)" fill="#9af0f3"/>
      <rect id="Rectangle_400907" data-name="Rectangle 400907" width="100.44" height="100.438" rx="50.219" transform="translate(4.782 4.781)" fill="none"/>
      <g id="Group_1098742" data-name="Group 1098742" transform="translate(0)">
        <g id="Rectangle_400898" data-name="Rectangle 400898" transform="translate(0)" fill="none" stroke="#fff" stroke-width="2" opacity="0.859">
          <rect width="110.001" height="110" rx="55" stroke="none"/>
          <rect x="1" y="1" width="108.001" height="108" rx="54" fill="none"/>
        </g>
        <g id="Rectangle_400907-2" data-name="Rectangle 400907" transform="translate(0)" fill="none" stroke="#0f1f33" stroke-linecap="round" stroke-width="2">
          <rect width="110.001" height="110" rx="55" stroke="none"/>
          <rect x="1" y="1" width="108.001" height="108" rx="54" fill="none"/>
        </g>
      </g>
    </g>
    <g id="Profit_Growth-Ecommerce-Stat-Report-Woman" data-name="Profit Growth-Ecommerce-Stat-Report-Woman" transform="translate(896.744 302.794)">
      <path id="Path_1244962" data-name="Path 1244962" d="M60.79,12.79H52.958A1.964,1.964,0,0,1,51,10.832V3Z" transform="translate(-3.03 -2.021)" fill="#bcbec0"/>
      <path id="Path_1244963" data-name="Path 1244963" d="M60.075,12.79V55.865a3.916,3.916,0,0,1-3.916,3.916H20.916A3.916,3.916,0,0,1,17,55.865V6.916A3.916,3.916,0,0,1,20.916,3h29.37v7.832a1.964,1.964,0,0,0,1.958,1.958Z" transform="translate(-2.315 -2.021)" fill="#e6e7e8"/>
      <path id="Path_1244964" data-name="Path 1244964" d="M34.622,49.529v8.4a3.905,3.905,0,0,1-.529,1.958H20.916A3.916,3.916,0,0,1,17,55.97V8.392A11.393,11.393,0,0,1,19.957,8,11.732,11.732,0,0,1,31.685,19.748V26.6c0,.255-.01.519-.02.773a4.087,4.087,0,0,0,1.175,3.074,2.954,2.954,0,0,1,.2,3.818,1.984,1.984,0,0,0,.059,2.369,2.937,2.937,0,0,1-1.84,4.6c-.02,0-.029.01-.049.01A11.742,11.742,0,0,1,34.622,49.529Z" transform="translate(-2.315 -2.126)" fill="#d8d7da"/>
      <path id="Path_1244965" data-name="Path 1244965" d="M30.863,34.635a1.984,1.984,0,0,1-.059-2.369,2.954,2.954,0,0,0-.2-3.818,4.087,4.087,0,0,1-1.175-3.074c.01-.255.02-.519.02-.773V17.748A11.732,11.732,0,0,0,17.725,6,12.072,12.072,0,0,0,5.958,18.09V24.6c0,.255.01.519.02.773A4.087,4.087,0,0,1,4.8,28.448a2.954,2.954,0,0,0-.2,3.818,1.984,1.984,0,0,1-.059,2.369,2.937,2.937,0,0,0,1.84,4.6c.02,0,.029.01.049.01h.01a11.417,11.417,0,0,1,3.064-2.232l.7-.352a7.821,7.821,0,0,0,1.664,2.957,3.361,3.361,0,0,0,5.835-2.281,3.361,3.361,0,0,0,5.835,2.281A7.821,7.821,0,0,0,25.2,36.662l.7.352a11.417,11.417,0,0,1,3.064,2.232h.01c.02,0,.029-.01.049-.01a2.937,2.937,0,0,0,1.84-4.6Z" transform="translate(-2.042 -2.084)" fill="#57565c"/>
      <path id="Path_1244966" data-name="Path 1244966" d="M17.839,37.937v.01A3.361,3.361,0,0,1,12,40.228a7.821,7.821,0,0,1-1.664-2.957L14.9,35A2.937,2.937,0,0,0,17.839,37.937Z" transform="translate(-2.175 -2.693)" fill="#e6e7e8"/>
      <path id="Path_1244967" data-name="Path 1244967" d="M18,37.937A2.937,2.937,0,0,0,20.937,35L25.5,37.271a7.821,7.821,0,0,1-1.664,2.957A3.361,3.361,0,0,1,18,37.947Z" transform="translate(-2.336 -2.693)" fill="#e6e7e8"/>
      <path id="Path_1244968" data-name="Path 1244968" d="M28.953,39.9h-.01a11.417,11.417,0,0,0-3.064-2.232l-.7-.352a7.821,7.821,0,0,1-1.664,2.957A3.361,3.361,0,0,1,17.685,38a3.361,3.361,0,0,1-5.835,2.281,7.821,7.821,0,0,1-1.664-2.957l-.7.352A11.417,11.417,0,0,0,6.426,39.9h-.01A11.742,11.742,0,0,0,3,48.187v3.5H8.874V60.5H26.5V51.692H32.37v-3.5A11.743,11.743,0,0,0,28.952,39.9Z" transform="translate(-2.021 -2.742)" fill="#ea348b"/>
      <path id="Path_1244969" data-name="Path 1244969" d="M20.874,30.42V34.9A2.937,2.937,0,0,1,15,34.9V30.42a7.88,7.88,0,0,0,5.874,0Z" transform="translate(-2.273 -2.597)" fill="#ffc477"/>
      <path id="Path_1244970" data-name="Path 1244970" d="M12,45H23.748V60.664H12Z" transform="translate(-2.21 -2.904)" fill="#e6e7e8"/>
      <path id="Path_1244971" data-name="Path 1244971" d="M26.832,52v2.937H21.937a2.937,2.937,0,1,0,0,5.874H28.79a3.916,3.916,0,0,0,3.916-3.916V52Z" transform="translate(-2.357 -3.051)" fill="#ffc477"/>
      <path id="Path_1244972" data-name="Path 1244972" d="M13.769,54.937H8.874V52H3v4.895a3.916,3.916,0,0,0,3.916,3.916h6.853a2.937,2.937,0,1,0,0-5.874Z" transform="translate(-2.021 -3.051)" fill="#ffc477"/>
      <path id="Path_1244973" data-name="Path 1244973" d="M20.874,30.42v2.937a7.88,7.88,0,0,1-5.874,0V30.42a7.88,7.88,0,0,0,5.874,0Z" transform="translate(-2.273 -2.597)" fill="#ffb655"/>
      <path id="Path_1244974" data-name="Path 1244974" d="M14.895,31.054A7.84,7.84,0,0,1,10,23.79V16.937c5.874,0,7.832,0,11.748-2.937l3.916,2.937V23.79a7.83,7.83,0,0,1-10.769,7.264Z" transform="translate(-2.168 -2.252)" fill="#ffc477"/>
      <path id="Path_1244975" data-name="Path 1244975" d="M14,20h1.958v1.958H14Z" transform="translate(-2.252 -2.378)"/>
      <path id="Path_1244976" data-name="Path 1244976" d="M20,20h1.958v1.958H20Z" transform="translate(-2.378 -2.378)"/>
      <path id="Path_1244977" data-name="Path 1244977" d="M15.989,25.25l-1.3,1.468a4.895,4.895,0,0,0,6.477,0l-1.3-1.468A3.009,3.009,0,0,1,15.989,25.25Z" transform="translate(-2.267 -2.489)"/>
      <path id="Path_1244978" data-name="Path 1244978" d="M53.622,27.916H51.664V42.6H49.706V31.832H47.748V42.6H45.79V33.79H43.832V42.6H41.874V36.727H39.916V42.6H37.958V24H36V43.58a.979.979,0,0,0,.979.979h18.6V42.6H53.622Z" transform="translate(-2.714 -2.462)"/>
      <path id="Path_1244979" data-name="Path 1244979" d="M40.293,32.035l1.384,1.384L51.754,23.342v1.553h1.958V20.979A.979.979,0,0,0,52.733,20H48.817v1.958H50.37Z" transform="translate(-2.805 -2.378)"/>
      <path id="Path_1244980" data-name="Path 1244980" d="M41.895,16.811H39.937a.979.979,0,0,1-.979-.979H37a2.937,2.937,0,0,0,2.937,2.937v.979h1.958v-.979a2.937,2.937,0,1,0,0-5.874H39.937a.979.979,0,0,1,0-1.958h1.958a.979.979,0,0,1,.979.979h1.958a2.937,2.937,0,0,0-2.937-2.937V8H39.937v.979a2.937,2.937,0,0,0,0,5.874h1.958a.979.979,0,1,1,0,1.958Z" transform="translate(-2.735 -2.126)"/>
      <path id="Path_1244981" data-name="Path 1244981" d="M36,49h3.916v1.958H36Z" transform="translate(-2.714 -2.988)"/>
      <path id="Path_1244982" data-name="Path 1244982" d="M42,49H55.706v1.958H42Z" transform="translate(-2.841 -2.988)"/>
      <path id="Path_1244983" data-name="Path 1244983" d="M36,53H55.58v1.958H36Z" transform="translate(-2.714 -3.072)"/>
      <path id="Path_1244984" data-name="Path 1244984" d="M60.455,12.074l-9.79-9.79A1.011,1.011,0,0,0,49.97,2H20.6a4.873,4.873,0,0,0-4.542,3.1,12.531,12.531,0,0,0-7.205,3.6,13.3,13.3,0,0,0-3.916,9.34v6.51c0,.284.01.558.029.832a3.188,3.188,0,0,1-.91,2.34,3.923,3.923,0,0,0-.264,5.091,1.032,1.032,0,0,1-.078,1.2,3.928,3.928,0,0,0-.676,3,3.886,3.886,0,0,0,1.694,2.536A12.669,12.669,0,0,0,2,47.445v8.4a4.895,4.895,0,0,0,4.895,4.895H55.844a4.895,4.895,0,0,0,4.895-4.895V12.769a1.011,1.011,0,0,0-.284-.7ZM50.949,5.338,57.4,11.79H51.928a.979.979,0,0,1-.979-.979ZM5.338,31.624a1.972,1.972,0,0,1-.4-1.194,2,2,0,0,1,.538-1.361,5.111,5.111,0,0,0,1.439-3.808c-.01-.235-.02-.47-.02-.7v-6.51a11.348,11.348,0,0,1,3.338-7.959,10.486,10.486,0,0,1,7.431-3.152h.02A10.763,10.763,0,0,1,28.433,17.7v6.853c0,.235-.01.47-.02.7a5.111,5.111,0,0,0,1.439,3.808,2,2,0,0,1,.538,1.361,1.972,1.972,0,0,1-.4,1.194,2.923,2.923,0,0,0,.039,3.534,1.952,1.952,0,0,1,.323,1.527,1.915,1.915,0,0,1-1.116,1.39,12.665,12.665,0,0,0-2.947-2.017L21.58,33.7V31.419a8.819,8.819,0,0,0,4.895-7.881V16.685a.993.993,0,0,0-.392-.783l-3.916-2.937a.969.969,0,0,0-1.175,0c-3.652,2.741-5.394,2.741-11.16,2.741a.979.979,0,0,0-.979.979v6.853a8.819,8.819,0,0,0,4.895,7.881V33.7L9.039,36.059a12.665,12.665,0,0,0-2.947,2.017A1.933,1.933,0,0,1,5.3,35.168a2.937,2.937,0,0,0,.039-3.544Zm11.219,6.422a2.4,2.4,0,0,1-1.42,1.439,2.277,2.277,0,0,1-2.575-.607,6.853,6.853,0,0,1-1.175-1.811l2.643-1.322a3.916,3.916,0,0,0,2.526,2.3ZM10.811,23.538V17.664c4.944-.01,7.186-.166,10.759-2.7l2.947,2.213v6.363a6.853,6.853,0,1,1-13.706,0Zm4.895,10.769V32.123a8.626,8.626,0,0,0,3.916,0v2.183a1.958,1.958,0,1,1-3.916,0Zm5.59,1.439,2.643,1.322a7.068,7.068,0,0,1-1.165,1.811,2.3,2.3,0,0,1-2.585.607,2.4,2.4,0,0,1-1.42-1.439,3.916,3.916,0,0,0,2.526-2.3ZM13.748,58.781H6.895a2.946,2.946,0,0,1-2.937-2.937V51.928H7.874v1.557L6.2,55.149l1.39,1.39,1.664-1.674h4.494a1.958,1.958,0,1,1,0,3.916Zm4.464,0h-1.1a3.824,3.824,0,0,0,.548-1.958,3.916,3.916,0,0,0-3.916-3.916h-.979V45.075h9.79v7.832H21.58a3.916,3.916,0,0,0-3.916,3.916A3.824,3.824,0,0,0,18.212,58.781ZM31.37,55.844a2.946,2.946,0,0,1-2.937,2.937H21.58a1.958,1.958,0,0,1,0-3.916h4.494l1.664,1.674,1.39-1.39-1.674-1.664V51.928H31.37Zm0-5.874H27.454V47.033H25.5v5.874h-.979V44.1a.979.979,0,0,0-.979-.979H11.79a.979.979,0,0,0-.979.979v8.811H9.832V47.033H7.874V49.97H3.958V47.445A10.689,10.689,0,0,1,6.8,40.18h.1v-.108a10.946,10.946,0,0,1,2.761-2.115A8.573,8.573,0,0,0,11.1,40.19a4.219,4.219,0,0,0,3.143,1.429,4.391,4.391,0,0,0,1.6-.3,4.308,4.308,0,0,0,1.821-1.331,4.308,4.308,0,0,0,1.821,1.331,4.391,4.391,0,0,0,1.6.3,4.256,4.256,0,0,0,3.152-1.429,8.8,8.8,0,0,0,1.439-2.232,11.1,11.1,0,0,1,2.516,1.86c.039.039.069.078.108.117a10.66,10.66,0,0,1,3.074,7.509Zm27.412,5.874a2.946,2.946,0,0,1-2.937,2.937H32.319a4.821,4.821,0,0,0,1.008-2.937v-8.4A12.621,12.621,0,0,0,30.6,39.564a3.885,3.885,0,0,0,1.684-2.536,3.928,3.928,0,0,0-.666-3.015,1.015,1.015,0,0,1-.078-1.194,3.923,3.923,0,0,0-.264-5.091,3.188,3.188,0,0,1-.91-2.34c.02-.274.029-.548.029-.832V17.7A12.661,12.661,0,0,0,18.359,5.015,2.893,2.893,0,0,1,20.6,3.958H48.991v6.853a2.946,2.946,0,0,0,2.937,2.937h6.853Z" transform="translate(-2 -2)"/>
    </g>
  </g>
</svg>
