<svg xmlns="http://www.w3.org/2000/svg" width="98" height="97.999" viewBox="0 0 98 97.999">
  <g id="Group_1271706" data-name="Group 1271706" transform="translate(0)">
    <g id="Group_1204180" data-name="Group 1204180" transform="translate(0)">
      <g id="Group_1204143" data-name="Group 1204143">
        <g id="Group_1188789" data-name="Group 1188789">
          <path id="Path_1243039" data-name="Path 1243039" d="M41.05,0h0a41.05,41.05,0,1,1,0,82.1h0a41.05,41.05,0,1,1,0-82.1Z" transform="translate(7.951 7.949)" fill="#bbccf6"/>
          <rect id="Rectangle_400907" data-name="Rectangle 400907" width="88.438" height="88.437" rx="44.218" transform="translate(4.782 4.781)" fill="none"/>
          <g id="Group_1098742" data-name="Group 1098742">
            <g id="Rectangle_400898" data-name="Rectangle 400898" transform="translate(0)" fill="none" stroke="#fff" stroke-width="2" opacity="0.859">
              <rect width="98" height="97.999" rx="48.999" stroke="none"/>
              <rect x="1" y="1" width="96" height="95.999" rx="47.999" fill="none"/>
            </g>
            <g id="Rectangle_400907-2" data-name="Rectangle 400907" transform="translate(0)" fill="none" stroke="#0f1f33" stroke-linecap="round" stroke-width="2">
              <rect width="98" height="97.999" rx="48.999" stroke="none"/>
              <rect x="1" y="1" width="96" height="95.999" rx="47.999" fill="none"/>
            </g>
          </g>
        </g>
      </g>
    </g>
    <g id="Group_1272389" data-name="Group 1272389" transform="translate(-7.165 -4513.181)">
      <path id="Path_1491477" data-name="Path 1491477" d="M4.735,108.021a1.6,1.6,0,0,1-1.621,1.784,1.743,1.743,0,0,1-1.8-1.784V95.534a3.6,3.6,0,0,1,3.6-3.568h10.81l.541.178A4.981,4.981,0,0,0,16,93.75v31.219H4.735Z" transform="translate(28.909 4461.161)" fill="#ff7979"/>
      <path id="Path_1491478" data-name="Path 1491478" d="M54.24,108.021v16.947H42.979V93.75a3.59,3.59,0,0,0-.36-1.695l.541-.089h10.81a3.6,3.6,0,0,1,3.6,3.568v12.488a1.8,1.8,0,0,1-1.8,1.784,1.585,1.585,0,0,1-1.532-1.784" transform="translate(24.447 4461.161)" fill="#86dcfd"/>
      <path id="Path_1491479" data-name="Path 1491479" d="M35.792,109.035v15.61H22.28v-15.61a2.252,2.252,0,0,1-4.5,0V93.426a4.623,4.623,0,0,1,.269-1.606,5.516,5.516,0,0,1,.991-1.516,4.612,4.612,0,0,1,3.153-1.338H35.7a4.539,4.539,0,0,1,4.144,2.765,3.833,3.833,0,0,1,.36,1.695v15.61a2.219,2.219,0,0,1-2.252,2.23,2.145,2.145,0,0,1-2.162-2.23" transform="translate(27.13 4461.485)" fill="#d8f2f1"/>
      <path id="Path_1491480" data-name="Path 1491480" d="M10.968,80.966a4.46,4.46,0,1,1-4.5,4.46,4.482,4.482,0,0,1,4.5-4.46" transform="translate(28.352 4462.349)" fill="#ffd8a8"/>
      <path id="Path_1491481" data-name="Path 1491481" d="M29.712,75.266a5.62,5.62,0,1,1-5.675,5.619,5.624,5.624,0,0,1,5.675-5.619" transform="translate(26.454 4462.965)" fill="#ffd8a8"/>
      <path id="Path_1491482" data-name="Path 1491482" d="M48.84,80.966a4.46,4.46,0,1,1-4.5,4.46,4.482,4.482,0,0,1,4.5-4.46" transform="translate(24.261 4462.349)" fill="#ffd8a8"/>
      <path id="Path_1491483" data-name="Path 1491483" d="M29.581,87.346a6.69,6.69,0,1,1,6.756-6.69,6.772,6.772,0,0,1-6.756,6.69m0-11.15a4.46,4.46,0,1,0,4.5,4.46,4.439,4.439,0,0,0-4.5-4.46" transform="translate(26.585 4463.105)"/>
      <path id="Path_1491484" data-name="Path 1491484" d="M40.143,108.727a1.187,1.187,0,0,1-1.172-1.16V93.3a3.547,3.547,0,0,0-.269-1.338,3.354,3.354,0,0,0-3.152-2.052H22.127a3.669,3.669,0,0,0-2.433.981,3.151,3.151,0,0,0-.72,1.16A2.813,2.813,0,0,0,18.7,93.3v14.272a1.171,1.171,0,0,1-2.342,0V93.3a5.171,5.171,0,0,1,.36-2.052,5.32,5.32,0,0,1,1.26-1.873,5.619,5.619,0,0,1,3.965-1.606H35.458a5.722,5.722,0,0,1,5.224,3.389,6.061,6.061,0,0,1,.451,2.141v14.272a.951.951,0,0,1-.991,1.16" transform="translate(27.283 4461.615)"/>
      <path id="Path_1491485" data-name="Path 1491485" d="M37.832,128.095a1.186,1.186,0,0,1-1.17-1.16v-15.61a1.171,1.171,0,0,1,2.341,0,1.171,1.171,0,0,0,2.341,0,1.171,1.171,0,0,1,2.342,0,3.4,3.4,0,0,1-3.422,3.389,5.322,5.322,0,0,1-1.171-.178v12.488a1.345,1.345,0,0,1-1.261,1.07" transform="translate(25.09 4459.195)"/>
      <path id="Path_1491486" data-name="Path 1491486" d="M22.127,128.084a1.187,1.187,0,0,1-1.171-1.16V114.437a4.612,4.612,0,0,1-1.171.178,3.405,3.405,0,0,1-3.423-3.389,1.171,1.171,0,0,1,2.342,0,1.171,1.171,0,0,0,2.342,0,1.171,1.171,0,0,1,2.341,0v15.61a1.347,1.347,0,0,1-1.26,1.249" transform="translate(27.283 4459.206)"/>
      <path id="Path_1491487" data-name="Path 1491487" d="M30.257,128.235a1.187,1.187,0,0,1-1.171-1.16v-14.45a1.171,1.171,0,0,1,2.341,0v14.539a1.174,1.174,0,0,1-1.17,1.07" transform="translate(25.909 4459.054)"/>
      <path id="Path_1491488" data-name="Path 1491488" d="M48.7,90.9a5.681,5.681,0,0,1-5.675-5.619,5.675,5.675,0,0,1,11.349,0A5.681,5.681,0,0,1,48.7,90.9m0-8.92a3.39,3.39,0,1,0,3.423,3.389A3.463,3.463,0,0,0,48.7,81.985" transform="translate(24.403 4462.49)"/>
      <path id="Path_1491489" data-name="Path 1491489" d="M54.174,125.977a1.186,1.186,0,0,1-1.17-1.16V107.87a1.17,1.17,0,0,1,2.341,0c0,.268.091.714.451.714a.707.707,0,0,0,.721-.714V95.383a2.506,2.506,0,0,0-2.522-2.5H43.184a1.16,1.16,0,1,1,0-2.319h10.81a4.782,4.782,0,0,1,4.774,4.727v12.488a2.984,2.984,0,0,1-2.972,2.944h-.451v14.093a1.186,1.186,0,0,1-1.17,1.16" transform="translate(24.512 4461.312)"/>
      <path id="Path_1491490" data-name="Path 1491490" d="M42.881,127.933a1.187,1.187,0,0,1-1.172-1.16V109.826a1.171,1.171,0,0,1,2.342,0v16.947a1.186,1.186,0,0,1-1.17,1.16" transform="translate(24.545 4459.357)"/>
      <path id="Path_1491491" data-name="Path 1491491" d="M10.827,90.9a5.682,5.682,0,0,1-5.676-5.619,5.675,5.675,0,0,1,11.35,0A5.681,5.681,0,0,1,10.827,90.9m0-8.92a3.39,3.39,0,1,0,3.423,3.389,3.464,3.464,0,0,0-3.423-3.389" transform="translate(28.494 4462.49)"/>
      <path id="Path_1491492" data-name="Path 1491492" d="M4.594,125.977a1.186,1.186,0,0,1-1.17-1.16V110.725h-.45A2.985,2.985,0,0,1,0,107.781V95.293a4.782,4.782,0,0,1,4.774-4.727h10.81a1.16,1.16,0,1,1,0,2.319H4.774a2.506,2.506,0,0,0-2.522,2.5V107.87a.707.707,0,0,0,.721.714c.36,0,.45-.446.45-.714a1.171,1.171,0,0,1,2.341,0v16.947a1.187,1.187,0,0,1-1.171,1.16" transform="translate(29.051 4461.312)"/>
      <path id="Path_1491493" data-name="Path 1491493" d="M17.633,127.933a1.187,1.187,0,0,1-1.172-1.16V109.826a1.171,1.171,0,0,1,2.342,0v16.947a1.186,1.186,0,0,1-1.17,1.16" transform="translate(27.273 4459.357)"/>
      <path id="Path_1491494" data-name="Path 1491494" d="M53.07,129.985H1.272a1.16,1.16,0,1,1,0-2.319h51.8a1.186,1.186,0,0,1,1.17,1.16,1.329,1.329,0,0,1-1.17,1.16" transform="translate(29.04 4457.304)"/>
    </g>
  </g>
</svg>
