<svg xmlns="http://www.w3.org/2000/svg" xmlns:xlink="http://www.w3.org/1999/xlink" width="98" height="97.999" viewBox="0 0 98 97.999">
  <defs>
    <linearGradient id="linear-gradient" x1="0.5" x2="0.5" y2="1.267" gradientUnits="objectBoundingBox">
      <stop offset="0" stop-color="#ff9f8a"/>
      <stop offset="1" stop-color="#c946b0"/>
    </linearGradient>
  </defs>
  <g id="Group_1271755" data-name="Group 1271755" transform="translate(-802.781 -1967)">
    <g id="Group_1204180" data-name="Group 1204180" transform="translate(-1 -5.016)">
      <g id="Group_1204143" data-name="Group 1204143" transform="translate(-67.331 1694.852)">
        <g id="Group_1188789" data-name="Group 1188789" transform="translate(871.113 277.164)">
          <path id="Path_1243039" data-name="Path 1243039" d="M41.05,0h0a41.05,41.05,0,0,1,0,82.1h0a41.05,41.05,0,0,1,0-82.1Z" transform="translate(7.951 7.949)" fill="url(#linear-gradient)"/>
          <rect id="Rectangle_400907" data-name="Rectangle 400907" width="88.438" height="88.437" rx="44.218" transform="translate(4.782 4.781)" fill="none"/>
          <g id="Group_1098742" data-name="Group 1098742" transform="translate(0)">
            <g id="Rectangle_400898" data-name="Rectangle 400898" transform="translate(0)" fill="none" stroke="#fff" stroke-width="2" opacity="0.859">
              <rect width="98" height="97.999" rx="48.999" stroke="none"/>
              <rect x="1" y="1" width="96" height="95.999" rx="47.999" fill="none"/>
            </g>
            <g id="Rectangle_400907-2" data-name="Rectangle 400907" transform="translate(0)" fill="none" stroke="#0f1f33" stroke-linecap="round" stroke-width="2">
              <rect width="98" height="97.999" rx="48.999" stroke="none"/>
              <rect x="1" y="1" width="96" height="95.999" rx="47.999" fill="none"/>
            </g>
          </g>
        </g>
      </g>
    </g>
    <g id="Group_1272402" data-name="Group 1272402" transform="translate(7207.345 6859.316)">
      <rect id="Rectangle_426929" data-name="Rectangle 426929" width="17.573" height="5" transform="translate(-6383.151 -4825.2)" fill="#2f4a5f"/>
      <rect id="Rectangle_426930" data-name="Rectangle 426930" width="17.573" height="8.8" transform="translate(-6342.754 -4829)" fill="#2f4a5f"/>
      <path id="Path_1491614" data-name="Path 1491614" d="M251.022,46.3V58.8H228.3V46.3h22.723Z" transform="translate(-6593.878 -4879)" fill="#57606f"/>
      <path id="Path_1491615" data-name="Path 1491615" d="M239.61,46.3h-7.574V30a2.525,2.525,0,0,1-5.05,0V20a4.888,4.888,0,0,1,1.515-3.5,5.168,5.168,0,0,1,3.535-1.5h15.149a4.977,4.977,0,0,1,5.05,5V30a2.525,2.525,0,0,1-5.05,0V46.3Z" transform="translate(-6593.878 -4879)" fill="#86dcfd"/>
      <path id="Path_1491616" data-name="Path 1491616" d="M239.61,1.3a6.3,6.3,0,1,1-6.362,6.3,6.369,6.369,0,0,1,6.362-6.3" transform="translate(-6593.878 -4879)" fill="#ffd8a8"/>
      <path id="Path_1491617" data-name="Path 1491617" d="M239.61,15a7.592,7.592,0,0,1-7.574-7.5,7.575,7.575,0,0,1,15.149,0A7.527,7.527,0,0,1,239.61,15m0-12.5a5,5,0,1,0,5.05,5,4.977,4.977,0,0,0-5.05-5" transform="translate(-6593.878 -4879)"/>
      <path id="Path_1491618" data-name="Path 1491618" d="M247.186,47.5a1.332,1.332,0,0,1-1.315-1.3V30a1.313,1.313,0,0,1,2.626,0,1.313,1.313,0,0,0,2.626,0V20a3.817,3.817,0,0,0-3.837-3.8H232.137a4.109,4.109,0,0,0-2.727,1.1A3.844,3.844,0,0,0,228.3,20V30a1.313,1.313,0,0,0,2.626,0,1.313,1.313,0,0,1,2.625,0V46.3a1.313,1.313,0,0,1-2.625,0V33.5a5.164,5.164,0,0,1-1.313.2,3.818,3.818,0,0,1-3.838-3.8v-10a6.432,6.432,0,0,1,1.818-4.4,6.3,6.3,0,0,1,4.444-1.8h15.15a6.37,6.37,0,0,1,6.362,6.3V30a3.818,3.818,0,0,1-3.839,3.8,5.948,5.948,0,0,1-1.312-.2V46.3a1.159,1.159,0,0,1-1.211,1.2" transform="translate(-6593.878 -4879)"/>
      <path id="Path_1491619" data-name="Path 1491619" d="M239.61,47.5a1.33,1.33,0,0,1-1.312-1.3v-15a1.313,1.313,0,0,1,2.626,0v15a1.331,1.331,0,0,1-1.314,1.3" transform="translate(-6593.878 -4879)"/>
      <path id="Path_1491620" data-name="Path 1491620" d="M251.022,60H228.3a1.3,1.3,0,1,1,0-2.6H249.81V47.5h-20.2v6.3a1.313,1.313,0,0,1-2.626,0V46.3A1.33,1.33,0,0,1,228.3,45h22.723a1.33,1.33,0,0,1,1.313,1.3V58.8a1.4,1.4,0,0,1-1.313,1.2" transform="translate(-6593.878 -4879)"/>
      <path id="Path_1491621" data-name="Path 1491621" d="M268.7,60H251.124a1.33,1.33,0,0,1-1.313-1.3V49.9a1.331,1.331,0,0,1,1.313-1.3H268.7a1.332,1.332,0,0,1,1.313,1.3v8.8A1.405,1.405,0,0,1,268.7,60m-16.261-2.5h15.049V51.2H252.436Z" transform="translate(-6593.878 -4879)"/>
      <path id="Path_1491622" data-name="Path 1491622" d="M228.3,60H210.727a1.33,1.33,0,0,1-1.313-1.3v-5a1.33,1.33,0,0,1,1.313-1.3H228.3a1.33,1.33,0,0,1,1.312,1.3v5A1.4,1.4,0,0,1,228.3,60m-16.261-2.5h15.049V55H212.039Z" transform="translate(-6593.878 -4879)"/>
    </g>
  </g>
</svg>
