<svg xmlns="http://www.w3.org/2000/svg" width="98" height="97.999" viewBox="0 0 98 97.999">
  <g id="Group_1271705" data-name="Group 1271705" transform="translate(0)">
    <g id="Group_1204180" data-name="Group 1204180" transform="translate(0)">
      <g id="Group_1204143" data-name="Group 1204143">
        <g id="Group_1188789" data-name="Group 1188789">
          <path id="Path_1243039" data-name="Path 1243039" d="M41.05,0h0a41.05,41.05,0,1,1,0,82.1h0a41.05,41.05,0,1,1,0-82.1Z" transform="translate(7.951 7.949)" fill="#bbccf6"/>
          <rect id="Rectangle_400907" data-name="Rectangle 400907" width="88.438" height="88.437" rx="44.218" transform="translate(4.782 4.781)" fill="none"/>
          <g id="Group_1098742" data-name="Group 1098742">
            <g id="Rectangle_400898" data-name="Rectangle 400898" transform="translate(0)" fill="none" stroke="#fff" stroke-width="2" opacity="0.859">
              <rect width="98" height="97.999" rx="48.999" stroke="none"/>
              <rect x="1" y="1" width="96" height="95.999" rx="47.999" fill="none"/>
            </g>
            <g id="Rectangle_400907-2" data-name="Rectangle 400907" transform="translate(0)" fill="none" stroke="#0f1f33" stroke-linecap="round" stroke-width="2">
              <rect width="98" height="97.999" rx="48.999" stroke="none"/>
              <rect x="1" y="1" width="96" height="95.999" rx="47.999" fill="none"/>
            </g>
          </g>
        </g>
      </g>
    </g>
    <g id="Group_1272390" data-name="Group 1272390" transform="translate(-24.704 -4442.105)">
      <path id="Path_1491495" data-name="Path 1491495" d="M70.688,54.89H18.524a1.195,1.195,0,1,1,0-2.39H70.781a1.223,1.223,0,0,1,1.207,1.195,1.381,1.381,0,0,1-1.3,1.195" transform="translate(29.051 4458.856)"/>
      <path id="Path_1491496" data-name="Path 1491496" d="M30.845,1.3A4.6,4.6,0,1,1,26.2,5.9a4.618,4.618,0,0,1,4.64-4.6" transform="translate(28.331 4463)" fill="#ffd8a8"/>
      <path id="Path_1491497" data-name="Path 1491497" d="M30.428,50.66H24.581V35.771a3.508,3.508,0,0,1-3.527-3.492V18.492A3.508,3.508,0,0,1,24.581,15H50.2a3.508,3.508,0,0,1-3.527,3.492H36.184V50.66Z" transform="translate(28.748 4461.892)" fill="#2f4a5f"/>
      <path id="Path_1491498" data-name="Path 1491498" d="M63.18,48.9a2.205,2.205,0,0,1,1.578,3.768,2.435,2.435,0,0,1-1.578.643H60.952a2.205,2.205,0,0,1-1.578-3.768,2.435,2.435,0,0,1,1.578-.643Z" transform="translate(25.7 4459.148)" fill="#414a56"/>
      <path id="Path_1491499" data-name="Path 1491499" d="M65.3,44a2.491,2.491,0,0,1,1.114.276,1.813,1.813,0,0,1,.835.827,2.588,2.588,0,0,1,.371,1.195A2.188,2.188,0,0,1,65.389,48.5H58.427a2.25,2.25,0,0,1-1.577-.643A2.386,2.386,0,0,1,56.2,46.3a2.28,2.28,0,0,1,1.207-2.022A1.884,1.884,0,0,1,58.427,44Z" transform="translate(25.904 4459.544)" fill="#57606f"/>
      <path id="Path_1491500" data-name="Path 1491500" d="M64.912,41.831H58.043a1.884,1.884,0,0,0-1.02.276,14.628,14.628,0,0,0-3.156-7.812,10.6,10.6,0,0,1-2.413-6.709,10.121,10.121,0,1,1,20.235,0,10.417,10.417,0,0,1-2.506,6.8A14.044,14.044,0,0,0,65.933,42.2a1.4,1.4,0,0,0-1.021-.368" transform="translate(26.288 4461.713)" fill="#fcd884"/>
      <path id="Path_1491501" data-name="Path 1491501" d="M62.355,43.832a1.223,1.223,0,0,1-1.207-1.195V32.8A4.533,4.533,0,0,1,65.7,28.3a1.195,1.195,0,1,1,0,2.39A2.248,2.248,0,0,0,63.469,32.9v9.834a1.123,1.123,0,0,1-1.114,1.1" transform="translate(25.503 4460.815)"/>
      <path id="Path_1491502" data-name="Path 1491502" d="M62.052,33.99A1.223,1.223,0,0,1,60.846,32.8a2.248,2.248,0,0,0-2.228-2.206,1.195,1.195,0,1,1,0-2.39,4.533,4.533,0,0,1,4.548,4.5,1.173,1.173,0,0,1-1.114,1.287" transform="translate(25.806 4460.823)"/>
      <path id="Path_1491503" data-name="Path 1491503" d="M64.378,35.49H59.83a1.195,1.195,0,1,1,0-2.39h4.548a1.195,1.195,0,1,1,0,2.39" transform="translate(25.708 4460.427)"/>
      <path id="Path_1491504" data-name="Path 1491504" d="M65.835,43.213h-.093a1.147,1.147,0,0,1-1.021-1.287,16.094,16.094,0,0,1,3.527-8.455A9.578,9.578,0,0,0,70.476,27.4a9.21,9.21,0,0,0-8.91-9.283A8.831,8.831,0,0,0,55.346,20.7,9.4,9.4,0,0,0,52.562,27.4,9.678,9.678,0,0,0,54.7,33.47a15.986,15.986,0,0,1,3.435,8.455,1.169,1.169,0,0,1-2.321.276,13.411,13.411,0,0,0-2.878-7.169,11.661,11.661,0,0,1-2.692-7.444,11.27,11.27,0,0,1,3.527-8.272,11.018,11.018,0,0,1,7.8-3.217h.093A11.353,11.353,0,0,1,72.89,27.588,11.723,11.723,0,0,1,70.2,35.125a13.383,13.383,0,0,0-2.97,7.169,1.687,1.687,0,0,1-1.392.919" transform="translate(26.386 4461.802)"/>
      <path id="Path_1491505" data-name="Path 1491505" d="M65.19,49.6H62.962a1.1,1.1,0,0,1-1.114-.919,1.1,1.1,0,0,1-1.114.919H58.321a3.385,3.385,0,0,1-2.413-1.011,3.318,3.318,0,0,1-1.021-2.39,3.518,3.518,0,0,1,1.856-3.033,3.076,3.076,0,0,1,1.578-.368H65.1a5.461,5.461,0,0,1,1.67.368,3.268,3.268,0,0,1,1.3,1.195,2.923,2.923,0,0,1,.463,1.746A3.353,3.353,0,0,1,65.19,49.6m-6.869-4.5a.7.7,0,0,0-.464.092,1.13,1.13,0,0,0-.65,1.011.833.833,0,0,0,.371.735,1.15,1.15,0,0,0,.743.368h2.228a1.1,1.1,0,0,1,1.114.919,1.1,1.1,0,0,1,1.114-.919H65a1.066,1.066,0,0,0,1.113-1.1,1.3,1.3,0,0,0-.185-.551.925.925,0,0,0-.464-.368,1.188,1.188,0,0,0-.557-.092Z" transform="translate(26.01 4459.642)"/>
      <path id="Path_1491506" data-name="Path 1491506" d="M63.073,54.5a1.1,1.1,0,0,1-1.114-.919,1.1,1.1,0,0,1-1.114.919,3.47,3.47,0,0,1-3.435-3.4,3.318,3.318,0,0,1,1.022-2.39A3.384,3.384,0,0,1,60.846,47.7h2.228a3.47,3.47,0,0,1,3.435,3.4,3.321,3.321,0,0,1-1.021,2.39A3.387,3.387,0,0,1,63.073,54.5M60.846,50a.847.847,0,0,0-.743.368,1.131,1.131,0,0,0-.371.735,1.067,1.067,0,0,0,1.114,1.1,1.1,1.1,0,0,1,1.114.919,1.1,1.1,0,0,1,1.114-.919.847.847,0,0,0,.743-.368,1.131,1.131,0,0,0,.371-.735A1.067,1.067,0,0,0,63.073,50Z" transform="translate(25.806 4459.245)"/>
      <path id="Path_1491507" data-name="Path 1491507" d="M31.148,53.578a1.223,1.223,0,0,1-1.207-1.195V37.495a1.207,1.207,0,0,1,2.413,0V52.476a1.285,1.285,0,0,1-1.207,1.1" transform="translate(28.029 4460.167)"/>
      <path id="Path_1491508" data-name="Path 1491508" d="M24.786,37.278a1.223,1.223,0,0,1-1.207-1.195V21.195a1.207,1.207,0,0,1,2.413,0V36.176a1.146,1.146,0,0,1-1.207,1.1" transform="translate(28.544 4461.487)"/>
      <path id="Path_1491509" data-name="Path 1491509" d="M36.077,51.766a1.223,1.223,0,0,1-1.207-1.195V18.4a1.223,1.223,0,0,1,1.207-1.195H46.566a2.423,2.423,0,0,0,2.042-1.195H24.475a2.287,2.287,0,0,0-2.321,2.3V32.1a2.287,2.287,0,0,0,2.321,2.3,1.223,1.223,0,0,1,1.207,1.195V50.571a1.207,1.207,0,0,1-2.413,0V36.693a4.619,4.619,0,0,1-3.527-4.412V18.5a4.574,4.574,0,0,1,4.641-4.6H49.908a1.223,1.223,0,0,1,1.207,1.195,4.574,4.574,0,0,1-4.641,4.6H37.191V50.755c.093.46-.464,1.011-1.114,1.011" transform="translate(28.855 4461.98)"/>
      <path id="Path_1491510" data-name="Path 1491510" d="M30.739,11.58a5.854,5.854,0,0,1-5.847-5.79,5.848,5.848,0,0,1,11.7,0,5.854,5.854,0,0,1-5.848,5.79m0-9.191a3.493,3.493,0,1,0,3.527,3.492A3.569,3.569,0,0,0,30.739,2.39" transform="translate(28.438 4463.105)"/>
      <path id="Path_1491511" data-name="Path 1491511" d="M68.736,9.32a1.734,1.734,0,0,1-.65-.184,11.282,11.282,0,0,0-12.345,0,1.092,1.092,0,0,1-1.578-.368,1.07,1.07,0,0,1,.371-1.562A14.28,14.28,0,0,1,61.959,5a13.484,13.484,0,0,1,7.426,2.206,1.087,1.087,0,0,1,.371,1.562,1.286,1.286,0,0,1-1.021.551" transform="translate(26.084 4462.701)"/>
      <path id="Path_1491512" data-name="Path 1491512" d="M58.22,13.609a1.117,1.117,0,0,1-.557-2.114A9.1,9.1,0,0,1,62.211,10.3a8.857,8.857,0,0,1,4.548,1.195,1.172,1.172,0,0,1,.464,1.562,1.2,1.2,0,0,1-1.577.46,6.647,6.647,0,0,0-3.435-.919,6.327,6.327,0,0,0-3.342.919,1.829,1.829,0,0,1-.65.092" transform="translate(25.833 4462.272)"/>
    </g>
  </g>
</svg>
