<svg xmlns="http://www.w3.org/2000/svg" xmlns:xlink="http://www.w3.org/1999/xlink" width="98" height="97.998" viewBox="0 0 98 97.998">
  <defs>
    <linearGradient id="linear-gradient" x1="0.5" x2="0.5" y2="1.267" gradientUnits="objectBoundingBox">
      <stop offset="0" stop-color="#ff9f8a"/>
      <stop offset="1" stop-color="#c946b0"/>
    </linearGradient>
    <clipPath id="clip-path">
      <rect id="Rectangle_426915" data-name="Rectangle 426915" width="36.541" height="55.514" transform="translate(0 0)" fill="none"/>
    </clipPath>
  </defs>
  <g id="Group_1271694" data-name="Group 1271694" transform="translate(-802.781 -1967)">
    <g id="Group_1204180" data-name="Group 1204180" transform="translate(-1 -5.016)">
      <g id="Group_1204143" data-name="Group 1204143" transform="translate(-67.331 1694.852)">
        <g id="Group_1188789" data-name="Group 1188789" transform="translate(871.113 277.164)">
          <path id="Path_1243039" data-name="Path 1243039" d="M41.05,0h0a41.05,41.05,0,0,1,0,82.1h0a41.05,41.05,0,0,1,0-82.1Z" transform="translate(7.951 7.949)" fill="url(#linear-gradient)"/>
          <rect id="Rectangle_400907" data-name="Rectangle 400907" width="88.438" height="88.437" rx="44.218" transform="translate(4.782 4.781)" fill="none"/>
          <g id="Group_1098742" data-name="Group 1098742" transform="translate(0)">
            <g id="Rectangle_400898" data-name="Rectangle 400898" transform="translate(0)" fill="none" stroke="#fff" stroke-width="2" opacity="0.859">
              <rect width="98" height="97.999" rx="48.999" stroke="none"/>
              <rect x="1" y="1" width="96" height="95.999" rx="47.999" fill="none"/>
            </g>
            <g id="Rectangle_400907-2" data-name="Rectangle 400907" transform="translate(0)" fill="none" stroke="#0f1f33" stroke-linecap="round" stroke-width="2">
              <rect width="98" height="97.999" rx="48.999" stroke="none"/>
              <rect x="1" y="1" width="96" height="95.999" rx="47.999" fill="none"/>
            </g>
          </g>
        </g>
      </g>
    </g>
    <g id="Group_1272375" data-name="Group 1272375" transform="translate(833.511 1988.242)">
      <g id="Group_1272375-2" data-name="Group 1272375" clip-path="url(#clip-path)">
        <path id="Path_1491383" data-name="Path 1491383" d="M30.583,1.312H5.955A4.85,4.85,0,0,0,1.211,6.258v43.1A4.85,4.85,0,0,0,5.955,54.3H30.583a4.849,4.849,0,0,0,4.744-4.946V6.157a4.761,4.761,0,0,0-4.744-4.845" fill="#2a4356"/>
        <path id="Path_1491384" data-name="Path 1491384" d="M30.987,23.215a1.956,1.956,0,1,1-1.413-.6,2.267,2.267,0,0,1,1.413.6" fill="#ffb733"/>
        <path id="Path_1491385" data-name="Path 1491385" d="M30.987,30.785a1.953,1.953,0,1,1-1.413-.606,2.268,2.268,0,0,1,1.413.606" fill="#ffb733"/>
        <path id="Path_1491386" data-name="Path 1491386" d="M30.987,38.355a1.956,1.956,0,1,1-1.413-.6,2.267,2.267,0,0,1,1.413.6" fill="#ffb733"/>
        <path id="Path_1491387" data-name="Path 1491387" d="M29.675,45.42a1.87,1.87,0,1,1,.1,3.735h-7.57a1.929,1.929,0,0,1-1.413-3.23,2,2,0,0,1,1.312-.606h7.57Z" fill="#ffb733"/>
        <path id="Path_1491388" data-name="Path 1491388" d="M23.417,38.355A1.957,1.957,0,1,1,22,37.75a2.27,2.27,0,0,1,1.414.6" fill="#ffb733"/>
        <path id="Path_1491389" data-name="Path 1491389" d="M23.417,30.785A1.955,1.955,0,1,1,22,30.179a2.271,2.271,0,0,1,1.414.606" fill="#ffb733"/>
        <path id="Path_1491390" data-name="Path 1491390" d="M23.417,23.215A1.957,1.957,0,1,1,22,22.61a2.27,2.27,0,0,1,1.414.6" fill="#ffb733"/>
        <path id="Path_1491391" data-name="Path 1491391" d="M15.847,23.215a1.956,1.956,0,1,1-1.413-.6,2.267,2.267,0,0,1,1.413.6" fill="#ffb733"/>
        <path id="Path_1491392" data-name="Path 1491392" d="M15.847,30.785a1.953,1.953,0,1,1-1.413-.606,2.268,2.268,0,0,1,1.413.606" fill="#ffb733"/>
        <path id="Path_1491393" data-name="Path 1491393" d="M15.847,38.355a1.956,1.956,0,1,1-1.413-.6,2.267,2.267,0,0,1,1.413.6" fill="#ffb733"/>
        <path id="Path_1491394" data-name="Path 1491394" d="M8.276,38.355a1.957,1.957,0,0,1,0,2.624,1.929,1.929,0,0,1-2.725-2.725,1.917,1.917,0,0,1,1.312-.5,2.264,2.264,0,0,1,1.413.6" fill="#ffb733"/>
        <path id="Path_1491395" data-name="Path 1491395" d="M8.276,46.026a1.957,1.957,0,0,1,0,2.624,1.929,1.929,0,0,1-2.725-2.725,2,2,0,0,1,1.312-.606,1.927,1.927,0,0,1,1.413.707" fill="#ffb733"/>
        <path id="Path_1491396" data-name="Path 1491396" d="M15.847,46.026a1.823,1.823,0,1,1-2.725-.1,2,2,0,0,1,1.312-.606,1.929,1.929,0,0,1,1.413.707" fill="#ffb733"/>
        <rect id="Rectangle_426914" data-name="Rectangle 426914" width="26.546" height="8.882" transform="translate(5.046 6.359)" fill="#f2deb9"/>
        <path id="Path_1491397" data-name="Path 1491397" d="M8.276,23.215a1.958,1.958,0,0,1,0,2.625,1.929,1.929,0,0,1-2.725-2.726,1.917,1.917,0,0,1,1.312-.5,2.264,2.264,0,0,1,1.413.6" fill="#ffb733"/>
        <path id="Path_1491398" data-name="Path 1491398" d="M8.276,30.785a1.957,1.957,0,0,1,0,2.624,1.929,1.929,0,0,1-2.725-2.725,1.917,1.917,0,0,1,1.312-.5,2.265,2.265,0,0,1,1.413.606" fill="#ffb733"/>
        <path id="Path_1491399" data-name="Path 1491399" d="M6.964,27.757a3.1,3.1,0,1,1,2.221-.908,3.145,3.145,0,0,1-2.221.908m0-3.734c-.2,0-.4.1-.4.2a.524.524,0,0,0-.2.4.651.651,0,0,0,.605.606c.2,0,.4-.1.4-.2a.522.522,0,0,0,.2-.4c0-.2-.1-.4-.2-.4a.525.525,0,0,0-.4-.2"/>
        <path id="Path_1491400" data-name="Path 1491400" d="M14.534,27.757a3.1,3.1,0,1,1,2.221-.908,3.145,3.145,0,0,1-2.221.908m0-3.734c-.2,0-.4.1-.4.2a.524.524,0,0,0-.2.4.651.651,0,0,0,.605.606c.2,0,.4-.1.4-.2a.523.523,0,0,0,.2-.4c0-.2-.1-.4-.2-.4a.525.525,0,0,0-.4-.2"/>
        <path id="Path_1491401" data-name="Path 1491401" d="M22.1,27.757a3.1,3.1,0,1,1,2.221-.908,3.145,3.145,0,0,1-2.221.908m0-3.734c-.2,0-.4.1-.4.2a.764.764,0,0,0-.2.4.651.651,0,0,0,.6.606c.2,0,.4-.1.4-.2a.764.764,0,0,0,.2-.4.712.712,0,0,0-.6-.6"/>
        <path id="Path_1491402" data-name="Path 1491402" d="M29.675,27.757a3.1,3.1,0,1,1,2.22-.908,3.145,3.145,0,0,1-2.22.908m0-3.734c-.2,0-.4.1-.4.2a.767.767,0,0,0-.2.4.652.652,0,0,0,.606.606c.2,0,.4-.1.4-.2a.766.766,0,0,0,.2-.4.715.715,0,0,0-.605-.6"/>
        <path id="Path_1491403" data-name="Path 1491403" d="M6.964,35.327a3.1,3.1,0,1,1,2.221-.908,3.145,3.145,0,0,1-2.221.908m0-3.735a.525.525,0,0,0-.4.2.524.524,0,0,0-.2.4.65.65,0,0,0,.605.6.527.527,0,0,0,.4-.2.524.524,0,0,0,.2-.4c0-.2-.1-.4-.2-.4a.4.4,0,0,0-.4-.2"/>
        <path id="Path_1491404" data-name="Path 1491404" d="M14.534,35.327a3.1,3.1,0,1,1,2.221-.908,3.145,3.145,0,0,1-2.221.908m0-3.735a.715.715,0,0,0-.605.606.65.65,0,0,0,.605.6.712.712,0,0,0,.606-.6c0-.2-.1-.4-.2-.4a.4.4,0,0,0-.4-.2"/>
        <path id="Path_1491405" data-name="Path 1491405" d="M22.1,35.327a3.1,3.1,0,1,1,2.221-.908,3.145,3.145,0,0,1-2.221.908m0-3.735a.525.525,0,0,0-.4.2.764.764,0,0,0-.2.4.65.65,0,0,0,.6.6.527.527,0,0,0,.4-.2.507.507,0,0,0,0-.808.4.4,0,0,0-.4-.2"/>
        <path id="Path_1491406" data-name="Path 1491406" d="M29.675,35.327a3.1,3.1,0,1,1,2.22-.908,3.145,3.145,0,0,1-2.22.908m0-3.735a.525.525,0,0,0-.4.2.766.766,0,0,0-.2.4.651.651,0,0,0,.606.6.523.523,0,0,0,.4-.2.5.5,0,0,0,0-.808.4.4,0,0,0-.4-.2"/>
        <path id="Path_1491407" data-name="Path 1491407" d="M6.964,42.9a3.1,3.1,0,1,1,2.221-.908,3.144,3.144,0,0,1-2.221.908m0-3.734a.525.525,0,0,0-.4.2.524.524,0,0,0-.2.4.651.651,0,0,0,.605.6.525.525,0,0,0,.4-.2.522.522,0,0,0,.2-.4c0-.2-.1-.4-.2-.4a.4.4,0,0,0-.4-.2"/>
        <path id="Path_1491408" data-name="Path 1491408" d="M14.534,42.9a3.1,3.1,0,1,1,2.221-.908,3.144,3.144,0,0,1-2.221.908m0-3.734a.715.715,0,0,0-.605.606.651.651,0,0,0,.605.6.715.715,0,0,0,.606-.6c0-.2-.1-.4-.2-.4a.4.4,0,0,0-.4-.2"/>
        <path id="Path_1491409" data-name="Path 1491409" d="M22.1,42.9a3.1,3.1,0,1,1,2.221-.908A3.144,3.144,0,0,1,22.1,42.9m0-3.734a.525.525,0,0,0-.4.2.764.764,0,0,0-.2.4.651.651,0,0,0,.6.6.525.525,0,0,0,.4-.2.506.506,0,0,0,0-.807.4.4,0,0,0-.4-.2"/>
        <path id="Path_1491410" data-name="Path 1491410" d="M29.675,42.9a3.1,3.1,0,1,1,2.22-.908,3.144,3.144,0,0,1-2.22.908m0-3.734a.525.525,0,0,0-.4.2.766.766,0,0,0-.2.4.652.652,0,0,0,.606.6.521.521,0,0,0,.4-.2.5.5,0,0,0,0-.807.4.4,0,0,0-.4-.2"/>
        <path id="Path_1491411" data-name="Path 1491411" d="M6.964,50.467a3.1,3.1,0,1,1,2.221-.908,3.145,3.145,0,0,1-2.221.908m0-3.734a.525.525,0,0,0-.4.2.522.522,0,0,0-.2.4.651.651,0,0,0,.605.606.525.525,0,0,0,.4-.2.524.524,0,0,0,.2-.4c0-.2-.1-.4-.2-.4a.4.4,0,0,0-.4-.2"/>
        <path id="Path_1491412" data-name="Path 1491412" d="M14.534,50.467a3.1,3.1,0,1,1,2.221-.908,3.145,3.145,0,0,1-2.221.908m0-3.734a.715.715,0,0,0-.605.6.651.651,0,0,0,.605.606.714.714,0,0,0,.606-.606c0-.2-.1-.4-.2-.4a.4.4,0,0,0-.4-.2"/>
        <path id="Path_1491413" data-name="Path 1491413" d="M29.674,50.467H22.1a3.129,3.129,0,1,1,0-6.257h7.57a3.129,3.129,0,1,1,0,6.257M22.1,46.733a.525.525,0,0,0-.4.2.761.761,0,0,0-.2.4.651.651,0,0,0,.6.606h7.57a.525.525,0,0,0,.4-.2.766.766,0,0,0,.2-.4.652.652,0,0,0-.606-.6Z"/>
        <path id="Path_1491414" data-name="Path 1491414" d="M30.583,55.514H5.955A6.076,6.076,0,0,1,0,49.356V6.157A6.076,6.076,0,0,1,5.955,0H30.583a6.075,6.075,0,0,1,5.955,6.157v43.1a6.036,6.036,0,0,1-5.955,6.258M5.955,2.523A3.515,3.515,0,0,0,2.523,6.157v43.1a3.515,3.515,0,0,0,3.432,3.633H30.583a3.515,3.515,0,0,0,3.432-3.633V6.157a3.515,3.515,0,0,0-3.432-3.634Z"/>
        <path id="Path_1491415" data-name="Path 1491415" d="M31.592,16.452H5.046A1.336,1.336,0,0,1,3.734,15.14V6.258A1.336,1.336,0,0,1,5.046,4.946H31.592A1.336,1.336,0,0,1,32.9,6.258V15.14a1.5,1.5,0,0,1-1.313,1.312M6.359,13.929H30.382V7.57H6.359Z"/>
        <path id="Path_1491416" data-name="Path 1491416" d="M26.545,12.617a1.335,1.335,0,0,1-1.312-1.312V9.993a1.312,1.312,0,1,1,2.624,0v1.312a1.5,1.5,0,0,1-1.312,1.312"/>
        <path id="Path_1491417" data-name="Path 1491417" d="M22.71,12.617A1.335,1.335,0,0,1,21.4,11.305V9.993a1.312,1.312,0,1,1,2.624,0v1.312a1.335,1.335,0,0,1-1.312,1.312"/>
        <path id="Path_1491418" data-name="Path 1491418" d="M18.976,12.617a1.335,1.335,0,0,1-1.313-1.312V9.993a1.312,1.312,0,1,1,2.624,0v1.312a1.5,1.5,0,0,1-1.311,1.312"/>
        <path id="Path_1491419" data-name="Path 1491419" d="M18.976,20.187H16.452a1.312,1.312,0,0,1,0-2.624h2.524a1.335,1.335,0,0,1,1.311,1.312,1.5,1.5,0,0,1-1.311,1.312"/>
        <path id="Path_1491420" data-name="Path 1491420" d="M25.233,20.187H22.71a1.312,1.312,0,0,1,0-2.624h2.523a1.312,1.312,0,1,1,0,2.624"/>
        <path id="Path_1491421" data-name="Path 1491421" d="M31.592,20.187H29.069a1.312,1.312,0,0,1,0-2.624h2.523A1.335,1.335,0,0,1,32.9,18.875a1.5,1.5,0,0,1-1.312,1.312"/>
      </g>
    </g>
  </g>
</svg>
