<svg xmlns="http://www.w3.org/2000/svg" xmlns:xlink="http://www.w3.org/1999/xlink" width="98" height="97.999" viewBox="0 0 98 97.999">
  <defs>
    <linearGradient id="linear-gradient" x1="0.5" x2="0.5" y2="1.267" gradientUnits="objectBoundingBox">
      <stop offset="0" stop-color="#ff9f8a"/>
      <stop offset="1" stop-color="#c946b0"/>
    </linearGradient>
  </defs>
  <g id="Group_1271795" data-name="Group 1271795" transform="translate(-802.781 -1967)">
    <g id="Group_1204180" data-name="Group 1204180" transform="translate(-1 -5.016)">
      <g id="Group_1204143" data-name="Group 1204143" transform="translate(-67.331 1694.852)">
        <g id="Group_1188789" data-name="Group 1188789" transform="translate(871.113 277.164)">
          <path id="Path_1243039" data-name="Path 1243039" d="M41.05,0h0a41.05,41.05,0,0,1,0,82.1h0a41.05,41.05,0,0,1,0-82.1Z" transform="translate(7.951 7.949)" fill="url(#linear-gradient)"/>
          <rect id="Rectangle_400907" data-name="Rectangle 400907" width="88.438" height="88.437" rx="44.218" transform="translate(4.782 4.781)" fill="none"/>
          <g id="Group_1098742" data-name="Group 1098742" transform="translate(0)">
            <g id="Rectangle_400898" data-name="Rectangle 400898" transform="translate(0)" fill="none" stroke="#fff" stroke-width="2" opacity="0.859">
              <rect width="98" height="97.999" rx="48.999" stroke="none"/>
              <rect x="1" y="1" width="96" height="95.999" rx="47.999" fill="none"/>
            </g>
            <g id="Rectangle_400907-2" data-name="Rectangle 400907" transform="translate(0)" fill="none" stroke="#0f1f33" stroke-linecap="round" stroke-width="2">
              <rect width="98" height="97.999" rx="48.999" stroke="none"/>
              <rect x="1" y="1" width="96" height="95.999" rx="47.999" fill="none"/>
            </g>
          </g>
        </g>
      </g>
    </g>
    <g id="Group_1272404" data-name="Group 1272404" transform="translate(7419.2 6854.316)">
      <path id="Path_1491555" data-name="Path 1491555" d="M4.747,51.8a3.5,3.5,0,1,1,0,7,3.436,3.436,0,0,1-3.536-3.5,3.561,3.561,0,0,1,3.536-3.5" transform="translate(-6593.878 -4879)" fill="#2f4a5f"/>
      <path id="Path_1491556" data-name="Path 1491556" d="M26.359,51.8a3.5,3.5,0,1,1-3.535,3.5,3.561,3.561,0,0,1,3.535-3.5" transform="translate(-6593.878 -4879)" fill="#2f4a5f"/>
      <path id="Path_1491557" data-name="Path 1491557" d="M48.174,51.8a3.5,3.5,0,1,1-3.535,3.5,3.63,3.63,0,0,1,3.535-3.5" transform="translate(-6593.878 -4879)" fill="#2f4a5f"/>
      <path id="Path_1491558" data-name="Path 1491558" d="M26.359,11.3A14.7,14.7,0,1,0,41.205,26,14.8,14.8,0,0,0,26.359,11.3" transform="translate(-6593.878 -4879)" fill="#eff3f6"/>
      <path id="Path_1491559" data-name="Path 1491559" d="M26.561,31.3a9.7,9.7,0,0,1,9.089,6.1,14.906,14.906,0,0,1-9.291,3.2,14.705,14.705,0,0,1-8.988-3,9.809,9.809,0,0,1,9.19-6.3" transform="translate(-6593.878 -4879)" fill="#86dcfd"/>
      <path id="Path_1491560" data-name="Path 1491560" d="M26.359,21.7a4.8,4.8,0,1,1-4.848,4.8,4.7,4.7,0,0,1,4.848-4.8" transform="translate(-6593.878 -4879)" fill="#ffd8a8"/>
      <path id="Path_1491561" data-name="Path 1491561" d="M26.359,32.6a6.1,6.1,0,1,1,6.161-6.1,6.155,6.155,0,0,1-6.161,6.1m0-9.7A3.6,3.6,0,1,0,30,26.5a3.6,3.6,0,0,0-3.636-3.6" transform="translate(-6593.878 -4879)"/>
      <path id="Path_1491562" data-name="Path 1491562" d="M26.359,60a4.7,4.7,0,1,1,4.747-4.7A4.718,4.718,0,0,1,26.359,60m0-6.9a2.2,2.2,0,1,0,2.222,2.2,2.231,2.231,0,0,0-2.222-2.2" transform="translate(-6593.878 -4879)"/>
      <path id="Path_1491563" data-name="Path 1491563" d="M4.747,60a4.7,4.7,0,1,1,0-9.4,4.7,4.7,0,1,1,0,9.4m0-6.9a2.2,2.2,0,1,0,2.221,2.2,2.23,2.23,0,0,0-2.221-2.2" transform="translate(-6593.878 -4879)"/>
      <path id="Path_1491564" data-name="Path 1491564" d="M48.174,60a4.7,4.7,0,1,1,4.746-4.7A4.718,4.718,0,0,1,48.174,60m0-6.9A2.2,2.2,0,1,0,50.4,55.3a2.231,2.231,0,0,0-2.222-2.2" transform="translate(-6593.878 -4879)"/>
      <path id="Path_1491565" data-name="Path 1491565" d="M17.371,38.9a1.351,1.351,0,0,1-.808-.3A15.765,15.765,0,0,1,10.2,25.9,16.159,16.159,0,1,1,36.458,38.4a1.411,1.411,0,0,1-1.817-.2,1.378,1.378,0,0,1,.2-1.8,13.428,13.428,0,0,0-8.484-24A13.511,13.511,0,0,0,12.725,25.9a13.309,13.309,0,0,0,5.353,10.7,1.257,1.257,0,0,1,.2,1.8.969.969,0,0,1-.909.5" transform="translate(-6593.878 -4879)"/>
      <path id="Path_1491566" data-name="Path 1491566" d="M26.359,41.9a15.85,15.85,0,0,1-9.8-3.3,1.229,1.229,0,0,1-.4-1.4,11.127,11.127,0,0,1,20.7-.3,1.228,1.228,0,0,1-.4,1.4,15.8,15.8,0,0,1-10.1,3.6m-7.473-4.7a13.9,13.9,0,0,0,7.473,2.2A12.938,12.938,0,0,0,34.034,37a8.65,8.65,0,0,0-7.473-4.5,8.787,8.787,0,0,0-7.675,4.7" transform="translate(-6593.878 -4879)"/>
      <path id="Path_1491567" data-name="Path 1491567" d="M26.359,53.1a1.33,1.33,0,0,1-1.313-1.3V40.7a1.313,1.313,0,0,1,2.626,0V51.8a1.4,1.4,0,0,1-1.313,1.3" transform="translate(-6593.878 -4879)"/>
      <path id="Path_1491568" data-name="Path 1491568" d="M48.174,53.1a1.331,1.331,0,0,1-1.314-1.3V47.5H5.959v4.3a1.313,1.313,0,0,1-2.626,0V46.2a1.33,1.33,0,0,1,1.313-1.3H48.072a1.331,1.331,0,0,1,1.314,1.3v5.6a1.186,1.186,0,0,1-1.212,1.3" transform="translate(-6593.878 -4879)"/>
    </g>
  </g>
</svg>
