<svg xmlns="http://www.w3.org/2000/svg" xmlns:xlink="http://www.w3.org/1999/xlink" width="98" height="97.998" viewBox="0 0 98 97.998">
  <defs>
    <linearGradient id="linear-gradient" x1="0.5" x2="0.5" y2="1.267" gradientUnits="objectBoundingBox">
      <stop offset="0" stop-color="#ff9f8a"/>
      <stop offset="1" stop-color="#c946b0"/>
    </linearGradient>
  </defs>
  <g id="Group_1271693" data-name="Group 1271693" transform="translate(-802.781 -1967)">
    <g id="Group_1204180" data-name="Group 1204180" transform="translate(-1 -5.016)">
      <g id="Group_1204143" data-name="Group 1204143" transform="translate(-67.331 1694.852)">
        <g id="Group_1188789" data-name="Group 1188789" transform="translate(871.113 277.164)">
          <path id="Path_1243039" data-name="Path 1243039" d="M41.05,0h0a41.05,41.05,0,0,1,0,82.1h0a41.05,41.05,0,0,1,0-82.1Z" transform="translate(7.951 7.949)" fill="url(#linear-gradient)"/>
          <rect id="Rectangle_400907" data-name="Rectangle 400907" width="88.438" height="88.437" rx="44.218" transform="translate(4.782 4.781)" fill="none"/>
          <g id="Group_1098742" data-name="Group 1098742" transform="translate(0)">
            <g id="Rectangle_400898" data-name="Rectangle 400898" transform="translate(0)" fill="none" stroke="#fff" stroke-width="2" opacity="0.859">
              <rect width="98" height="97.999" rx="48.999" stroke="none"/>
              <rect x="1" y="1" width="96" height="95.999" rx="47.999" fill="none"/>
            </g>
            <g id="Rectangle_400907-2" data-name="Rectangle 400907" transform="translate(0)" fill="none" stroke="#0f1f33" stroke-linecap="round" stroke-width="2">
              <rect width="98" height="97.999" rx="48.999" stroke="none"/>
              <rect x="1" y="1" width="96" height="95.999" rx="47.999" fill="none"/>
            </g>
          </g>
        </g>
      </g>
    </g>
    <g id="Group_1272374" data-name="Group 1272374" transform="translate(10444.861 10441.598)">
      <path id="Path_1491331" data-name="Path 1491331" d="M166.134,45.51h-.2a3.829,3.829,0,0,1-3.831-3.831,3.832,3.832,0,0,1-7.663,0,3.831,3.831,0,0,1-7.662,0,3.831,3.831,0,0,1-7.663,0,3.831,3.831,0,0,1-7.663,0,3.831,3.831,0,0,1-7.662,0,3.829,3.829,0,0,1-3.831,3.831h-.2a3.605,3.605,0,0,1-1.108-.2V73.236h47.991V45.409c.3.1-.2.1-.505.1" transform="translate(-9736.378 -8475)" fill="#d7deed"/>
      <path id="Path_1491332" data-name="Path 1491332" d="M143.247,68.3v5.041H131.955V53.172h11.292Z" transform="translate(-9736.378 -8475)" fill="#a28671"/>
      <rect id="Rectangle_426913" data-name="Rectangle 426913" width="23.996" height="5.041" transform="translate(-9593.131 -8406.704)" fill="#afb9d2"/>
      <path id="Path_1491333" data-name="Path 1491333" d="M162.2,34.218h-45.37V41.78a3.768,3.768,0,0,0,3.63,3.73h.2a3.83,3.83,0,0,0,3.832-3.831,3.831,3.831,0,1,0,7.662,0,3.831,3.831,0,0,0,7.662,0,3.831,3.831,0,0,0,7.663,0,3.831,3.831,0,0,0,7.662,0,3.831,3.831,0,0,0,7.662,0,3.83,3.83,0,0,0,3.832,3.831h.2a3.769,3.769,0,0,0,3.63-3.73V34.218Z" transform="translate(-9736.378 -8475)" fill="#ff7979"/>
      <path id="Path_1491334" data-name="Path 1491334" d="M131.955,41.78a3.831,3.831,0,1,1-7.662,0V34.218h7.561V41.78Z" transform="translate(-9736.378 -8475)" fill="#d65b5b"/>
      <path id="Path_1491335" data-name="Path 1491335" d="M147.079,41.78a3.831,3.831,0,0,1-7.663,0V34.218h7.561V41.78Z" transform="translate(-9736.378 -8475)" fill="#d65b5b"/>
      <path id="Path_1491336" data-name="Path 1491336" d="M162.2,41.78a3.831,3.831,0,1,1-7.662,0V34.218H162.1V41.78Z" transform="translate(-9736.378 -8475)" fill="#d65b5b"/>
      <path id="Path_1491337" data-name="Path 1491337" d="M133.972,25.447a5.646,5.646,0,0,0,3.529,1.311,5.434,5.434,0,0,0,3.529-1.311h18.45l10.082,8.872H116.631l10.082-8.872Z" transform="translate(-9736.378 -8475)" fill="#57606f"/>
      <path id="Path_1491338" data-name="Path 1491338" d="M137.6,15.365a5.7,5.7,0,0,0,0,11.393,5.429,5.429,0,0,0,3.528-1.311,5.547,5.547,0,0,0,2.117-4.436,5.636,5.636,0,0,0-5.645-5.646" transform="translate(-9736.378 -8475)" fill="#fcd884"/>
      <path id="Path_1491339" data-name="Path 1491339" d="M138.509,22.22c0-.1-.1-.3-.2-.3a.773.773,0,0,0-.505-.2v1.008c.4-.1.706-.2.706-.5M137.4,19.195c-.4,0-.6.2-.6.5a.371.371,0,0,0,.1.3c.1.1.2.1.4.2V19.195Zm2.521,2.924a1.913,1.913,0,0,1-.2.807,2.244,2.244,0,0,1-.4.5l-.6.3a1.716,1.716,0,0,1-.706.1v.907H137.4V23.732a4.239,4.239,0,0,1-1.109-.2,3.142,3.142,0,0,1-1.009-.5l.606-1.21a.348.348,0,0,0,.2.1c.1,0,.2.1.4.2.1.1.3.1.5.2a1.264,1.264,0,0,0,.605.1v-.807l-.4-.1a5.082,5.082,0,0,1-.706-.3,2.22,2.22,0,0,1-.5-.3c-.1-.1-.2-.3-.3-.4a1.277,1.277,0,0,1-.1-.605,2.211,2.211,0,0,1,.1-.806,1.847,1.847,0,0,1,1.008-1.009c.2-.1.5-.1.706-.2v-.807h.605v.807a2.977,2.977,0,0,1,1.008.2,5.909,5.909,0,0,1,.806.4l-.6,1.11-.1-.1a1.474,1.474,0,0,1-.3-.2c-.1-.1-.3-.1-.4-.2a.9.9,0,0,0-.5-.1V20.1l.3.1a2.354,2.354,0,0,0,.807.2l.6.3a1.007,1.007,0,0,1,.4.5,3.1,3.1,0,0,0-.1.907" transform="translate(-9736.378 -8475)"/>
      <path id="Path_1491340" data-name="Path 1491340" d="M116.832,35.529a1.094,1.094,0,0,1-.907-.4,1.283,1.283,0,0,1,.1-1.815l10.082-8.873a1.151,1.151,0,0,1,.807-.3h7.158a1.311,1.311,0,1,1,0,2.622h-6.653l-9.68,8.468a8.947,8.947,0,0,1-.907.3" transform="translate(-9736.378 -8475)"/>
      <path id="Path_1491341" data-name="Path 1491341" d="M169.663,35.529a1.144,1.144,0,0,1-.807-.3l-9.678-8.569H141.13a1.311,1.311,0,1,1,0-2.622h18.451a1.148,1.148,0,0,1,.807.3L170.47,33.21a1.278,1.278,0,0,1,.1,1.815,1.058,1.058,0,0,1-.907.5" transform="translate(-9736.378 -8475)"/>
      <path id="Path_1491342" data-name="Path 1491342" d="M137.6,27.968a6.675,6.675,0,0,1-4.335-1.513,7.043,7.043,0,0,1-2.622-5.343,6.957,6.957,0,0,1,13.914,0,6.59,6.59,0,0,1-2.622,5.343,7.528,7.528,0,0,1-4.335,1.513m0-11.393a4.44,4.44,0,0,0-2.823,7.863,4.52,4.52,0,0,0,2.723,1.009,3.8,3.8,0,0,0,2.721-1.009,4.451,4.451,0,0,0,1.613-3.427,4.182,4.182,0,0,0-4.234-4.436" transform="translate(-9736.378 -8475)"/>
      <path id="Path_1491343" data-name="Path 1491343" d="M124.394,69.5h-5.041a1.31,1.31,0,1,1,0-2.621h5.041a1.335,1.335,0,0,1,1.311,1.31,1.5,1.5,0,0,1-1.311,1.311" transform="translate(-9736.378 -8475)"/>
      <path id="Path_1491344" data-name="Path 1491344" d="M167.243,69.5h-24a1.31,1.31,0,1,1,0-2.621h24a1.335,1.335,0,0,1,1.311,1.31,1.5,1.5,0,0,1-1.311,1.311" transform="translate(-9736.378 -8475)"/>
      <path id="Path_1491345" data-name="Path 1491345" d="M167.243,74.547a1.335,1.335,0,0,1-1.311-1.311V46.82a1.31,1.31,0,0,1,0-2.621h.1a5.723,5.723,0,0,0,.706-.1,1.394,1.394,0,0,1,1.108.2,1.241,1.241,0,0,1,.505,1.008V73.236a1.174,1.174,0,0,1-1.109,1.311" transform="translate(-9736.378 -8475)"/>
      <path id="Path_1491346" data-name="Path 1491346" d="M119.353,74.547a1.335,1.335,0,0,1-1.311-1.311V45.409a1.245,1.245,0,0,1,.5-1.008,1.4,1.4,0,0,1,1.11-.2,5.64,5.64,0,0,0,.706.1h.1a1.334,1.334,0,0,1,1.311,1.311,1.164,1.164,0,0,1-1.21,1.209V73.337a1.3,1.3,0,0,1-1.21,1.21" transform="translate(-9736.378 -8475)"/>
      <path id="Path_1491347" data-name="Path 1491347" d="M120.563,46.821h-.3a5,5,0,0,1-4.738-5.041V34.218a1.334,1.334,0,0,1,1.311-1.31h7.561a1.31,1.31,0,1,1,0,2.621h-6.351V41.78a2.54,2.54,0,0,0,2.419,2.521h.1a2.5,2.5,0,0,0,2.521-2.521,1.335,1.335,0,0,1,1.31-1.311,1.25,1.25,0,0,1,1.21,1.311,4.992,4.992,0,0,1-5.041,5.041" transform="translate(-9736.378 -8475)"/>
      <path id="Path_1491348" data-name="Path 1491348" d="M128.124,46.821a4.992,4.992,0,0,1-5.041-5.041V34.218a1.334,1.334,0,0,1,1.311-1.31h7.561a1.311,1.311,0,1,1,0,2.621H125.6V41.78a2.521,2.521,0,1,0,5.041,0,1.312,1.312,0,0,1,2.623,0,5.144,5.144,0,0,1-5.143,5.041" transform="translate(-9736.378 -8475)"/>
      <path id="Path_1491349" data-name="Path 1491349" d="M135.686,46.821a4.993,4.993,0,0,1-5.041-5.041V34.218a1.334,1.334,0,0,1,1.311-1.31h7.562a1.31,1.31,0,1,1,0,2.621h-6.352V41.78a2.52,2.52,0,1,0,5.04,0,1.336,1.336,0,0,1,1.312-1.311,1.25,1.25,0,0,1,1.209,1.311,4.992,4.992,0,0,1-5.041,5.041" transform="translate(-9736.378 -8475)"/>
      <path id="Path_1491350" data-name="Path 1491350" d="M143.247,46.821a4.993,4.993,0,0,1-5.041-5.041V34.218a1.335,1.335,0,0,1,1.312-1.31h7.561a1.31,1.31,0,1,1,0,2.621h-6.352V41.78a2.521,2.521,0,1,0,5.041,0,1.311,1.311,0,1,1,2.622,0,5.144,5.144,0,0,1-5.143,5.041" transform="translate(-9736.378 -8475)"/>
      <path id="Path_1491351" data-name="Path 1491351" d="M150.81,46.821a4.992,4.992,0,0,1-5.041-5.041V34.218a1.334,1.334,0,0,1,1.311-1.31h7.561a1.31,1.31,0,1,1,0,2.621H148.29V41.78a2.521,2.521,0,1,0,5.041,0,1.334,1.334,0,0,1,1.31-1.311,1.251,1.251,0,0,1,1.21,1.311,4.993,4.993,0,0,1-5.041,5.041" transform="translate(-9736.378 -8475)"/>
      <path id="Path_1491352" data-name="Path 1491352" d="M158.371,46.821a4.992,4.992,0,0,1-5.041-5.041V34.218a1.333,1.333,0,0,1,1.311-1.31H162.2a1.31,1.31,0,1,1,0,2.621h-6.351V41.78a2.521,2.521,0,1,0,5.041,0,1.311,1.311,0,1,1,2.621,0,5.143,5.143,0,0,1-5.142,5.041" transform="translate(-9736.378 -8475)"/>
      <path id="Path_1491353" data-name="Path 1491353" d="M165.933,46.821a4.991,4.991,0,0,1-5.041-5.041V34.218a1.333,1.333,0,0,1,1.31-1.31h7.562a1.333,1.333,0,0,1,1.31,1.31V41.78a5,5,0,0,1-4.738,5.041Zm-2.521-11.292V41.78a2.5,2.5,0,0,0,2.521,2.52h.1a2.616,2.616,0,0,0,2.42-2.52V35.428h-5.041Z" transform="translate(-9736.378 -8475)"/>
      <path id="Path_1491354" data-name="Path 1491354" d="M143.247,74.547a1.335,1.335,0,0,1-1.31-1.311V54.382h-8.873V73.337a1.335,1.335,0,0,1-1.31,1.311,1.231,1.231,0,0,1-1.109-1.311V53.172a1.335,1.335,0,0,1,1.31-1.311h11.394a1.335,1.335,0,0,1,1.31,1.311V73.337a1.509,1.509,0,0,1-1.412,1.21" transform="translate(-9736.378 -8475)"/>
      <path id="Path_1491355" data-name="Path 1491355" d="M139.518,64.464h-3.832a1.31,1.31,0,1,1,0-2.621h2.52V58.012h-2.52a1.311,1.311,0,1,1,0-2.621h3.832a1.334,1.334,0,0,1,1.31,1.31v6.352a1.51,1.51,0,0,1-1.31,1.411" transform="translate(-9736.378 -8475)"/>
      <path id="Path_1491356" data-name="Path 1491356" d="M139.518,69.5a1.336,1.336,0,0,1-1.312-1.311V66.985a1.336,1.336,0,0,1,1.312-1.311,1.25,1.25,0,0,1,1.209,1.311V68.3a1.3,1.3,0,0,1-1.209,1.209" transform="translate(-9736.378 -8475)"/>
      <path id="Path_1491357" data-name="Path 1491357" d="M167.243,69.5a1.233,1.233,0,0,1-.907-.4L155.548,58.415a1.283,1.283,0,1,1,1.814-1.814L168.05,67.287a1.28,1.28,0,0,1,0,1.816.921.921,0,0,1-.807.4" transform="translate(-9736.378 -8475)"/>
      <path id="Path_1491358" data-name="Path 1491358" d="M157.161,64.464a1.231,1.231,0,0,1-.907-.4L149.9,57.709a1.283,1.283,0,0,1,1.816-1.814l6.351,6.351a1.278,1.278,0,0,1,0,1.815,1.232,1.232,0,0,1-.907.4" transform="translate(-9736.378 -8475)"/>
      <path id="Path_1491359" data-name="Path 1491359" d="M172.284,74.547H114.311a1.311,1.311,0,0,1,0-2.622h57.973a1.334,1.334,0,0,1,1.31,1.311,1.494,1.494,0,0,1-1.31,1.311" transform="translate(-9736.378 -8475)"/>
    </g>
  </g>
</svg>
