<svg xmlns="http://www.w3.org/2000/svg" xmlns:xlink="http://www.w3.org/1999/xlink" width="98" height="97.999" viewBox="0 0 98 97.999">
  <defs>
    <linearGradient id="linear-gradient" x1="0.5" x2="0.5" y2="1.267" gradientUnits="objectBoundingBox">
      <stop offset="0" stop-color="#ff9f8a"/>
      <stop offset="1" stop-color="#c946b0"/>
    </linearGradient>
  </defs>
  <g id="Group_1271659" data-name="Group 1271659" transform="translate(-802.781 -1967)">
    <g id="Group_1204180" data-name="Group 1204180" transform="translate(-1 -5.016)">
      <g id="Group_1204143" data-name="Group 1204143" transform="translate(-67.331 1694.852)">
        <g id="Group_1188789" data-name="Group 1188789" transform="translate(871.113 277.164)">
          <path id="Path_1243039" data-name="Path 1243039" d="M41.05,0h0a41.05,41.05,0,0,1,0,82.1h0a41.05,41.05,0,0,1,0-82.1Z" transform="translate(7.951 7.949)" fill="url(#linear-gradient)"/>
          <rect id="Rectangle_400907" data-name="Rectangle 400907" width="88.438" height="88.437" rx="44.218" transform="translate(4.782 4.781)" fill="none"/>
          <g id="Group_1098742" data-name="Group 1098742" transform="translate(0)">
            <g id="Rectangle_400898" data-name="Rectangle 400898" transform="translate(0)" fill="none" stroke="#fff" stroke-width="2" opacity="0.859">
              <rect width="98" height="97.999" rx="48.999" stroke="none"/>
              <rect x="1" y="1" width="96" height="95.999" rx="47.999" fill="none"/>
            </g>
            <g id="Rectangle_400907-2" data-name="Rectangle 400907" transform="translate(0)" fill="none" stroke="#0f1f33" stroke-linecap="round" stroke-width="2">
              <rect width="98" height="97.999" rx="48.999" stroke="none"/>
              <rect x="1" y="1" width="96" height="95.999" rx="47.999" fill="none"/>
            </g>
          </g>
        </g>
      </g>
    </g>
    <g id="Group_1272379" data-name="Group 1272379" transform="translate(9897.29 10458.421)">
      <path id="Path_1491254" data-name="Path 1491254" d="M675.669,22.655v5.7l-7.373-1.9Z" transform="translate(-9736.378 -8475)" fill="#e8a664"/>
      <path id="Path_1491255" data-name="Path 1491255" d="M713.441,26.455l-7.473,1.9v-5.7Z" transform="translate(-9736.378 -8475)" fill="#e8a664"/>
      <path id="Path_1491256" data-name="Path 1491256" d="M713.441,38.455v13.3l-22.622,5.9v-21.2h2.424l3.636,6.3Z" transform="translate(-9736.378 -8475)" fill="#c58e56"/>
      <path id="Path_1491257" data-name="Path 1491257" d="M690.818,36.455v21.2l-22.522-5.9v-13.3l16.563,4.3,3.636-6.3Z" transform="translate(-9736.378 -8475)" fill="#e8a664"/>
      <path id="Path_1491258" data-name="Path 1491258" d="M713.441,26.455l5.959,10.4-5.959,1.6-16.562,4.3-3.636-6.3-2.424-4.1,15.149-4Z" transform="translate(-9736.378 -8475)" fill="#cc9a60"/>
      <path id="Path_1491259" data-name="Path 1491259" d="M690.818,32.354l-2.323,4.1-3.636,6.3-16.563-4.3-5.958-1.6,5.958-10.4,7.373,1.9Z" transform="translate(-9736.378 -8475)" fill="#febe76"/>
      <path id="Path_1491260" data-name="Path 1491260" d="M690.818,12.655l14.947-5.5.2.5v20.7l-15.149,4-15.149-4V7.055Z" transform="translate(-9736.378 -8475)" fill="#d65b5b"/>
      <path id="Path_1491261" data-name="Path 1491261" d="M705.968,7.055l-.2.1-14.947,5.5-15.149-5.6,15.149-5.6Z" transform="translate(-9736.378 -8475)" fill="#ff7979"/>
      <path id="Path_1491262" data-name="Path 1491262" d="M690.818,58.955h-.3l-22.522-6a1.2,1.2,0,0,1-.909-1.2v-13.3a1.313,1.313,0,0,1,2.626,0v12.3l21.613,5.7a1.224,1.224,0,0,1,.909,1.5,1.626,1.626,0,0,1-1.414,1" transform="translate(-9736.378 -8475)"/>
      <path id="Path_1491263" data-name="Path 1491263" d="M690.818,58.955a1.351,1.351,0,0,1-.808-.3,1.227,1.227,0,0,1-.505-1v-25.3a1.313,1.313,0,0,1,2.625,0v23.7l20-5.3v-12.3a1.313,1.313,0,0,1,2.625,0v13.3a1.2,1.2,0,0,1-.909,1.2l-22.521,6Z" transform="translate(-9736.378 -8475)"/>
      <path id="Path_1491264" data-name="Path 1491264" d="M690.819,13.955a.616.616,0,0,1-.4-.1l-15.148-5.6a1.207,1.207,0,0,1-.809-1.2,1.207,1.207,0,0,1,.809-1.2l15.148-5.6a1.418,1.418,0,0,1,.91,0l15.148,5.6a1.294,1.294,0,0,1,0,2.4h-.2l-14.946,5.5c-.2.1-.3.2-.505.2M679.3,7.055l11.514,4.3,11.614-4.3-11.514-4.3Z" transform="translate(-9736.378 -8475)"/>
      <path id="Path_1491265" data-name="Path 1491265" d="M705.968,29.655a1.331,1.331,0,0,1-1.314-1.3V7.655a1.314,1.314,0,0,1,2.627,0v20.7a1.331,1.331,0,0,1-1.313,1.3" transform="translate(-9736.378 -8475)"/>
      <path id="Path_1491266" data-name="Path 1491266" d="M675.669,29.655a1.33,1.33,0,0,1-1.313-1.3V7.055a1.313,1.313,0,0,1,2.626,0v21.3a1.33,1.33,0,0,1-1.313,1.3" transform="translate(-9736.378 -8475)"/>
      <path id="Path_1491267" data-name="Path 1491267" d="M693.242,37.655H688.6a1.3,1.3,0,1,1,0-2.6h4.646a1.33,1.33,0,0,1,1.312,1.3,1.4,1.4,0,0,1-1.312,1.3" transform="translate(-9736.378 -8475)"/>
      <path id="Path_1491268" data-name="Path 1491268" d="M684.859,44.055h-.3l-22.522-6a1.151,1.151,0,0,1-.808-.7,1.4,1.4,0,0,1,.1-1.1l6.06-10.4a1.363,1.363,0,0,1,1.414-.6l22.521,6a1.151,1.151,0,0,1,.808.7,1.364,1.364,0,0,1-.1,1.1l-6.06,10.4a1.4,1.4,0,0,1-1.111.6m-20.6-8,20,5.3,4.747-8.2-20.1-5.3Z" transform="translate(-9736.378 -8475)"/>
      <path id="Path_1491269" data-name="Path 1491269" d="M696.878,44.055a1.27,1.27,0,0,1-1.111-.6l-6.06-10.4a1.364,1.364,0,0,1-.1-1.1,1.129,1.129,0,0,1,.808-.7l22.522-6a1.364,1.364,0,0,1,1.414.6l6.059,10.4a1.356,1.356,0,0,1,.1,1.1,1.128,1.128,0,0,1-.808.7l-22.521,6Zm-4.141-10.9,4.747,8.2,20-5.3-4.747-8.2Z" transform="translate(-9736.378 -8475)"/>
      <path id="Path_1491270" data-name="Path 1491270" d="M668.3,27.655a1.093,1.093,0,0,1-1.111-.7,1.275,1.275,0,0,1,.505-1.7l7.373-3.8a1.3,1.3,0,0,1,1.717.5,1.276,1.276,0,0,1-.505,1.7l-7.373,3.9a1.293,1.293,0,0,1-.606.1" transform="translate(-9736.378 -8475)"/>
      <path id="Path_1491271" data-name="Path 1491271" d="M713.441,27.655a1.292,1.292,0,0,1-.606-.1l-7.373-3.8a1.193,1.193,0,0,1-.5-1.7,1.215,1.215,0,0,1,1.716-.5l7.373,3.8a1.193,1.193,0,0,1,.505,1.7,1.27,1.27,0,0,1-1.111.6" transform="translate(-9736.378 -8475)"/>
      <path id="Path_1491272" data-name="Path 1491272" d="M690.818,27.655a1.33,1.33,0,0,1-1.313-1.3v-13.7a1.313,1.313,0,0,1,2.625,0v13.8a1.246,1.246,0,0,1-1.312,1.2" transform="translate(-9736.378 -8475)"/>
      <path id="Path_1491273" data-name="Path 1491273" d="M709.8,58.955h-46.76a1.3,1.3,0,1,1,0-2.6H709.8a1.33,1.33,0,0,1,1.313,1.3,1.4,1.4,0,0,1-1.313,1.3" transform="translate(-9736.378 -8475)"/>
    </g>
  </g>
</svg>
