<svg xmlns="http://www.w3.org/2000/svg" xmlns:xlink="http://www.w3.org/1999/xlink" width="98" height="97.999" viewBox="0 0 98 97.999">
  <defs>
    <linearGradient id="linear-gradient" x1="0.5" x2="0.5" y2="1.267" gradientUnits="objectBoundingBox">
      <stop offset="0" stop-color="#ff9f8a"/>
      <stop offset="1" stop-color="#c946b0"/>
    </linearGradient>
  </defs>
  <g id="Group_1271792" data-name="Group 1271792" transform="translate(-802.782 -1967)">
    <g id="Group_1204180" data-name="Group 1204180" transform="translate(-1 -5.016)">
      <g id="Group_1204143" data-name="Group 1204143" transform="translate(-67.331 1694.852)">
        <g id="Group_1188789" data-name="Group 1188789" transform="translate(871.113 277.164)">
          <path id="Path_1243039" data-name="Path 1243039" d="M41.05,0h0a41.05,41.05,0,0,1,0,82.1h0a41.05,41.05,0,0,1,0-82.1Z" transform="translate(7.951 7.949)" fill="url(#linear-gradient)"/>
          <rect id="Rectangle_400907" data-name="Rectangle 400907" width="88.438" height="88.437" rx="44.218" transform="translate(4.782 4.781)" fill="none"/>
          <g id="Group_1098742" data-name="Group 1098742" transform="translate(0)">
            <g id="Rectangle_400898" data-name="Rectangle 400898" transform="translate(0)" fill="none" stroke="#fff" stroke-width="2" opacity="0.859">
              <rect width="98" height="97.999" rx="48.999" stroke="none"/>
              <rect x="1" y="1" width="96" height="95.999" rx="47.999" fill="none"/>
            </g>
            <g id="Rectangle_400907-2" data-name="Rectangle 400907" transform="translate(0)" fill="none" stroke="#0f1f33" stroke-linecap="round" stroke-width="2">
              <rect width="98" height="97.999" rx="48.999" stroke="none"/>
              <rect x="1" y="1" width="96" height="95.999" rx="47.999" fill="none"/>
            </g>
          </g>
        </g>
      </g>
    </g>
    <g id="Group_1272410" data-name="Group 1272410" transform="translate(7077.2 6732.293)">
      <path id="Path_1491623" data-name="Path 1491623" d="M378.762,159.6H340.687v27.5h55.547V159.6Z" transform="translate(-6593.878 -4879)" fill="#80af52"/>
      <path id="Path_1491624" data-name="Path 1491624" d="M387.143,164.6H349.776a4.032,4.032,0,0,1-4.04,4v9.6a4.031,4.031,0,0,1,4.04,4h37.367a4.031,4.031,0,0,1,4.04-4v-9.6a4.032,4.032,0,0,1-4.04-4" transform="translate(-6593.878 -4879)" fill="#91dfab"/>
      <path id="Path_1491625" data-name="Path 1491625" d="M368.46,164.6a8.8,8.8,0,1,1-8.887,8.8,8.845,8.845,0,0,1,8.887-8.8" transform="translate(-6593.878 -4879)" fill="#fcd884"/>
      <path id="Path_1491626" data-name="Path 1491626" d="M359.674,173.4a2.525,2.525,0,1,1-2.525-2.5,2.489,2.489,0,0,1,2.525,2.5" transform="translate(-6593.878 -4879)" fill="#7dc694"/>
      <path id="Path_1491627" data-name="Path 1491627" d="M379.872,170.9a2.5,2.5,0,1,1-2.524,2.5,2.488,2.488,0,0,1,2.524-2.5" transform="translate(-6593.878 -4879)" fill="#7dc694"/>
      <path id="Path_1491628" data-name="Path 1491628" d="M359.674,173.4a8.857,8.857,0,0,0,8.887,8.8H349.777a4.032,4.032,0,0,0-4.041-4v-9.6a4.032,4.032,0,0,0,4.041-4H368.46a8.772,8.772,0,0,0-8.786,8.8,2.525,2.525,0,1,0-2.525,2.5,2.553,2.553,0,0,0,2.525-2.5" transform="translate(-6593.878 -4879)" fill="#91dfab"/>
      <path id="Path_1491629" data-name="Path 1491629" d="M368.46,182.1a8.857,8.857,0,0,0,8.888-8.8,2.525,2.525,0,1,0,2.524-2.5,2.487,2.487,0,0,0-2.524,2.5,8.857,8.857,0,0,0-8.888-8.8h18.684a4.031,4.031,0,0,0,4.04,4v9.6a4.033,4.033,0,0,0-4.04,4Z" transform="translate(-6593.878 -4879)" fill="#91dfab"/>
      <path id="Path_1491630" data-name="Path 1491630" d="M373.61,139.6h5.252a5.19,5.19,0,0,1-5.252,5.2h-5.251a5.191,5.191,0,0,1,5.251-5.2" transform="translate(-6593.878 -4879)" fill="#70993f"/>
      <path id="Path_1491631" data-name="Path 1491631" d="M367.551,150.9H362.3a5.19,5.19,0,0,1-5.251-5.2H362.3a5.19,5.19,0,0,1,5.252,5.2" transform="translate(-6593.878 -4879)" fill="#80af52"/>
      <path id="Path_1491632" data-name="Path 1491632" d="M368.359,138.1h-4.141a7.288,7.288,0,0,1-5.151-2.1,7.141,7.141,0,0,1-2.12-5.1h4.141a7.287,7.287,0,0,1,5.15,2.1,7.141,7.141,0,0,1,2.121,5.1" transform="translate(-6593.878 -4879)" fill="#80af52"/>
      <path id="Path_1491633" data-name="Path 1491633" d="M371.288,169.2l-.4,1.6a4.281,4.281,0,0,0-2.121-.5c-.909,0-1.313.4-1.313.8,0,.5.5.8,1.818,1.3,1.717.6,2.424,1.4,2.424,2.7a2.8,2.8,0,0,1-2.626,2.7v1.5h-1.414v-1.4a5.864,5.864,0,0,1-2.525-.6l.4-1.7a5.739,5.739,0,0,0,2.424.6c.808,0,1.414-.3,1.414-.9s-.5-.9-1.515-1.3c-1.616-.5-2.626-1.3-2.626-2.7a2.7,2.7,0,0,1,2.525-2.6v-1.4h1.414v1.3a4.466,4.466,0,0,1,2.121.6" transform="translate(-6593.878 -4879)"/>
      <path id="Path_1491634" data-name="Path 1491634" d="M396.233,188.4H340.687a1.331,1.331,0,0,1-1.313-1.3V159.6a1.33,1.33,0,0,1,1.313-1.3h55.546a1.33,1.33,0,0,1,1.313,1.3v27.5a1.331,1.331,0,0,1-1.313,1.3M342,185.9h53.021v-25H342Z" transform="translate(-6593.878 -4879)"/>
      <path id="Path_1491635" data-name="Path 1491635" d="M387.143,183.4H349.776a1.331,1.331,0,0,1-1.313-1.3,2.7,2.7,0,0,0-2.727-2.7,1.33,1.33,0,0,1-1.312-1.3v-9.6a1.329,1.329,0,0,1,1.312-1.3,2.7,2.7,0,0,0,2.727-2.7,1.33,1.33,0,0,1,1.313-1.3h37.367a1.331,1.331,0,0,1,1.314,1.3,2.7,2.7,0,0,0,2.726,2.7,1.33,1.33,0,0,1,1.313,1.3v9.6a1.331,1.331,0,0,1-1.313,1.3,2.7,2.7,0,0,0-2.726,2.7,1.332,1.332,0,0,1-1.314,1.3m-36.256-2.5h35.247a5.258,5.258,0,0,1,3.837-3.8v-7.4a5.259,5.259,0,0,1-3.837-3.8H350.887a5.261,5.261,0,0,1-3.838,3.8v7.4a5.262,5.262,0,0,1,3.838,3.8" transform="translate(-6593.878 -4879)"/>
      <path id="Path_1491636" data-name="Path 1491636" d="M368.46,183.4a10,10,0,1,1,10.1-10,10.079,10.079,0,0,1-10.1,10m0-17.5a7.5,7.5,0,1,0,7.574,7.5,7.591,7.591,0,0,0-7.574-7.5" transform="translate(-6593.878 -4879)"/>
      <path id="Path_1491637" data-name="Path 1491637" d="M379.872,177.1a3.8,3.8,0,1,1,3.838-3.8,3.952,3.952,0,0,1-3.838,3.8m0-5a1.3,1.3,0,1,0,1.313,1.3,1.405,1.405,0,0,0-1.313-1.3" transform="translate(-6593.878 -4879)"/>
      <path id="Path_1491638" data-name="Path 1491638" d="M357.149,177.1a3.8,3.8,0,1,1,3.837-3.8,3.951,3.951,0,0,1-3.837,3.8m0-5a1.3,1.3,0,1,0,1.313,1.3,1.405,1.405,0,0,0-1.313-1.3" transform="translate(-6593.878 -4879)"/>
      <path id="Path_1491639" data-name="Path 1491639" d="M378.762,160.9a1.242,1.242,0,0,1-.909-.4,16.219,16.219,0,0,0-11.918-4.7,24.812,24.812,0,0,0-6.564.9,1.245,1.245,0,0,1-1.616-.8,1.229,1.229,0,0,1,.808-1.6,24.792,24.792,0,0,1,7.171-1.1h.1a18.972,18.972,0,0,1,13.836,5.5,1.257,1.257,0,0,1,0,1.8,1.821,1.821,0,0,1-.908.4" transform="translate(-6593.878 -4879)"/>
      <path id="Path_1491640" data-name="Path 1491640" d="M368.359,155.9a1.331,1.331,0,0,1-1.313-1.3V137.1a1.313,1.313,0,0,1,2.626,0v17.5a1.405,1.405,0,0,1-1.313,1.3" transform="translate(-6593.878 -4879)"/>
      <path id="Path_1491641" data-name="Path 1491641" d="M373.61,146h-5.251a1.33,1.33,0,0,1-1.313-1.3,6.477,6.477,0,0,1,6.464-6.4h5.252a1.33,1.33,0,0,1,1.312,1.3,6.477,6.477,0,0,1-6.464,6.4m-3.837-2.5h3.737a3.906,3.906,0,0,0,3.736-2.7H373.51a4.3,4.3,0,0,0-3.737,2.7" transform="translate(-6593.878 -4879)"/>
      <path id="Path_1491642" data-name="Path 1491642" d="M367.551,152.1H362.3a6.476,6.476,0,0,1-6.464-6.4,1.33,1.33,0,0,1,1.313-1.3H362.4a6.393,6.393,0,0,1,6.464,6.3v.1a1.4,1.4,0,0,1-1.313,1.3m-8.988-5.2a4.036,4.036,0,0,0,3.736,2.7h3.737a4.039,4.039,0,0,0-3.737-2.7Z" transform="translate(-6593.878 -4879)"/>
      <path id="Path_1491643" data-name="Path 1491643" d="M368.359,139.4h-4.141a8.523,8.523,0,0,1-6.059-2.5,8.353,8.353,0,0,1-2.525-6,1.331,1.331,0,0,1,1.313-1.3h4.141a8.517,8.517,0,0,1,6.059,2.5,8.353,8.353,0,0,1,2.525,6,1.405,1.405,0,0,1-1.313,1.3m-10.1-7.3a6.265,6.265,0,0,0,1.616,3,6.073,6.073,0,0,0,4.241,1.8h2.829a6.267,6.267,0,0,0-1.617-3,6.071,6.071,0,0,0-4.241-1.8Z" transform="translate(-6593.878 -4879)"/>
    </g>
  </g>
</svg>
