<svg id="Group_1272381" data-name="Group 1272381" xmlns="http://www.w3.org/2000/svg" xmlns:xlink="http://www.w3.org/1999/xlink" width="98" height="97.999" viewBox="0 0 98 97.999">
  <defs>
    <clipPath id="clip-path">
      <rect id="Rectangle_426921" data-name="Rectangle 426921" width="60.763" height="46.834" fill="none"/>
    </clipPath>
  </defs>
  <g id="Group_1204180" data-name="Group 1204180" transform="translate(0)">
    <g id="Group_1204143" data-name="Group 1204143">
      <g id="Group_1188789" data-name="Group 1188789">
        <path id="Path_1243039" data-name="Path 1243039" d="M41.05,0h0a41.05,41.05,0,1,1,0,82.1h0a41.05,41.05,0,1,1,0-82.1Z" transform="translate(7.951 7.949)" fill="#bbccf6"/>
        <rect id="Rectangle_400907" data-name="Rectangle 400907" width="88.438" height="88.437" rx="44.218" transform="translate(4.782 4.781)" fill="none"/>
        <g id="Group_1098742" data-name="Group 1098742">
          <g id="Rectangle_400898" data-name="Rectangle 400898" transform="translate(0)" fill="none" stroke="#fff" stroke-width="2" opacity="0.859">
            <rect width="98" height="97.999" rx="48.999" stroke="none"/>
            <rect x="1" y="1" width="96" height="95.999" rx="47.999" fill="none"/>
          </g>
          <g id="Rectangle_400907-2" data-name="Rectangle 400907" transform="translate(0)" fill="none" stroke="#0f1f33" stroke-linecap="round" stroke-width="2">
            <rect width="98" height="97.999" rx="48.999" stroke="none"/>
            <rect x="1" y="1" width="96" height="95.999" rx="47.999" fill="none"/>
          </g>
        </g>
      </g>
    </g>
  </g>
  <g id="Group_1272391" data-name="Group 1272391" transform="translate(18.618 25.582)">
    <path id="Path_1491440" data-name="Path 1491440" d="M31.693,17.765V21.6H21.6V17.765H31.693Z" fill="#ffb733"/>
    <g id="Group_1272384" data-name="Group 1272384">
      <g id="Group_1272383" data-name="Group 1272383" clip-path="url(#clip-path)">
        <path id="Path_1491441" data-name="Path 1491441" d="M12.718,21.6H7.671l.808-4.34a6.343,6.343,0,0,1,6.257-5.753h4.845a6.343,6.343,0,0,1,6.258,5.753l.1.606H21.6V21.7H12.718Z" fill="#ff3e3b"/>
        <path id="Path_1491442" data-name="Path 1491442" d="M17.158,1.413A5.047,5.047,0,1,1,12.112,6.46a5.047,5.047,0,0,1,5.046-5.047" fill="#f2deb9"/>
        <path id="Path_1491443" data-name="Path 1491443" d="M47.54,17.765l.5,3.835H44.209l.505-3.835.6-4.441a.8.8,0,0,1,1.313-.4c.1.1.2.3.3.4Z" fill="#414440"/>
        <path id="Path_1491444" data-name="Path 1491444" d="M55.918,2.624H37.648a2.241,2.241,0,0,0-2.22,2.221v10.8a2.24,2.24,0,0,0,2.22,2.221h7.166l.606-4.44a.8.8,0,0,1,1.312-.4c.1.1.2.3.3.4l.505,4.34h8.378a2.241,2.241,0,0,0,2.221-2.221V4.845a2.241,2.241,0,0,0-2.221-2.221" fill="#bec3c7"/>
        <path id="Path_1491445" data-name="Path 1491445" d="M38.456,34.822l-8.075,6.965-8.075-6.965,8.075-6.964Z" fill="#2b2d2b"/>
        <path id="Path_1491446" data-name="Path 1491446" d="M10.194,41.787v3.734H5.147V27.858h5.047Z" fill="#414440"/>
        <path id="Path_1491447" data-name="Path 1491447" d="M55.615,27.858V45.521H50.568V27.858Z" fill="#414440"/>
        <path id="Path_1491448" data-name="Path 1491448" d="M59.45,21.6v6.259H1.413V21.6H59.45Z" fill="#5a5a5a"/>
        <path id="Path_1491449" data-name="Path 1491449" d="M47.035,8.075a1.276,1.276,0,0,1,.4.908A1.336,1.336,0,0,1,46.127,10.3a1.094,1.094,0,0,1-.908-.4,1.494,1.494,0,0,1-.405-.908.982.982,0,0,1,.405-.908,1.276,1.276,0,0,1,.908-.4.981.981,0,0,1,.908.4"/>
        <path id="Path_1491450" data-name="Path 1491450" d="M30.381,43a1.147,1.147,0,0,1-.808-.3L21.5,35.73a1.094,1.094,0,0,1-.4-.908,1.28,1.28,0,0,1,.4-.908l8.074-6.965a1.228,1.228,0,0,1,1.615,0l8.076,6.965a1.1,1.1,0,0,1,.4.908,1.279,1.279,0,0,1-.4.908l-8.076,6.965a1.146,1.146,0,0,1-.807.3m-6.056-8.176,6.056,5.249,6.056-5.249-6.056-5.248Z"/>
        <path id="Path_1491451" data-name="Path 1491451" d="M44.311,22.812H31.694a1.313,1.313,0,1,1,0-2.625H44.311A1.337,1.337,0,0,1,45.622,21.5a1.409,1.409,0,0,1-1.311,1.312"/>
        <path id="Path_1491452" data-name="Path 1491452" d="M5.148,29.17H1.312A1.336,1.336,0,0,1,0,27.858V21.5a1.337,1.337,0,0,1,1.312-1.312H21.5A1.337,1.337,0,0,1,22.811,21.5,1.322,1.322,0,0,1,21.6,22.812H2.624v3.835H5.148a1.335,1.335,0,0,1,1.311,1.312A1.251,1.251,0,0,1,5.148,29.17"/>
        <path id="Path_1491453" data-name="Path 1491453" d="M59.45,29.17H55.615a1.312,1.312,0,0,1,0-2.624h2.524V22.812H48.045a1.313,1.313,0,1,1,0-2.625H59.45A1.336,1.336,0,0,1,60.762,21.5v6.359A1.5,1.5,0,0,1,59.45,29.17"/>
        <path id="Path_1491454" data-name="Path 1491454" d="M10.194,46.834H5.147a1.337,1.337,0,0,1-1.312-1.312V27.858a1.336,1.336,0,0,1,1.312-1.312h5.047a1.312,1.312,0,0,1,0,2.624H6.358V44.311H8.882V41.787a1.312,1.312,0,1,1,2.624,0v3.835a1.322,1.322,0,0,1-1.312,1.212"/>
        <path id="Path_1491455" data-name="Path 1491455" d="M55.615,46.834H50.568a1.336,1.336,0,0,1-1.312-1.312V41.686a1.312,1.312,0,0,1,2.624,0v2.523H54.4V29.069H50.568a1.312,1.312,0,1,1,0-2.624h5.047a1.337,1.337,0,0,1,1.312,1.312V45.421a1.36,1.36,0,0,1-1.312,1.413"/>
        <path id="Path_1491456" data-name="Path 1491456" d="M55.918,19.076H47.54a1.312,1.312,0,1,1,0-2.624h8.378a.9.9,0,0,0,.908-.908V4.845a.905.905,0,0,0-.908-.909H37.648a.905.905,0,0,0-.908.909v10.8a.906.906,0,0,0,.908.91h7.166a1.312,1.312,0,1,1,0,2.624H37.648a3.4,3.4,0,0,1-3.431-3.432V4.845a3.4,3.4,0,0,1,3.431-3.432H56.019A3.4,3.4,0,0,1,59.45,4.845v10.8a3.557,3.557,0,0,1-3.532,3.432"/>
        <path id="Path_1491457" data-name="Path 1491457" d="M48.045,22.811H44.209a1.28,1.28,0,0,1-.908-.4A1.7,1.7,0,0,1,43,21.4l1.111-8.175v-.2a2.15,2.15,0,0,1,2.018-1.513,2.029,2.029,0,0,1,1.313.4,1.658,1.658,0,0,1,.706,1.11v.2l1.11,8.175v.2a1.163,1.163,0,0,1-1.211,1.211m-2.321-2.523h.908l-.4-3.432Z"/>
        <path id="Path_1491458" data-name="Path 1491458" d="M17.158,12.718A6.4,6.4,0,0,1,10.8,6.358a6.359,6.359,0,0,1,12.717,0,6.4,6.4,0,0,1-6.359,6.36m0-10.094A3.836,3.836,0,1,0,20.994,6.46a3.9,3.9,0,0,0-3.836-3.836"/>
        <path id="Path_1491459" data-name="Path 1491459" d="M12.718,22.812A1.335,1.335,0,0,1,11.406,21.5V18.976a1.312,1.312,0,1,1,2.623,0V21.5a1.335,1.335,0,0,1-1.311,1.312"/>
        <path id="Path_1491460" data-name="Path 1491460" d="M7.671,22.812h-.2A1.285,1.285,0,0,1,6.46,21.3l.808-4.34A7.706,7.706,0,0,1,9.69,12.113a7.449,7.449,0,0,1,5.046-2.019h4.845a7.09,7.09,0,0,1,5.047,2.019,7.717,7.717,0,0,1,2.423,4.844l.1.5a1.287,1.287,0,1,1-2.523.5l-.1-.606v-.1a5.027,5.027,0,0,0-4.946-4.542H14.736A4.954,4.954,0,0,0,9.79,17.26v.1L8.882,21.8a1.2,1.2,0,0,1-1.211,1.01"/>
        <path id="Path_1491461" data-name="Path 1491461" d="M31.693,22.812H21.6A1.337,1.337,0,0,1,20.288,21.5V17.765A1.337,1.337,0,0,1,21.6,16.452H31.693a1.337,1.337,0,0,1,1.313,1.313V21.6a1.5,1.5,0,0,1-1.313,1.212m-8.882-2.524H30.38V18.976H22.811Z"/>
        <path id="Path_1491462" data-name="Path 1491462" d="M50.568,43H10.194a1.335,1.335,0,0,1-1.312-1.312V27.858a1.335,1.335,0,0,1,1.312-1.312H50.568a1.336,1.336,0,0,1,1.312,1.312V41.787A1.321,1.321,0,0,1,50.568,43M11.507,40.475h37.85V29.17H11.507Z"/>
        <path id="Path_1491463" data-name="Path 1491463" d="M45.521,35.428a1.335,1.335,0,0,1-1.312-1.311V27.859a1.312,1.312,0,1,1,2.624,0v6.358a1.321,1.321,0,0,1-1.312,1.211"/>
        <path id="Path_1491464" data-name="Path 1491464" d="M15.241,43a1.335,1.335,0,0,1-1.312-1.312v-7.57a1.312,1.312,0,1,1,2.624,0v7.57A1.336,1.336,0,0,1,15.241,43"/>
      </g>
    </g>
  </g>
</svg>
