<svg xmlns="http://www.w3.org/2000/svg" xmlns:xlink="http://www.w3.org/1999/xlink" width="98" height="97.998" viewBox="0 0 98 97.998">
  <defs>
    <linearGradient id="linear-gradient" x1="0.5" x2="0.5" y2="1.267" gradientUnits="objectBoundingBox">
      <stop offset="0" stop-color="#ff9f8a"/>
      <stop offset="1" stop-color="#c946b0"/>
    </linearGradient>
  </defs>
  <g id="Group_1271692" data-name="Group 1271692" transform="translate(-802.781 -1967)">
    <g id="Group_1204180" data-name="Group 1204180" transform="translate(-1 -5.016)">
      <g id="Group_1204143" data-name="Group 1204143" transform="translate(-67.331 1694.852)">
        <g id="Group_1188789" data-name="Group 1188789" transform="translate(871.113 277.164)">
          <path id="Path_1243039" data-name="Path 1243039" d="M41.05,0h0a41.05,41.05,0,0,1,0,82.1h0a41.05,41.05,0,0,1,0-82.1Z" transform="translate(7.951 7.949)" fill="url(#linear-gradient)"/>
          <rect id="Rectangle_400907" data-name="Rectangle 400907" width="88.438" height="88.437" rx="44.218" transform="translate(4.782 4.781)" fill="none"/>
          <g id="Group_1098742" data-name="Group 1098742" transform="translate(0)">
            <g id="Rectangle_400898" data-name="Rectangle 400898" transform="translate(0)" fill="none" stroke="#fff" stroke-width="2" opacity="0.859">
              <rect width="98" height="97.999" rx="48.999" stroke="none"/>
              <rect x="1" y="1" width="96" height="95.999" rx="47.999" fill="none"/>
            </g>
            <g id="Rectangle_400907-2" data-name="Rectangle 400907" transform="translate(0)" fill="none" stroke="#0f1f33" stroke-linecap="round" stroke-width="2">
              <rect width="98" height="97.999" rx="48.999" stroke="none"/>
              <rect x="1" y="1" width="96" height="95.999" rx="47.999" fill="none"/>
            </g>
          </g>
        </g>
      </g>
    </g>
    <g id="Group_1272373" data-name="Group 1272373" transform="translate(10558.744 10460.422)">
      <path id="Path_1491274" data-name="Path 1491274" d="M35.575,27.854c.606,4.4-3.232,6.4-6.463,9.6-3.232-3.2-6.868-5.1-6.464-9.6a3.306,3.306,0,0,1,3.232-3.2c1.615,0,2.424.8,3.232,2.4.807-1.6,1.615-2.4,3.231-2.4,1.818,0,2.929,1.5,3.232,3.2" transform="translate(-9736.378 -8475)" fill="#ff7979"/>
      <path id="Path_1491275" data-name="Path 1491275" d="M16.386,56.654l-4.645,3.3-9.9-9.9,8.181-7.2a7.849,7.849,0,0,1,5.857-1.9l.707.1,19.9,1.7a3.416,3.416,0,0,1,2.02.9l.1.1a3.2,3.2,0,0,1,1.01,2.1,2.827,2.827,0,0,1-.2,1.6l12.119-12a3.924,3.924,0,0,1,2.727-1.1,4.113,4.113,0,0,1,2.727,1.1,3.658,3.658,0,0,1,0,5.3l-15.149,14.9a7.649,7.649,0,0,1-6.06,2.2Z" transform="translate(-9736.378 -8475)" fill="#ffd8a8"/>
      <path id="Path_1491276" data-name="Path 1491276" d="M42.846,4.455l4.645-3.3,9.9,9.9-8.18,7.2a7.853,7.853,0,0,1-5.858,1.9l-5.959-.5-14.442-1.2h-.2a3.262,3.262,0,0,1-2.12-1,3.21,3.21,0,0,1-1.011-2.1,2.823,2.823,0,0,1,.2-1.6L7.7,25.755a3.922,3.922,0,0,1-2.727,1.1,4.108,4.108,0,0,1-2.727-1.1,3.658,3.658,0,0,1,0-5.3L17.3,5.555a7.651,7.651,0,0,1,6.059-2.2Z" transform="translate(-9736.378 -8475)" fill="#ffd8a8"/>
      <path id="Path_1491277" data-name="Path 1491277" d="M11.741,61.154a1.242,1.242,0,0,1-.909-.4l-10-9.9a1.206,1.206,0,0,1,0-1.8l8.181-7.2a9.25,9.25,0,0,1,6.767-2.2l20.6,1.7a4.54,4.54,0,0,1,2.727,1.2l.1.1a3.855,3.855,0,0,1,1.111,1.7l10-9.9a5.164,5.164,0,0,1,3.535-1.5,4.76,4.76,0,0,1,3.535,1.5,5.1,5.1,0,0,1,0,7.1l-14.644,15a9.093,9.093,0,0,1-6.969,2.6l-18.987-1.3-4.241,3a1.351,1.351,0,0,1-.808.3m-8.08-11,8.282,8.2,3.736-2.7a.791.791,0,0,1,.808-.2l19.391,1.3a6.658,6.658,0,0,0,5.05-1.9l15.047-14.9a2.4,2.4,0,0,0,0-3.5,2.443,2.443,0,0,0-1.817-.7,2.914,2.914,0,0,0-1.818.7l-11.816,11.7a4.8,4.8,0,0,1-4.545,2.7l-13.533-.6a1.251,1.251,0,1,1,.1-2.5l13.533.6a2.333,2.333,0,0,0,2.02-1.1.756.756,0,0,1,.2-.5,2.465,2.465,0,0,0,.1-.8,2.09,2.09,0,0,0-.707-1.3l-.1-.1a3.143,3.143,0,0,0-1.313-.6l-20.6-1.7a6.112,6.112,0,0,0-4.847,1.6Z" transform="translate(-9736.378 -8475)"/>
      <path id="Path_1491278" data-name="Path 1491278" d="M16.386,57.854a1.155,1.155,0,0,1-.808-.3l-6.362-5.4a1.258,1.258,0,0,1-.1-1.8,1.287,1.287,0,0,1,1.817-.1l6.363,5.4a1.259,1.259,0,0,1,.1,1.8,1.458,1.458,0,0,1-1.01.4" transform="translate(-9736.378 -8475)"/>
      <path id="Path_1491279" data-name="Path 1491279" d="M4.974,28.055a4.762,4.762,0,0,1-3.535-1.5,5.1,5.1,0,0,1,0-7.1l15.048-14.9a9.093,9.093,0,0,1,6.969-2.6l18.987,1.3,4.241-3a1.236,1.236,0,0,1,1.616.1l10,9.9a1.48,1.48,0,0,1,.4.9,1.485,1.485,0,0,1-.4.9l-8.181,7.2a9.251,9.251,0,0,1-6.767,2.2l-20.6-1.7a5.238,5.238,0,0,1-2.929-1.3,3.855,3.855,0,0,1-1.111-1.7l-10,9.9a6.36,6.36,0,0,1-3.737,1.4m17.977-23.6a6.694,6.694,0,0,0-4.646,1.9L3.257,21.255a2.4,2.4,0,0,0-.707,1.8,2.856,2.856,0,0,0,.707,1.8,2.448,2.448,0,0,0,1.818.7,2.915,2.915,0,0,0,1.818-.7l11.917-11.8a4.8,4.8,0,0,1,4.545-2.7l13.533.6a1.251,1.251,0,1,1-.1,2.5l-13.533-.6a2.335,2.335,0,0,0-2.02,1.1.764.764,0,0,1-.2.5,2.462,2.462,0,0,0-.1.8,2.085,2.085,0,0,0,.707,1.3,1.784,1.784,0,0,0,1.313.6h.2l20.4,1.7a6.113,6.113,0,0,0,4.847-1.6l7.171-6.3-8.282-8.1-3.736,2.7a.794.794,0,0,1-.808.2l-19.391-1.3Z" transform="translate(-9736.378 -8475)"/>
      <path id="Path_1491280" data-name="Path 1491280" d="M49.209,11.154a1.153,1.153,0,0,1-.808-.3l-6.362-5.4a1.258,1.258,0,0,1-.1-1.8,1.287,1.287,0,0,1,1.817-.1l6.363,5.4a1.258,1.258,0,0,1,.1,1.8,1.458,1.458,0,0,1-1.01.4" transform="translate(-9736.378 -8475)"/>
      <path id="Path_1491281" data-name="Path 1491281" d="M38.1,44.455a1.13,1.13,0,0,1-.3-.8,1.079,1.079,0,0,1,.4-.9,1.293,1.293,0,0,1,1.818.1,1.129,1.129,0,0,1,.3.8,1.08,1.08,0,0,1-.4.9,1.149,1.149,0,0,1-.808.3,1.3,1.3,0,0,1-1.01-.4m2.626-2.4a1.225,1.225,0,0,1-.505-1,1.84,1.84,0,0,1,.2-.7,1.2,1.2,0,0,1,1.717-.3,1.227,1.227,0,0,1,.5,1,1.843,1.843,0,0,1-.2.7,1.25,1.25,0,0,1-1.01.5,1.471,1.471,0,0,1-.707-.2m1.918-3a1.3,1.3,0,0,1-.807-1.2.894.894,0,0,1,.1-.5,1.27,1.27,0,0,1,1.616-.7,1.3,1.3,0,0,1,.808,1.2.894.894,0,0,1-.1.5,1.313,1.313,0,0,1-1.212.8.616.616,0,0,1-.4-.1m1.212-3.3a1.285,1.285,0,0,1-1.11-1.2v-.2a1.253,1.253,0,0,1,1.414-1.1,1.281,1.281,0,0,1,1.11,1.2v.2a1.286,1.286,0,0,1-1.211,1.1Zm-1.009-4.6h0v-.1a1.205,1.205,0,0,1,1.11-1.2,1.256,1.256,0,0,1,1.414,1.1v.1a1.206,1.206,0,0,1-1.11,1.2h-.1a1.173,1.173,0,0,1-1.313-1.1m-.707-3.1c0-.1-.1-.3-.1-.4a1.256,1.256,0,0,1,.909-1.2,1.242,1.242,0,0,1,1.615.8c0,.1.1.3.1.4a1.3,1.3,0,0,1-.808,1.2c-.1,0-.3.1-.4.1a1.617,1.617,0,0,1-1.313-.9m-1.414-2.9a1.427,1.427,0,0,1-.2-.7,1.378,1.378,0,0,1,.606-1.1,1.189,1.189,0,0,1,1.717.4,1.432,1.432,0,0,1,.2.7,1.376,1.376,0,0,1-.606,1.1,1.471,1.471,0,0,1-.707.2,1.383,1.383,0,0,1-1.01-.6m-2.02-2.5h0a1.48,1.48,0,0,1-.4-.9,1.218,1.218,0,0,1,.4-.9,1.289,1.289,0,0,1,1.818,0,1.083,1.083,0,0,1,.4.9,1.215,1.215,0,0,1-.4.9,1.511,1.511,0,0,1-.909.4,3.57,3.57,0,0,1-.909-.4" transform="translate(-9736.378 -8475)"/>
      <path id="Path_1491282" data-name="Path 1491282" d="M14.367,39.854a1.242,1.242,0,0,1-.1-.6,1.083,1.083,0,0,1,.707-1.1,1.3,1.3,0,0,1,1.717.5,1.259,1.259,0,0,1,.1.6,1.08,1.08,0,0,1-.707,1.1,1.281,1.281,0,0,1-.606.1,1.091,1.091,0,0,1-1.11-.6m-1.314-3.6v-.3a1.19,1.19,0,0,1,1.01-1.2,1.2,1.2,0,0,1,1.515.9v.3a1.191,1.191,0,0,1-1.009,1.2h-.3a1.042,1.042,0,0,1-1.212-.9m-.5-3.7h0a1.314,1.314,0,0,1,1.211-1.3,1.248,1.248,0,0,1,1.314,1.2,1.222,1.222,0,0,1-1.212,1.2,1.115,1.115,0,0,1-1.313-1.1m1.413-2.3a1.193,1.193,0,0,1-1.01-1.2v-.3a1.2,1.2,0,0,1,1.516-.9,1.192,1.192,0,0,1,1.009,1.2v.3a1.2,1.2,0,0,1-1.212,1,.376.376,0,0,1-.3-.1m.909-3.4a1.357,1.357,0,0,1-.707-1.1,1.259,1.259,0,0,1,.1-.6,1.341,1.341,0,0,1,1.717-.6,1.358,1.358,0,0,1,.707,1.1,1.263,1.263,0,0,1-.1.6,1.374,1.374,0,0,1-1.111.7.57.57,0,0,1-.606-.1m1.616-3a1.225,1.225,0,0,1-.5-1,1.131,1.131,0,0,1,.3-.8,1.388,1.388,0,0,1,1.818-.2,1.228,1.228,0,0,1,.5,1,1.127,1.127,0,0,1-.3.8,1.244,1.244,0,0,1-1.01.5,2.657,2.657,0,0,1-.808-.3m2.424-2.7a1.073,1.073,0,0,1-.3-.7,1.224,1.224,0,0,1,.505-1,1.4,1.4,0,0,1,1.818.2,1.075,1.075,0,0,1,.3.7,1.225,1.225,0,0,1-.5,1,1.153,1.153,0,0,1-.808.3,1.029,1.029,0,0,1-1.01-.5m2.828-2a.892.892,0,0,1-.1-.5,1.172,1.172,0,0,1,.808-1.1,1.191,1.191,0,0,1,1.616.6.9.9,0,0,1,.1.5,1.232,1.232,0,0,1-.707,1.1.926.926,0,0,1-.5.1,1.1,1.1,0,0,1-1.212-.7" transform="translate(-9736.378 -8475)"/>
      <path id="Path_1491283" data-name="Path 1491283" d="M29.112,38.654h0a1.1,1.1,0,0,1-.909-.4c-.707-.7-1.313-1.3-2.02-1.9-2.525-2.2-5.151-4.6-4.747-8.7a4.508,4.508,0,0,1,4.444-4.3,4.088,4.088,0,0,1,3.232,1.4,4.088,4.088,0,0,1,3.231-1.4,4.578,4.578,0,0,1,4.444,4.3c.606,4.1-2.121,6.4-4.746,8.7a18.176,18.176,0,0,0-2.02,1.9,1.238,1.238,0,0,1-.909.4m-3.232-12.7a2.013,2.013,0,0,0-1.919,2.1c-.3,2.9,1.515,4.4,3.939,6.6.4.4.808.7,1.212,1.1a12.878,12.878,0,0,1,1.312-1.1c2.727-2.4,4.242-3.9,3.939-6.5a2.1,2.1,0,0,0-2.02-2.1c-.908,0-1.312.2-2.12,1.7a1.232,1.232,0,0,1-2.222,0c-.707-1.6-1.212-1.8-2.121-1.8" transform="translate(-9736.378 -8475)"/>
    </g>
  </g>
</svg>
