<svg xmlns="http://www.w3.org/2000/svg" xmlns:xlink="http://www.w3.org/1999/xlink" width="98" height="97.999" viewBox="0 0 98 97.999">
  <defs>
    <linearGradient id="linear-gradient" x1="0.5" x2="0.5" y2="1.267" gradientUnits="objectBoundingBox">
      <stop offset="0" stop-color="#ff9f8a"/>
      <stop offset="1" stop-color="#c946b0"/>
    </linearGradient>
  </defs>
  <g id="Group_1271754" data-name="Group 1271754" transform="translate(-802.781 -1967)">
    <g id="Group_1204180" data-name="Group 1204180" transform="translate(-1 -5.016)">
      <g id="Group_1204143" data-name="Group 1204143" transform="translate(-67.331 1694.852)">
        <g id="Group_1188789" data-name="Group 1188789" transform="translate(871.113 277.164)">
          <path id="Path_1243039" data-name="Path 1243039" d="M41.05,0h0a41.05,41.05,0,0,1,0,82.1h0a41.05,41.05,0,0,1,0-82.1Z" transform="translate(7.951 7.949)" fill="url(#linear-gradient)"/>
          <rect id="Rectangle_400907" data-name="Rectangle 400907" width="88.438" height="88.437" rx="44.218" transform="translate(4.782 4.781)" fill="none"/>
          <g id="Group_1098742" data-name="Group 1098742" transform="translate(0)">
            <g id="Rectangle_400898" data-name="Rectangle 400898" transform="translate(0)" fill="none" stroke="#fff" stroke-width="2" opacity="0.859">
              <rect width="98" height="97.999" rx="48.999" stroke="none"/>
              <rect x="1" y="1" width="96" height="95.999" rx="47.999" fill="none"/>
            </g>
            <g id="Rectangle_400907-2" data-name="Rectangle 400907" transform="translate(0)" fill="none" stroke="#0f1f33" stroke-linecap="round" stroke-width="2">
              <rect width="98" height="97.999" rx="48.999" stroke="none"/>
              <rect x="1" y="1" width="96" height="95.999" rx="47.999" fill="none"/>
            </g>
          </g>
        </g>
      </g>
    </g>
    <g id="Group_1272403" data-name="Group 1272403" transform="translate(7318.297 6861.316)">
      <path id="Path_1491604" data-name="Path 1491604" d="M127.861,16.58v2.234a.851.851,0,0,1-.78.859l-1.649.172a7.744,7.744,0,0,1-.954,2.32l1.127,1.289a.912.912,0,0,1-.086,1.2l-1.649,1.632a.936.936,0,0,1-1.215.086l-1.3-1.117a7.054,7.054,0,0,1-2.343.945l-.174,1.632a.853.853,0,0,1-.868.773h-2.256a.853.853,0,0,1-.868-.773l-.174-1.632a8.932,8.932,0,0,1-2.342-.945l-1.215,1.031A.936.936,0,0,1,109.9,26.2l-1.649-1.632a.913.913,0,0,1-.087-1.2l1.128-1.289a6.907,6.907,0,0,1-.955-2.32l-1.649-.172a.851.851,0,0,1-.781-.859V16.494a.851.851,0,0,1,.781-.859l1.649-.172a8.75,8.75,0,0,1,.955-2.32l-1.128-1.289a.913.913,0,0,1,.087-1.2L109.9,9.02a.936.936,0,0,1,1.215-.086l1.3,1.117a7.049,7.049,0,0,1,2.342-.945l.174-1.632A.852.852,0,0,1,115.8,6.7h2.256a.853.853,0,0,1,.868.773l.174,1.632a8.938,8.938,0,0,1,2.343.945l1.3-1.117a.936.936,0,0,1,1.215.086l1.648,1.632a.911.911,0,0,1,.087,1.2l-1.127,1.289a6.906,6.906,0,0,1,.955,2.32l1.649.172a1.142,1.142,0,0,1,.693.945m-6.681,1.2a4.339,4.339,0,1,0-4.339,4.3,4.33,4.33,0,0,0,4.339-4.3" transform="translate(-6594.376 -4879.169)" fill="#2f4a5f"/>
      <path id="Path_1491605" data-name="Path 1491605" d="M117.738,24.025a5.472,5.472,0,0,1-5.466-5.413,5.467,5.467,0,1,1,5.466,5.413m0-8.591a3.265,3.265,0,1,0,3.3,3.265,3.28,3.28,0,0,0-3.3-3.265" transform="translate(-6595.272 -4880.084)"/>
      <path id="Path_1491606" data-name="Path 1491606" d="M112.894,59.991a1.143,1.143,0,0,1-1.128-1.117V34.217a1.128,1.128,0,0,1,2.256,0V58.96a1.131,1.131,0,0,1-1.128,1.031" transform="translate(-6595.201 -4882.888)"/>
      <path id="Path_1491607" data-name="Path 1491607" d="M136.148,56.23a1.143,1.143,0,0,1-1.127-1.117V42.226a1.143,1.143,0,0,1,1.127-1.117,5.472,5.472,0,0,0,5.467-5.413V31.4a1.143,1.143,0,0,1,1.128-1.117h4.252a.74.74,0,0,0,.52-.258.643.643,0,0,0,.088-.6l-1.649-6.444v-.258c0-7.646-6.682-14.09-14.577-14.09a1.117,1.117,0,1,1,0-2.234c9.024,0,16.66,7.389,16.746,16.152l1.562,6.272a2.959,2.959,0,0,1-.521,2.406,2.887,2.887,0,0,1-2.256,1.117h-3.123v3.265a7.609,7.609,0,0,1-6.508,7.475V54.942c-.086.773-.521,1.289-1.128,1.289" transform="translate(-6597.805 -4879.127)"/>
      <path id="Path_1491608" data-name="Path 1491608" d="M117.785,29.556h-2.256a1.981,1.981,0,0,1-2-1.8l-.087-.945c-.434-.172-.781-.258-1.128-.43l-.694.6a1.714,1.714,0,0,1-1.3.43,1.731,1.731,0,0,1-1.388-.6l-1.649-1.546A1.962,1.962,0,0,1,107.2,22.6l.607-.687c-.174-.344-.347-.773-.521-1.117l-.868-.086a1.976,1.976,0,0,1-1.822-1.976V16.5a1.976,1.976,0,0,1,1.822-1.976l.955-.086a4.422,4.422,0,0,1,.521-1.117l-.607-.687a1.963,1.963,0,0,1,.087-2.663l1.649-1.632a2.055,2.055,0,0,1,1.388-.6,2.359,2.359,0,0,1,1.3.43l.693.6c.347-.172.781-.344,1.128-.515l.087-.945a1.981,1.981,0,0,1,2-1.8h2.256a1.981,1.981,0,0,1,2,1.8l.087.945a4.508,4.508,0,0,1,1.128.515l.694-.6a1.715,1.715,0,0,1,1.3-.43,1.734,1.734,0,0,1,1.388.6l1.649,1.632a1.963,1.963,0,0,1,.087,2.663l-.694.687a5.929,5.929,0,0,1,.434,1.117l.954.086a1.976,1.976,0,0,1,1.822,1.976v2.234a1.976,1.976,0,0,1-1.822,1.976l-.954.086c-.174.43-.26.773-.434,1.117l.607.687a1.963,1.963,0,0,1-.087,2.663l-1.648,1.632a2.061,2.061,0,0,1-1.389.6,2.353,2.353,0,0,1-1.3-.43l-.694-.6a6.085,6.085,0,0,1-1.128.43l-.087.945a1.977,1.977,0,0,1-2,1.718M115.7,27.408h1.909l.087-1.461a1.009,1.009,0,0,1,.781-.945,5.857,5.857,0,0,0,2-.859,1.047,1.047,0,0,1,1.215.086l1.127.945,1.389-1.375-.782-1.117a1.032,1.032,0,0,1-.086-1.2,8.1,8.1,0,0,0,.868-1.976,1.013,1.013,0,0,1,.954-.773l1.475-.086v-1.89l-1.475-.086a1.013,1.013,0,0,1-.954-.773,5.756,5.756,0,0,0-.868-1.976,1.022,1.022,0,0,1,.086-1.2l.955-1.117-1.389-1.375-1.128.945a1.056,1.056,0,0,1-1.214.086,8.227,8.227,0,0,0-2-.859,1.009,1.009,0,0,1-.781-.945l-.087-1.461h-1.909l-.087,1.461a1.009,1.009,0,0,1-.781.945,5.857,5.857,0,0,0-2,.859,1.047,1.047,0,0,1-1.215-.086l-1.127-.945L109.281,11.6l.955,1.117a1.03,1.03,0,0,1,.086,1.2,8.092,8.092,0,0,0-.867,1.976,1.014,1.014,0,0,1-.955.773l-1.475.086v1.89l1.475.086a1.014,1.014,0,0,1,.955.773,5.738,5.738,0,0,0,.867,1.976,1.02,1.02,0,0,1-.086,1.2l-.955,1.117,1.389,1.375,1.127-.945a1.058,1.058,0,0,1,1.215-.086,8.227,8.227,0,0,0,2,.859,1.009,1.009,0,0,1,.781.945Z" transform="translate(-6594.191 -4879)"/>
      <path id="Path_1491609" data-name="Path 1491609" d="M135.323,49.034h-9.8a1.117,1.117,0,1,1,0-2.234h9.8a1.117,1.117,0,1,1,0,2.234" transform="translate(-6596.979 -4884.817)"/>
      <path id="Path_1491610" data-name="Path 1491610" d="M117.944,62.977a1.143,1.143,0,0,1-1.128-1.117V55.417a1.128,1.128,0,0,1,2.256,0V61.86a1.143,1.143,0,0,1-1.128,1.117" transform="translate(-6595.913 -4885.874)"/>
      <path id="Path_1491611" data-name="Path 1491611" d="M146.886,64.034H103.5a1.117,1.117,0,1,1,0-2.234h43.384a1.117,1.117,0,1,1,0,2.234" transform="translate(-6593.878 -4886.93)"/>
      <path id="Path_1491612" data-name="Path 1491612" d="M154.93,52.734h-9.718a1.117,1.117,0,1,1,0-2.234h9.805a1.142,1.142,0,0,1,1.127,1.117,1.217,1.217,0,0,1-1.215,1.117" transform="translate(-6599.753 -4885.338)"/>
      <path id="Path_1491613" data-name="Path 1491613" d="M158.337,56.534H154a1.117,1.117,0,1,1,0-2.234h4.339a1.117,1.117,0,1,1,0,2.234" transform="translate(-6600.991 -4885.874)"/>
    </g>
  </g>
</svg>
