<svg xmlns="http://www.w3.org/2000/svg" xmlns:xlink="http://www.w3.org/1999/xlink" width="98" height="97.999" viewBox="0 0 98 97.999">
  <defs>
    <linearGradient id="linear-gradient" x1="0.5" x2="0.5" y2="1.267" gradientUnits="objectBoundingBox">
      <stop offset="0" stop-color="#ff9f8a"/>
      <stop offset="1" stop-color="#c946b0"/>
    </linearGradient>
  </defs>
  <g id="Group_1271794" data-name="Group 1271794" transform="translate(-802.782 -1967)">
    <g id="Group_1204180" data-name="Group 1204180" transform="translate(-1 -5.016)">
      <g id="Group_1204143" data-name="Group 1204143" transform="translate(-67.331 1694.852)">
        <g id="Group_1188789" data-name="Group 1188789" transform="translate(871.113 277.164)">
          <path id="Path_1243039" data-name="Path 1243039" d="M41.05,0h0a41.05,41.05,0,0,1,0,82.1h0a41.05,41.05,0,0,1,0-82.1Z" transform="translate(7.951 7.949)" fill="url(#linear-gradient)"/>
          <rect id="Rectangle_400907" data-name="Rectangle 400907" width="88.438" height="88.437" rx="44.218" transform="translate(4.782 4.781)" fill="none"/>
          <g id="Group_1098742" data-name="Group 1098742" transform="translate(0)">
            <g id="Rectangle_400898" data-name="Rectangle 400898" transform="translate(0)" fill="none" stroke="#fff" stroke-width="2" opacity="0.859">
              <rect width="98" height="97.999" rx="48.999" stroke="none"/>
              <rect x="1" y="1" width="96" height="95.999" rx="47.999" fill="none"/>
            </g>
            <g id="Rectangle_400907-2" data-name="Rectangle 400907" transform="translate(0)" fill="none" stroke="#0f1f33" stroke-linecap="round" stroke-width="2">
              <rect width="98" height="97.999" rx="48.999" stroke="none"/>
              <rect x="1" y="1" width="96" height="95.999" rx="47.999" fill="none"/>
            </g>
          </g>
        </g>
      </g>
    </g>
    <g id="Group_1272408" data-name="Group 1272408" transform="translate(6806.893 6729.982)">
      <path id="Path_1491540" data-name="Path 1491540" d="M663.295,141.7H614.241a3.189,3.189,0,0,0-3.23,3.23v32.6a3.189,3.189,0,0,0,3.23,3.23H663.4a3.188,3.188,0,0,0,3.229-3.23v-32.6a3.34,3.34,0,0,0-3.331-3.23" transform="translate(-6593.878 -4879)" fill="#5a5a5a"/>
      <path id="Path_1491541" data-name="Path 1491541" d="M652.7,145.434H614.846v27.757H662.79V145.434Z" transform="translate(-6593.878 -4879)" fill="#ff3e3b"/>
      <path id="Path_1491542" data-name="Path 1491542" d="M625.041,151.793l2.321,6.056-6.157-2.221-1.312-.5a8.094,8.094,0,0,1,4.643-4.643Z" transform="translate(-6593.878 -4879)" fill="#2a4356"/>
      <path id="Path_1491543" data-name="Path 1491543" d="M625.041,151.793a6.255,6.255,0,0,1,2.321-.4,6.662,6.662,0,0,1,0,13.324,6.4,6.4,0,0,1-4.643-2.019,6.717,6.717,0,0,1-1.917-4.744,6.119,6.119,0,0,1,.4-2.422l6.157,2.22Z" transform="translate(-6593.878 -4879)" fill="#ffb733"/>
      <rect id="Rectangle_426923" data-name="Rectangle 426923" width="2.523" height="7.57" transform="translate(-5937.446 -4717.113)"/>
      <rect id="Rectangle_426924" data-name="Rectangle 426924" width="2.523" height="11.406" transform="translate(-5941.181 -4720.949)"/>
      <rect id="Rectangle_426925" data-name="Rectangle 426925" width="2.523" height="6.359" transform="translate(-5945.017 -4715.902)"/>
      <rect id="Rectangle_426926" data-name="Rectangle 426926" width="2.523" height="8.882" transform="translate(-5948.751 -4718.425)"/>
      <rect id="Rectangle_426927" data-name="Rectangle 426927" width="2.523" height="5.047" transform="translate(-5952.587 -4714.59)"/>
      <path id="Path_1491544" data-name="Path 1491544" d="M639.677,176.119a1.284,1.284,0,0,1,.4.909,1.1,1.1,0,0,1-.4.908,1.507,1.507,0,0,1-.909.4,1.336,1.336,0,0,1-1.312-1.312,1.094,1.094,0,0,1,.4-.909,1.808,1.808,0,0,1,.908-.4,1.1,1.1,0,0,1,.909.4" transform="translate(-6593.878 -4879)"/>
      <path id="Path_1491545" data-name="Path 1491545" d="M637.557,149.27a1.313,1.313,0,1,1-1.312,1.312,1.272,1.272,0,0,1,1.312-1.312" transform="translate(-6593.878 -4879)"/>
      <path id="Path_1491546" data-name="Path 1491546" d="M646.944,189.644a1.335,1.335,0,0,1-1.311-1.312V185.91a5.3,5.3,0,0,1-4.038-5.148,1.312,1.312,0,0,1,2.624,0,2.821,2.821,0,0,0,2.827,2.826,1.335,1.335,0,0,1,1.311,1.312v3.533a1.51,1.51,0,0,1-1.413,1.211" transform="translate(-6593.878 -4879)"/>
      <path id="Path_1491547" data-name="Path 1491547" d="M630.593,189.644a1.335,1.335,0,0,1-1.312-1.312V184.8a1.336,1.336,0,0,1,1.312-1.312,2.821,2.821,0,0,0,2.826-2.826,1.313,1.313,0,0,1,2.625,0,5.3,5.3,0,0,1-4.039,5.148v2.422c-.2.808-.706,1.413-1.412,1.413" transform="translate(-6593.878 -4879)"/>
      <path id="Path_1491548" data-name="Path 1491548" d="M650.174,189.644H627.463a1.312,1.312,0,1,1,0-2.624h22.711a1.336,1.336,0,0,1,1.312,1.312,1.5,1.5,0,0,1-1.312,1.312" transform="translate(-6593.878 -4879)"/>
      <path id="Path_1491549" data-name="Path 1491549" d="M662.79,174.5H614.847a1.337,1.337,0,0,1-1.313-1.312V145.434a1.336,1.336,0,0,1,1.313-1.311H662.79a1.336,1.336,0,0,1,1.313,1.311v27.758a1.5,1.5,0,0,1-1.313,1.312m-46.732-2.524h45.421V146.747H616.058Z" transform="translate(-6593.878 -4879)"/>
      <path id="Path_1491550" data-name="Path 1491550" d="M663.295,182.074H614.241a4.523,4.523,0,0,1-4.542-4.543v-32.6a4.523,4.523,0,0,1,4.542-4.542h49.054a4.522,4.522,0,0,1,4.542,4.542v32.6a4.658,4.658,0,0,1-4.542,4.543m-49.054-39.163a2.025,2.025,0,0,0-2.019,2.02v32.6a2.026,2.026,0,0,0,2.019,2.019h49.054a2.026,2.026,0,0,0,2.019-2.019v-32.6a2.025,2.025,0,0,0-2.019-2.02Z" transform="translate(-6593.878 -4879)"/>
      <path id="Path_1491551" data-name="Path 1491551" d="M627.262,159.162a.6.6,0,0,1-.4-.1l-7.47-2.726a1.214,1.214,0,0,1-.706-.706,1.718,1.718,0,0,1,0-1.009,9.366,9.366,0,0,1,5.45-5.451,1.718,1.718,0,0,1,1.009,0,1.587,1.587,0,0,1,.707.707l2.725,7.267a.91.91,0,0,1,.1.5,1.536,1.536,0,0,1-1.413,1.514m-5.652-4.744,3.532,1.312L623.83,152.2a6.667,6.667,0,0,0-2.22,2.221" transform="translate(-6593.878 -4879)"/>
      <path id="Path_1491552" data-name="Path 1491552" d="M627.363,166.025a7.544,7.544,0,0,1-5.551-2.321,7.94,7.94,0,0,1-2.322-5.653,6.584,6.584,0,0,1,.606-2.927,1.3,1.3,0,0,1,1.716-.606,1.221,1.221,0,0,1,.6,1.717,5.1,5.1,0,0,0-.3,1.917,5.515,5.515,0,0,0,1.615,3.835,5.338,5.338,0,0,0,3.836,1.616,5.4,5.4,0,1,0,0-10.8,5.852,5.852,0,0,0-1.918.3,1.277,1.277,0,1,1-.807-2.423,8.491,8.491,0,0,1,2.725-.4,7.97,7.97,0,0,1,7.974,7.873,8.286,8.286,0,0,1-8.176,7.873" transform="translate(-6593.878 -4879)"/>
      <path id="Path_1491553" data-name="Path 1491553" d="M662.79,151.793h-21.5a1.312,1.312,0,1,1,0-2.624h21.5a1.335,1.335,0,0,1,1.312,1.312,1.5,1.5,0,0,1-1.312,1.312" transform="translate(-6593.878 -4879)"/>
      <path id="Path_1491554" data-name="Path 1491554" d="M622.417,169.457h-7.57a1.312,1.312,0,1,1,0-2.624h7.57a1.335,1.335,0,0,1,1.312,1.312,1.409,1.409,0,0,1-1.312,1.312" transform="translate(-6593.878 -4879)"/>
    </g>
  </g>
</svg>
