<svg xmlns="http://www.w3.org/2000/svg" width="110.002" height="110" viewBox="0 0 110.002 110">
  <g id="Group_1271862" data-name="Group 1271862" transform="translate(-871.113 -277.164)">
    <g id="Group_1188789" data-name="Group 1188789" transform="translate(871.113 277.164)">
      <path id="Path_1243039" data-name="Path 1243039" d="M47.05,0h0a47.05,47.05,0,1,1,0,94.1h0a47.05,47.05,0,1,1,0-94.1Z" transform="translate(7.951 7.949)" fill="#5c657a"/>
      <rect id="Rectangle_400907" data-name="Rectangle 400907" width="100.44" height="100.438" rx="50.219" transform="translate(4.782 4.781)" fill="none"/>
      <g id="Group_1098742" data-name="Group 1098742" transform="translate(0)">
        <g id="Rectangle_400898" data-name="Rectangle 400898" transform="translate(0)" fill="none" stroke="#fff" stroke-width="2" opacity="0.859">
          <rect width="110.001" height="110" rx="55" stroke="none"/>
          <rect x="1" y="1" width="108.001" height="108" rx="54" fill="none"/>
        </g>
        <g id="Rectangle_400907-2" data-name="Rectangle 400907" transform="translate(0)" fill="none" stroke="#0f1f33" stroke-linecap="round" stroke-width="2">
          <rect width="110.001" height="110" rx="55" stroke="none"/>
          <rect x="1" y="1" width="108.001" height="108" rx="54" fill="none"/>
        </g>
      </g>
    </g>
    <g id="Profit_Growth-Ecommerce-Stat-Report-Woman" data-name="Profit Growth-Ecommerce-Stat-Report-Woman" transform="translate(895.861 301.912)">
      <path id="Path_1244962" data-name="Path 1244962" d="M61.084,13.084H53.017A2.023,2.023,0,0,1,51,11.067V3Z" transform="translate(-1.588 -1.992)" fill="#bcbec0"/>
      <path id="Path_1244963" data-name="Path 1244963" d="M61.37,13.084v44.37a4.034,4.034,0,0,1-4.034,4.034h-36.3A4.034,4.034,0,0,1,17,57.454V7.034A4.034,4.034,0,0,1,21.034,3H51.286v8.067A2.023,2.023,0,0,0,53.3,13.084Z" transform="translate(-1.874 -1.992)" fill="#e6e7e8"/>
      <path id="Path_1244964" data-name="Path 1244964" d="M35.151,50.777v8.652a4.023,4.023,0,0,1-.545,2.017H21.034A4.034,4.034,0,0,1,17,57.412V8.4A11.736,11.736,0,0,1,20.045,8,12.085,12.085,0,0,1,32.126,20.1V27.16c0,.262-.01.534-.02.8a4.21,4.21,0,0,0,1.21,3.166,3.042,3.042,0,0,1,.2,3.933,2.044,2.044,0,0,0,.061,2.44,3.025,3.025,0,0,1-1.9,4.74c-.02,0-.03.01-.05.01A12.1,12.1,0,0,1,35.151,50.777Z" transform="translate(-1.874 -1.95)" fill="#d8d7da"/>
      <path id="Path_1244965" data-name="Path 1244965" d="M31.671,35.5a2.044,2.044,0,0,1-.061-2.44,3.042,3.042,0,0,0-.2-3.933,4.21,4.21,0,0,1-1.21-3.166c.01-.262.02-.534.02-.8V18.1A12.085,12.085,0,0,0,18.138,6,12.435,12.435,0,0,0,6.017,18.454V25.16c0,.262.01.534.02.8a4.21,4.21,0,0,1-1.21,3.166,3.042,3.042,0,0,0-.2,3.933,2.044,2.044,0,0,1-.061,2.44,3.025,3.025,0,0,0,1.9,4.74c.02,0,.03.01.05.01h.01a11.76,11.76,0,0,1,3.156-2.3l.716-.363a8.056,8.056,0,0,0,1.714,3.045,3.462,3.462,0,0,0,6.01-2.35,3.462,3.462,0,0,0,6.01,2.35,8.056,8.056,0,0,0,1.714-3.045l.716.363a11.76,11.76,0,0,1,3.156,2.3h.01c.02,0,.03-.01.05-.01a3.025,3.025,0,0,0,1.9-4.74Z" transform="translate(-1.983 -1.966)" fill="#57565c"/>
      <path id="Path_1244966" data-name="Path 1244966" d="M18.064,38.025v.01a3.462,3.462,0,0,1-6.01,2.35A8.056,8.056,0,0,1,10.34,37.34l4.7-2.34A3.025,3.025,0,0,0,18.064,38.025Z" transform="translate(-1.93 -1.722)" fill="#e6e7e8"/>
      <path id="Path_1244967" data-name="Path 1244967" d="M18,38.025A3.025,3.025,0,0,0,21.025,35l4.7,2.34a8.056,8.056,0,0,1-1.714,3.045A3.462,3.462,0,0,1,18,38.035Z" transform="translate(-1.865 -1.722)" fill="#e6e7e8"/>
      <path id="Path_1244968" data-name="Path 1244968" d="M29.733,39.982h-.01a11.76,11.76,0,0,0-3.156-2.3l-.716-.363a8.056,8.056,0,0,1-1.714,3.045,3.462,3.462,0,0,1-6.01-2.35,3.462,3.462,0,0,1-6.01,2.35A8.056,8.056,0,0,1,10.4,37.32l-.716.363a11.76,11.76,0,0,0-3.156,2.3h-.01A12.1,12.1,0,0,0,3,48.513v3.61H9.05V61.2H27.2V52.124h6.05v-3.61a12.1,12.1,0,0,0-3.521-8.533Z" transform="translate(-1.992 -1.703)" fill="#ea348b"/>
      <path id="Path_1244969" data-name="Path 1244969" d="M21.05,30.42v4.619a3.025,3.025,0,0,1-6.05,0V30.42a8.117,8.117,0,0,0,6.05,0Z" transform="translate(-1.891 -1.761)" fill="#ffc477"/>
      <path id="Path_1244970" data-name="Path 1244970" d="M12,45H24.1V61.135H12Z" transform="translate(-1.916 -1.638)" fill="#e6e7e8"/>
      <path id="Path_1244971" data-name="Path 1244971" d="M27.067,52v3.025H22.025a3.025,3.025,0,1,0,0,6.05h7.059a4.034,4.034,0,0,0,4.034-4.034V52Z" transform="translate(-1.857 -1.579)" fill="#ffc477"/>
      <path id="Path_1244972" data-name="Path 1244972" d="M14.093,55.025H9.05V52H3v5.042a4.034,4.034,0,0,0,4.034,4.034h7.059a3.025,3.025,0,1,0,0-6.05Z" transform="translate(-1.992 -1.579)" fill="#ffc477"/>
      <path id="Path_1244973" data-name="Path 1244973" d="M21.05,30.42v3.025a8.117,8.117,0,0,1-6.05,0V30.42a8.117,8.117,0,0,0,6.05,0Z" transform="translate(-1.891 -1.761)" fill="#ffb655"/>
      <path id="Path_1244974" data-name="Path 1244974" d="M15.042,31.567A8.075,8.075,0,0,1,10,24.084V17.025c6.05,0,8.067,0,12.1-3.025l4.034,3.025v7.059a8.065,8.065,0,0,1-11.093,7.482Z" transform="translate(-1.933 -1.899)" fill="#ffc477"/>
      <path id="Path_1244975" data-name="Path 1244975" d="M14,20h2.017v2.017H14Z" transform="translate(-1.899 -1.849)"/>
      <path id="Path_1244976" data-name="Path 1244976" d="M20,20h2.017v2.017H20Z" transform="translate(-1.849 -1.849)"/>
      <path id="Path_1244977" data-name="Path 1244977" d="M16.028,25.25l-1.336,1.513a5.042,5.042,0,0,0,6.672,0L20.028,25.25A3.1,3.1,0,0,1,16.028,25.25Z" transform="translate(-1.893 -1.804)"/>
      <path id="Path_1244978" data-name="Path 1244978" d="M54.151,28.034H52.135V43.16H50.118V32.067H48.1V43.16H46.084V34.084H44.067V43.16H42.05v-6.05H40.034v6.05H38.017V24H36V44.168a1.008,1.008,0,0,0,1.008,1.008h19.16V43.16H54.151Z" transform="translate(-1.714 -1.815)"/>
      <path id="Path_1244979" data-name="Path 1244979" d="M40.293,32.4l1.426,1.426L52.1,23.443v1.6h2.017V21.008A1.008,1.008,0,0,0,53.107,20H49.073v2.017h1.6Z" transform="translate(-1.678 -1.849)"/>
      <path id="Path_1244980" data-name="Path 1244980" d="M42.042,17.076H40.025a1.008,1.008,0,0,1-1.008-1.008H37a3.025,3.025,0,0,0,3.025,3.025V20.1h2.017V19.093a3.025,3.025,0,1,0,0-6.05H40.025a1.008,1.008,0,0,1,0-2.017h2.017a1.008,1.008,0,0,1,1.008,1.008h2.017a3.025,3.025,0,0,0-3.025-3.025V8H40.025V9.008a3.025,3.025,0,0,0,0,6.05h2.017a1.008,1.008,0,1,1,0,2.017Z" transform="translate(-1.705 -1.95)"/>
      <path id="Path_1244981" data-name="Path 1244981" d="M36,49h4.034v2.017H36Z" transform="translate(-1.714 -1.605)"/>
      <path id="Path_1244982" data-name="Path 1244982" d="M42,49H56.118v2.017H42Z" transform="translate(-1.663 -1.605)"/>
      <path id="Path_1244983" data-name="Path 1244983" d="M36,53H56.168v2.017H36Z" transform="translate(-1.714 -1.571)"/>
      <path id="Path_1244984" data-name="Path 1244984" d="M62.212,12.377,52.128,2.292A1.042,1.042,0,0,0,51.412,2H21.16a5.02,5.02,0,0,0-4.679,3.2A12.908,12.908,0,0,0,9.059,8.908a13.7,13.7,0,0,0-4.034,9.62v6.706c0,.292.01.575.03.857a3.283,3.283,0,0,1-.938,2.41,4.041,4.041,0,0,0-.272,5.244,1.063,1.063,0,0,1-.081,1.24,4.046,4.046,0,0,0-.7,3.086,4,4,0,0,0,1.745,2.612A13.05,13.05,0,0,0,2,48.811v8.652A5.042,5.042,0,0,0,7.042,62.5H57.463A5.042,5.042,0,0,0,62.5,57.463V13.093a1.042,1.042,0,0,0-.292-.716ZM52.421,5.439l6.645,6.645H53.429a1.008,1.008,0,0,1-1.008-1.008ZM5.439,32.515a2.031,2.031,0,0,1-.413-1.23,2.064,2.064,0,0,1,.555-1.4A5.265,5.265,0,0,0,7.062,25.96c-.01-.242-.02-.484-.02-.726V18.528a11.69,11.69,0,0,1,3.439-8.2,10.8,10.8,0,0,1,7.654-3.247h.02A11.086,11.086,0,0,1,29.227,18.175v7.059c0,.242-.01.484-.02.726a5.265,5.265,0,0,0,1.482,3.923,2.064,2.064,0,0,1,.555,1.4,2.031,2.031,0,0,1-.413,1.23,3.011,3.011,0,0,0,.04,3.64,2.011,2.011,0,0,1,.333,1.573,1.972,1.972,0,0,1-1.15,1.432,13.046,13.046,0,0,0-3.035-2.077l-4.85-2.43V32.3a9.084,9.084,0,0,0,5.042-8.118V17.126a1.023,1.023,0,0,0-.4-.807l-4.034-3.025a1,1,0,0,0-1.21,0c-3.761,2.824-5.556,2.824-11.5,2.824a1.008,1.008,0,0,0-1.008,1.008v7.059A9.084,9.084,0,0,0,14.1,32.3v2.35l-4.85,2.43A13.046,13.046,0,0,0,6.215,39.16,1.991,1.991,0,0,1,5.4,36.165a3.025,3.025,0,0,0,.04-3.65ZM17,39.13a2.469,2.469,0,0,1-1.462,1.482,2.346,2.346,0,0,1-2.652-.625,7.059,7.059,0,0,1-1.21-1.866l2.723-1.361A4.034,4.034,0,0,0,17,39.13ZM11.076,24.185v-6.05c5.092-.01,7.4-.171,11.082-2.783l3.035,2.279v6.555a7.059,7.059,0,1,1-14.118,0Zm5.042,11.093V33.029a8.885,8.885,0,0,0,4.034,0v2.249a2.017,2.017,0,1,1-4.034,0Zm5.758,1.482L24.6,38.121a7.281,7.281,0,0,1-1.2,1.866,2.364,2.364,0,0,1-2.662.625,2.469,2.469,0,0,1-1.462-1.482,4.034,4.034,0,0,0,2.6-2.37ZM14.1,60.488H7.042a3.034,3.034,0,0,1-3.025-3.025V53.429H8.05v1.6L6.326,56.747l1.432,1.432,1.714-1.724H14.1a2.017,2.017,0,1,1,0,4.034Zm4.6,0H17.57a3.939,3.939,0,0,0,.565-2.017A4.034,4.034,0,0,0,14.1,54.437H13.093V46.37H23.177v8.067H22.168a4.034,4.034,0,0,0-4.034,4.034A3.939,3.939,0,0,0,18.7,60.488Zm13.553-3.025a3.034,3.034,0,0,1-3.025,3.025H22.168a2.017,2.017,0,0,1,0-4.034H26.8l1.714,1.724,1.432-1.432-1.724-1.714v-1.6h4.034Zm0-6.05H28.219V48.387H26.2v6.05H25.194V45.362a1.008,1.008,0,0,0-1.008-1.008h-12.1a1.008,1.008,0,0,0-1.008,1.008v9.076H10.067v-6.05H8.05v3.025H4.017v-2.6a11.01,11.01,0,0,1,2.924-7.482h.1v-.111a11.275,11.275,0,0,1,2.844-2.178,8.831,8.831,0,0,0,1.492,2.3,4.346,4.346,0,0,0,3.237,1.472,4.523,4.523,0,0,0,1.644-.313,4.437,4.437,0,0,0,1.876-1.371A4.437,4.437,0,0,0,20.01,42.5a4.523,4.523,0,0,0,1.644.313A4.384,4.384,0,0,0,24.9,41.338a9.061,9.061,0,0,0,1.482-2.3,11.436,11.436,0,0,1,2.592,1.916c.04.04.071.081.111.121a10.981,10.981,0,0,1,3.166,7.735Zm28.236,6.05a3.034,3.034,0,0,1-3.025,3.025H33.231a4.965,4.965,0,0,0,1.039-3.025V48.811a13,13,0,0,0-2.813-8.118,4,4,0,0,0,1.734-2.612,4.046,4.046,0,0,0-.686-3.106,1.046,1.046,0,0,1-.081-1.23,4.041,4.041,0,0,0-.272-5.244,3.283,3.283,0,0,1-.938-2.41c.02-.282.03-.565.03-.857V18.175A13.042,13.042,0,0,0,18.851,5.106,2.98,2.98,0,0,1,21.16,4.017H50.4v7.059A3.034,3.034,0,0,0,53.429,14.1h7.059Z" transform="translate(-2 -2)"/>
    </g>
  </g>
</svg>
