<svg xmlns="http://www.w3.org/2000/svg" xmlns:xlink="http://www.w3.org/1999/xlink" width="98" height="97.999" viewBox="0 0 98 97.999">
  <defs>
    <linearGradient id="linear-gradient" x1="0.5" x2="0.5" y2="1.267" gradientUnits="objectBoundingBox">
      <stop offset="0" stop-color="#ff9f8a"/>
      <stop offset="1" stop-color="#c946b0"/>
    </linearGradient>
  </defs>
  <g id="Group_1271793" data-name="Group 1271793" transform="translate(-802.781 -1967)">
    <g id="Group_1204180" data-name="Group 1204180" transform="translate(-1 -5.016)">
      <g id="Group_1204143" data-name="Group 1204143" transform="translate(-67.331 1694.852)">
        <g id="Group_1188789" data-name="Group 1188789" transform="translate(871.113 277.164)">
          <path id="Path_1243039" data-name="Path 1243039" d="M41.05,0h0a41.05,41.05,0,0,1,0,82.1h0a41.05,41.05,0,0,1,0-82.1Z" transform="translate(7.951 7.949)" fill="url(#linear-gradient)"/>
          <rect id="Rectangle_400907" data-name="Rectangle 400907" width="88.438" height="88.437" rx="44.218" transform="translate(4.782 4.781)" fill="none"/>
          <g id="Group_1098742" data-name="Group 1098742" transform="translate(0)">
            <g id="Rectangle_400898" data-name="Rectangle 400898" transform="translate(0)" fill="none" stroke="#fff" stroke-width="2" opacity="0.859">
              <rect width="98" height="97.999" rx="48.999" stroke="none"/>
              <rect x="1" y="1" width="96" height="95.999" rx="47.999" fill="none"/>
            </g>
            <g id="Rectangle_400907-2" data-name="Rectangle 400907" transform="translate(0)" fill="none" stroke="#0f1f33" stroke-linecap="round" stroke-width="2">
              <rect width="98" height="97.999" rx="48.999" stroke="none"/>
              <rect x="1" y="1" width="96" height="95.999" rx="47.999" fill="none"/>
            </g>
          </g>
        </g>
      </g>
    </g>
    <g id="Group_1272409" data-name="Group 1272409" transform="translate(6936.696 6736.4)">
      <path id="Path_1491569" data-name="Path 1491569" d="M483.715,183.9v-50h40.4v50" transform="translate(-6593.878 -4879)" fill="#d7deed"/>
      <path id="Path_1491570" data-name="Path 1491570" d="M490.684,137.6a1.908,1.908,0,0,1,1.919,1.9,1.848,1.848,0,0,1-1.919,1.9,1.9,1.9,0,1,1,0-3.8" transform="translate(-6593.878 -4879)" fill="#afb9d2"/>
      <path id="Path_1491571" data-name="Path 1491571" d="M499.47,137.6a1.908,1.908,0,0,1,1.919,1.9,1.848,1.848,0,0,1-1.919,1.9,1.823,1.823,0,0,1-1.817-1.9,1.888,1.888,0,0,1,1.817-1.9" transform="translate(-6593.878 -4879)" fill="#afb9d2"/>
      <path id="Path_1491572" data-name="Path 1491572" d="M508.357,137.6a1.908,1.908,0,0,1,1.919,1.9,1.848,1.848,0,0,1-1.919,1.9,1.9,1.9,0,1,1,0-3.8" transform="translate(-6593.878 -4879)" fill="#afb9d2"/>
      <path id="Path_1491573" data-name="Path 1491573" d="M517.143,137.6a1.908,1.908,0,0,1,1.919,1.9,1.848,1.848,0,0,1-1.919,1.9,1.823,1.823,0,0,1-1.817-1.9,1.888,1.888,0,0,1,1.817-1.9" transform="translate(-6593.878 -4879)" fill="#afb9d2"/>
      <path id="Path_1491574" data-name="Path 1491574" d="M534.212,178.9v2.5a2.525,2.525,0,0,1-5.05,0v-2.5Z" transform="translate(-6593.878 -4879)" fill="#ff7979"/>
      <rect id="Rectangle_426928" data-name="Rectangle 426928" width="5.05" height="3.8" transform="translate(-6064.716 -4703.9)" fill="#febe76"/>
      <path id="Path_1491575" data-name="Path 1491575" d="M534.212,146.4v28.7h-5.05V146.4l2.525-6.3Z" transform="translate(-6593.878 -4879)" fill="#57606f"/>
      <path id="Path_1491576" data-name="Path 1491576" d="M512.8,163.1a8.988,8.988,0,0,1-2.222,6,13.563,13.563,0,0,0-2.928,7,1.675,1.675,0,0,0-1.01-.2h-6.06a2.98,2.98,0,0,0-.909.2,12.961,12.961,0,0,0-2.828-7,9.445,9.445,0,0,1-2.12-6,9.04,9.04,0,1,1,18.077,0" transform="translate(-6593.878 -4879)" fill="#fcd884"/>
      <path id="Path_1491577" data-name="Path 1491577" d="M508.458,176.8a1.917,1.917,0,0,1,.3,1,2.017,2.017,0,0,1-2.021,2h-6.059a1.706,1.706,0,0,1-1.415-.6,1.968,1.968,0,0,1-.605-1.4,1.99,1.99,0,0,1,1.11-1.8,2.986,2.986,0,0,1,.91-.2h6.059a3.613,3.613,0,0,1,1.01.2c.2.3.506.5.707.8" transform="translate(-6593.878 -4879)" fill="#57606f"/>
      <path id="Path_1491578" data-name="Path 1491578" d="M504.722,179.9a2.017,2.017,0,0,1,2.02,2,1.673,1.673,0,0,1-.606,1.4,2,2,0,0,1-1.414.6H502.7a2.016,2.016,0,0,1-2.02-2,1.671,1.671,0,0,1,.606-1.4,2.006,2.006,0,0,1,1.414-.6Z" transform="translate(-6593.878 -4879)" fill="#414a56"/>
      <path id="Path_1491579" data-name="Path 1491579" d="M524.112,185.1H504.721a1.269,1.269,0,0,0-2.019,0H483.715a1.33,1.33,0,0,1-1.313-1.3v-50a1.33,1.33,0,0,1,1.313-1.3h40.4a1.33,1.33,0,0,1,1.313,1.3v50a1.267,1.267,0,0,1-1.313,1.3m-39.084-2.5H502.7a1.269,1.269,0,0,0,2.019,0H522.9V135.1H485.028Z" transform="translate(-6593.878 -4879)"/>
      <path id="Path_1491580" data-name="Path 1491580" d="M517.143,142.6a3.1,3.1,0,1,1,3.131-3.1,3.131,3.131,0,0,1-3.131,3.1m0-3.7a.6.6,0,1,0,.607.6c.1-.3-.2-.6-.607-.6" transform="translate(-6593.878 -4879)"/>
      <path id="Path_1491581" data-name="Path 1491581" d="M517.143,138.9a1.329,1.329,0,0,1-1.312-1.3v-5.1a3.6,3.6,0,0,1,3.635-3.6h.808a1.3,1.3,0,1,1,0,2.6h-.707a1.115,1.115,0,0,0-1.111,1.1v5.2a1.317,1.317,0,0,1-1.313,1.1" transform="translate(-6593.878 -4879)"/>
      <path id="Path_1491582" data-name="Path 1491582" d="M508.357,142.6a3.1,3.1,0,1,1,3.131-3.1,3.131,3.131,0,0,1-3.131,3.1m0-3.7a.6.6,0,1,0,.605.6.649.649,0,0,0-.605-.6" transform="translate(-6593.878 -4879)"/>
      <path id="Path_1491583" data-name="Path 1491583" d="M508.357,138.9a1.329,1.329,0,0,1-1.312-1.3v-5.1a3.6,3.6,0,0,1,3.635-3.6h.808a1.3,1.3,0,1,1,0,2.6h-.808a1.115,1.115,0,0,0-1.111,1.1v5.2a1.209,1.209,0,0,1-1.212,1.1" transform="translate(-6593.878 -4879)"/>
      <path id="Path_1491584" data-name="Path 1491584" d="M499.47,142.6a3.1,3.1,0,1,1,3.131-3.1,3.131,3.131,0,0,1-3.131,3.1m0-3.7a.6.6,0,1,0,.606.6c.1-.3-.2-.6-.606-.6" transform="translate(-6593.878 -4879)"/>
      <path id="Path_1491585" data-name="Path 1491585" d="M499.47,138.9a1.33,1.33,0,0,1-1.312-1.3v-5.1a3.6,3.6,0,0,1,3.635-3.6h.808a1.3,1.3,0,1,1,0,2.6h-.808a1.115,1.115,0,0,0-1.111,1.1v5.2c.1.5-.505,1.1-1.212,1.1" transform="translate(-6593.878 -4879)"/>
      <path id="Path_1491586" data-name="Path 1491586" d="M490.684,142.6a3.1,3.1,0,1,1,3.131-3.1,3.131,3.131,0,0,1-3.131,3.1m0-3.7a.6.6,0,1,0,.605.6.648.648,0,0,0-.605-.6" transform="translate(-6593.878 -4879)"/>
      <path id="Path_1491587" data-name="Path 1491587" d="M490.684,138.9a1.329,1.329,0,0,1-1.312-1.3v-5.1a3.6,3.6,0,0,1,3.635-3.6h.808a1.3,1.3,0,1,1,0,2.6h-.808a1.115,1.115,0,0,0-1.111,1.1v5.2a1.209,1.209,0,0,1-1.212,1.1" transform="translate(-6593.878 -4879)"/>
      <path id="Path_1491588" data-name="Path 1491588" d="M519.063,147.6h-30.3a1.3,1.3,0,1,1,0-2.6h30.3a1.33,1.33,0,0,1,1.312,1.3,1.267,1.267,0,0,1-1.312,1.3" transform="translate(-6593.878 -4879)"/>
      <path id="Path_1491589" data-name="Path 1491589" d="M519.063,151.4H496.338a1.3,1.3,0,1,1,0-2.6h22.725a1.3,1.3,0,1,1,0,2.6" transform="translate(-6593.878 -4879)"/>
      <path id="Path_1491590" data-name="Path 1491590" d="M519.063,180.1h-3.839a1.3,1.3,0,1,1,0-2.6h3.839a1.33,1.33,0,0,1,1.312,1.3,1.267,1.267,0,0,1-1.312,1.3" transform="translate(-6593.878 -4879)"/>
      <path id="Path_1491591" data-name="Path 1491591" d="M519.063,176.4H512.7a1.3,1.3,0,1,1,0-2.6h6.363a1.3,1.3,0,1,1,0,2.6" transform="translate(-6593.878 -4879)"/>
      <path id="Path_1491592" data-name="Path 1491592" d="M492.6,180.1h-3.839a1.3,1.3,0,1,1,0-2.6H492.6a1.329,1.329,0,0,1,1.311,1.3,1.4,1.4,0,0,1-1.311,1.3" transform="translate(-6593.878 -4879)"/>
      <path id="Path_1491593" data-name="Path 1491593" d="M495.127,176.4h-6.362a1.3,1.3,0,1,1,0-2.6h6.362a1.331,1.331,0,0,1,1.314,1.3,1.492,1.492,0,0,1-1.314,1.3" transform="translate(-6593.878 -4879)"/>
      <path id="Path_1491594" data-name="Path 1491594" d="M531.687,185.1a3.817,3.817,0,0,1-3.837-3.8v-35a.894.894,0,0,1,.1-.5l2.524-6.3a1.318,1.318,0,0,1,2.424,0l2.525,6.3a.743.743,0,0,1,.1.5v35a3.817,3.817,0,0,1-3.838,3.8m-1.212-38.5v34.8a1.313,1.313,0,0,0,2.626,0V146.6l-1.414-3.1Z" transform="translate(-6593.878 -4879)"/>
      <path id="Path_1491595" data-name="Path 1491595" d="M534.212,180.1h-5.05a1.3,1.3,0,1,1,0-2.6h5.05a1.33,1.33,0,0,1,1.312,1.3,1.266,1.266,0,0,1-1.312,1.3" transform="translate(-6593.878 -4879)"/>
      <path id="Path_1491596" data-name="Path 1491596" d="M534.212,176.4h-5.05a1.3,1.3,0,1,1,0-2.6h5.05a1.3,1.3,0,1,1,0,2.6" transform="translate(-6593.878 -4879)"/>
      <path id="Path_1491597" data-name="Path 1491597" d="M491.289,151.4h-2.524a1.3,1.3,0,1,1,0-2.6h2.524a1.3,1.3,0,1,1,0,2.6" transform="translate(-6593.878 -4879)"/>
      <path id="Path_1491598" data-name="Path 1491598" d="M503.712,176.4a1.33,1.33,0,0,1-1.313-1.3V167a4.353,4.353,0,0,1,4.342-4.3,1.3,1.3,0,1,1,0,2.6,1.8,1.8,0,0,0-1.817,1.8v8.1a1.159,1.159,0,0,1-1.212,1.2" transform="translate(-6593.878 -4879)"/>
      <path id="Path_1491599" data-name="Path 1491599" d="M503.712,168.3A1.33,1.33,0,0,1,502.4,167a1.8,1.8,0,0,0-1.818-1.8,1.3,1.3,0,1,1,0-2.6,4.355,4.355,0,0,1,4.343,4.3,1.22,1.22,0,0,1-1.212,1.4" transform="translate(-6593.878 -4879)"/>
      <path id="Path_1491600" data-name="Path 1491600" d="M505.731,169.3h-4.04a1.3,1.3,0,1,1,0-2.6h4.04a1.3,1.3,0,1,1,0,2.6" transform="translate(-6593.878 -4879)"/>
      <path id="Path_1491601" data-name="Path 1491601" d="M507.65,177.4h-.1a1.248,1.248,0,0,1-1.111-1.4,13.635,13.635,0,0,1,3.232-7.6,8.272,8.272,0,0,0,1.918-5.2,7.852,7.852,0,0,0-7.674-8,7.606,7.606,0,0,0-5.354,2.2,8.214,8.214,0,0,0-2.423,5.8,8.061,8.061,0,0,0,1.918,5.2,14.268,14.268,0,0,1,3.131,7.6,1.271,1.271,0,0,1-2.524.3,11.648,11.648,0,0,0-2.525-6.3,10.4,10.4,0,0,1-2.425-6.8,10.778,10.778,0,0,1,3.131-7.6,9.989,9.989,0,0,1,7.071-2.9h.1A10.482,10.482,0,0,1,511.69,170a12.594,12.594,0,0,0-2.626,6.3,1.617,1.617,0,0,1-1.414,1.1" transform="translate(-6593.878 -4879)"/>
      <path id="Path_1491602" data-name="Path 1491602" d="M506.742,181.1h-2.02a1.269,1.269,0,0,0-2.019,0h-2.021a3.261,3.261,0,0,1-3.332-3.2,3.334,3.334,0,0,1,1.817-2.9,4.266,4.266,0,0,1,1.515-.4h6.06a2.65,2.65,0,0,1,1.515.4,3.473,3.473,0,0,1,1.212,1.2,3.347,3.347,0,0,1,.505,1.7,3.239,3.239,0,0,1-3.232,3.2m-6.06-4a.373.373,0,0,0-.3.1.84.84,0,0,0-.4.7.765.765,0,0,0,.2.5.778.778,0,0,0,.505.2H502.7a1.269,1.269,0,0,0,2.019,0h2.02a.793.793,0,0,0,.808-.8.6.6,0,0,0-.1-.4l-.3-.3c-.1-.1-.2-.1-.4-.1h-6.06Z" transform="translate(-6593.878 -4879)"/>
      <path id="Path_1491603" data-name="Path 1491603" d="M504.722,185.1H502.7a3.346,3.346,0,0,1-3.333-3.3,3.151,3.151,0,0,1,.909-2.3,3.3,3.3,0,0,1,2.322-1h2.021a3.346,3.346,0,0,1,3.332,3.3,3.154,3.154,0,0,1-.908,2.3,3.243,3.243,0,0,1-2.323,1m-2.02-4a.776.776,0,0,0-.505.2.76.76,0,0,0-.2.5.793.793,0,0,0,.808.8h2.019a.781.781,0,0,0,.506-.2.759.759,0,0,0,.2-.5.792.792,0,0,0-.807-.8Z" transform="translate(-6593.878 -4879)"/>
    </g>
  </g>
</svg>
