<svg xmlns="http://www.w3.org/2000/svg" xmlns:xlink="http://www.w3.org/1999/xlink" width="98" height="97.998" viewBox="0 0 98 97.998">
  <defs>
    <linearGradient id="linear-gradient" x1="0.5" x2="0.5" y2="1.267" gradientUnits="objectBoundingBox">
      <stop offset="0" stop-color="#ff9f8a"/>
      <stop offset="1" stop-color="#c946b0"/>
    </linearGradient>
  </defs>
  <g id="Group_1271694" data-name="Group 1271694" transform="translate(-802.781 -1967)">
    <g id="Group_1204180" data-name="Group 1204180" transform="translate(-1 -5.016)">
      <g id="Group_1204143" data-name="Group 1204143" transform="translate(-67.331 1694.852)">
        <g id="Group_1188789" data-name="Group 1188789" transform="translate(871.113 277.164)">
          <path id="Path_1243039" data-name="Path 1243039" d="M41.05,0h0a41.05,41.05,0,0,1,0,82.1h0a41.05,41.05,0,0,1,0-82.1Z" transform="translate(7.951 7.949)" fill="url(#linear-gradient)"/>
          <rect id="Rectangle_400907" data-name="Rectangle 400907" width="88.438" height="88.437" rx="44.218" transform="translate(4.782 4.781)" fill="none"/>
          <g id="Group_1098742" data-name="Group 1098742" transform="translate(0)">
            <g id="Rectangle_400898" data-name="Rectangle 400898" transform="translate(0)" fill="none" stroke="#fff" stroke-width="2" opacity="0.859">
              <rect width="98" height="97.999" rx="48.999" stroke="none"/>
              <rect x="1" y="1" width="96" height="95.999" rx="47.999" fill="none"/>
            </g>
            <g id="Rectangle_400907-2" data-name="Rectangle 400907" transform="translate(0)" fill="none" stroke="#0f1f33" stroke-linecap="round" stroke-width="2">
              <rect width="98" height="97.999" rx="48.999" stroke="none"/>
              <rect x="1" y="1" width="96" height="95.999" rx="47.999" fill="none"/>
            </g>
          </g>
        </g>
      </g>
    </g>
    <g id="Group_1272421" data-name="Group 1272421" transform="translate(2828.743 -7535.88)">
      <path id="Path_1491705" data-name="Path 1491705" d="M586.863,55.749V13.929H563.63v41.82" transform="translate(-2552.208 9522.896)" fill="#2a4356"/>
      <rect id="Rectangle_426941" data-name="Rectangle 426941" width="4.646" height="4.647" transform="translate(-1979.284 9542.586)" fill="#bf8926"/>
      <rect id="Rectangle_426942" data-name="Rectangle 426942" width="4.647" height="4.647" transform="translate(-1983.931 9547.233)" fill="#bf8926"/>
      <rect id="Rectangle_426943" data-name="Rectangle 426943" width="4.647" height="4.647" transform="translate(-1974.638 9547.233)" fill="#bf8926"/>
      <rect id="Rectangle_426944" data-name="Rectangle 426944" width="4.646" height="4.647" transform="translate(-1979.284 9551.88)" fill="#bf8926"/>
      <rect id="Rectangle_426945" data-name="Rectangle 426945" width="4.647" height="4.647" transform="translate(-1974.638 9556.526)" fill="#bf8926"/>
      <rect id="Rectangle_426946" data-name="Rectangle 426946" width="4.647" height="4.647" transform="translate(-1983.931 9556.526)" fill="#bf8926"/>
      <rect id="Rectangle_426947" data-name="Rectangle 426947" width="4.646" height="4.646" transform="translate(-1979.284 9561.174)" fill="#bf8926"/>
      <rect id="Rectangle_426948" data-name="Rectangle 426948" width="4.647" height="4.646" transform="translate(-1974.638 9561.174)" fill="#ffb733"/>
      <rect id="Rectangle_426949" data-name="Rectangle 426949" width="4.647" height="4.646" transform="translate(-1983.931 9561.174)" fill="#ffb733"/>
      <rect id="Rectangle_426950" data-name="Rectangle 426950" width="4.646" height="4.647" transform="translate(-1979.284 9556.526)" fill="#ffb733"/>
      <rect id="Rectangle_426951" data-name="Rectangle 426951" width="4.647" height="4.647" transform="translate(-1983.931 9551.88)" fill="#ffb733"/>
      <rect id="Rectangle_426952" data-name="Rectangle 426952" width="4.647" height="4.647" transform="translate(-1974.638 9551.88)" fill="#ffb733"/>
      <rect id="Rectangle_426953" data-name="Rectangle 426953" width="4.647" height="4.647" transform="translate(-1974.638 9542.586)" fill="#ffb733"/>
      <rect id="Rectangle_426954" data-name="Rectangle 426954" width="4.646" height="4.647" transform="translate(-1979.284 9547.233)" fill="#ffb733"/>
      <rect id="Rectangle_426955" data-name="Rectangle 426955" width="4.647" height="4.647" transform="translate(-1983.931 9542.586)" fill="#ffb733"/>
      <rect id="Rectangle_426956" data-name="Rectangle 426956" width="4.647" height="5.855" transform="translate(-1976.961 9572.79)" fill="#bf8926"/>
      <rect id="Rectangle_426957" data-name="Rectangle 426957" width="4.646" height="5.855" transform="translate(-1981.608 9572.79)" fill="#ffb733"/>
      <path id="Path_1491706" data-name="Path 1491706" d="M549.8,1.312V54.749h12.732V12.928h6.97V1.312Z" transform="translate(-2551.112 9523.896)" fill="#06acb2"/>
      <path id="Path_1491707" data-name="Path 1491707" d="M581.294,1.312V12.928h6.97v41.82h12.825V1.312Z" transform="translate(-2553.608 9523.896)" fill="#06acb2"/>
      <rect id="Rectangle_426958" data-name="Rectangle 426958" width="8.178" height="2.323" transform="translate(-1963.021 9565.819)"/>
      <rect id="Rectangle_426959" data-name="Rectangle 426959" width="8.178" height="2.323" transform="translate(-1963.021 9562.381)"/>
      <rect id="Rectangle_426960" data-name="Rectangle 426960" width="8.178" height="2.323" transform="translate(-1963.021 9558.851)"/>
      <rect id="Rectangle_426961" data-name="Rectangle 426961" width="8.178" height="2.323" transform="translate(-1963.021 9555.411)"/>
      <rect id="Rectangle_426962" data-name="Rectangle 426962" width="8.178" height="2.323" transform="translate(-1963.021 9551.88)"/>
      <rect id="Rectangle_426963" data-name="Rectangle 426963" width="8.178" height="2.323" transform="translate(-1963.021 9548.44)"/>
      <rect id="Rectangle_426964" data-name="Rectangle 426964" width="8.178" height="2.323" transform="translate(-1963.021 9544.91)"/>
      <rect id="Rectangle_426965" data-name="Rectangle 426965" width="8.178" height="2.323" transform="translate(-1963.021 9541.472)"/>
      <rect id="Rectangle_426966" data-name="Rectangle 426966" width="8.178" height="2.323" transform="translate(-1963.021 9537.939)"/>
      <rect id="Rectangle_426967" data-name="Rectangle 426967" width="8.178" height="2.323" transform="translate(-1963.021 9534.501)"/>
      <rect id="Rectangle_426968" data-name="Rectangle 426968" width="15.148" height="2.322" transform="translate(-1969.991 9530.97)"/>
      <rect id="Rectangle_426969" data-name="Rectangle 426969" width="15.148" height="2.323" transform="translate(-1969.991 9527.531)"/>
      <rect id="Rectangle_426970" data-name="Rectangle 426970" width="15.149" height="2.322" transform="translate(-1998.987 9530.97)"/>
      <rect id="Rectangle_426971" data-name="Rectangle 426971" width="15.149" height="2.323" transform="translate(-1998.987 9527.531)"/>
      <rect id="Rectangle_426972" data-name="Rectangle 426972" width="8.178" height="2.323" transform="translate(-1998.987 9565.819)"/>
      <rect id="Rectangle_426973" data-name="Rectangle 426973" width="8.178" height="2.323" transform="translate(-1998.987 9562.381)"/>
      <rect id="Rectangle_426974" data-name="Rectangle 426974" width="8.178" height="2.323" transform="translate(-1998.987 9558.851)"/>
      <rect id="Rectangle_426975" data-name="Rectangle 426975" width="8.178" height="2.323" transform="translate(-1998.987 9555.411)"/>
      <rect id="Rectangle_426976" data-name="Rectangle 426976" width="8.178" height="2.323" transform="translate(-1998.987 9551.88)"/>
      <rect id="Rectangle_426977" data-name="Rectangle 426977" width="8.178" height="2.323" transform="translate(-1998.987 9548.44)"/>
      <rect id="Rectangle_426978" data-name="Rectangle 426978" width="8.178" height="2.323" transform="translate(-1998.987 9544.91)"/>
      <rect id="Rectangle_426979" data-name="Rectangle 426979" width="8.178" height="2.323" transform="translate(-1998.987 9541.472)"/>
      <rect id="Rectangle_426980" data-name="Rectangle 426980" width="8.178" height="2.323" transform="translate(-1998.987 9537.939)"/>
      <rect id="Rectangle_426981" data-name="Rectangle 426981" width="8.178" height="2.323" transform="translate(-1998.987 9534.501)"/>
      <path id="Path_1491708" data-name="Path 1491708" d="M580.39,14.932H571.1a1.208,1.208,0,1,1,0-2.416h9.293a1.208,1.208,0,0,1,0,2.416" transform="translate(-2552.704 9523.008)"/>
      <path id="Path_1491709" data-name="Path 1491709" d="M570.5,60.353h-6.97a1.208,1.208,0,1,1,0-2.416h6.97a1.208,1.208,0,1,1,0,2.416" transform="translate(-2552.104 9519.407)"/>
      <path id="Path_1491710" data-name="Path 1491710" d="M588.159,60.353h-6.97a1.208,1.208,0,1,1,0-2.416h6.97a1.208,1.208,0,1,1,0,2.416" transform="translate(-2553.504 9519.407)"/>
      <path id="Path_1491711" data-name="Path 1491711" d="M568.573,46.648a1.229,1.229,0,0,1-1.208-1.208V17.559a1.208,1.208,0,0,1,2.416,0V45.44a1.23,1.23,0,0,1-1.208,1.208" transform="translate(-2552.504 9522.704)"/>
      <path id="Path_1491712" data-name="Path 1491712" d="M573.62,46.648a1.229,1.229,0,0,1-1.208-1.208V17.559a1.208,1.208,0,0,1,2.416,0V45.44a1.23,1.23,0,0,1-1.208,1.208" transform="translate(-2552.904 9522.704)"/>
      <path id="Path_1491713" data-name="Path 1491713" d="M578.666,46.648a1.229,1.229,0,0,1-1.208-1.208V17.559a1.208,1.208,0,0,1,2.416,0V45.44a1.229,1.229,0,0,1-1.208,1.208" transform="translate(-2553.304 9522.704)"/>
      <path id="Path_1491714" data-name="Path 1491714" d="M583.713,46.648a1.229,1.229,0,0,1-1.208-1.208V17.559a1.208,1.208,0,0,1,2.416,0V45.44a1.23,1.23,0,0,1-1.208,1.208" transform="translate(-2553.704 9522.704)"/>
      <path id="Path_1491715" data-name="Path 1491715" d="M583.625,21.291H567.361a1.208,1.208,0,0,1,0-2.417h16.264a1.231,1.231,0,0,1,1.208,1.209,1.378,1.378,0,0,1-1.208,1.208" transform="translate(-2552.408 9522.504)"/>
      <path id="Path_1491716" data-name="Path 1491716" d="M583.625,26.338H567.361a1.208,1.208,0,0,1,0-2.417h16.264a1.23,1.23,0,0,1,1.208,1.209,1.378,1.378,0,0,1-1.208,1.208" transform="translate(-2552.408 9522.104)"/>
      <path id="Path_1491717" data-name="Path 1491717" d="M583.625,31.384H567.361a1.208,1.208,0,1,1,0-2.416h16.264a1.231,1.231,0,0,1,1.208,1.209,1.378,1.378,0,0,1-1.208,1.207" transform="translate(-2552.408 9521.704)"/>
      <path id="Path_1491718" data-name="Path 1491718" d="M583.625,36.431H567.361a1.208,1.208,0,1,1,0-2.416h16.264a1.23,1.23,0,0,1,1.208,1.209,1.3,1.3,0,0,1-1.208,1.207" transform="translate(-2552.408 9521.304)"/>
      <path id="Path_1491719" data-name="Path 1491719" d="M583.625,41.478H567.361a1.208,1.208,0,1,1,0-2.416h16.264a1.23,1.23,0,0,1,1.208,1.208,1.3,1.3,0,0,1-1.208,1.208" transform="translate(-2552.408 9520.903)"/>
      <path id="Path_1491720" data-name="Path 1491720" d="M583.625,46.524H567.361a1.208,1.208,0,1,1,0-2.416h16.264a1.23,1.23,0,0,1,1.208,1.208,1.378,1.378,0,0,1-1.208,1.208" transform="translate(-2552.408 9520.504)"/>
      <path id="Path_1491721" data-name="Path 1491721" d="M600.985,55.759H588.16a1.23,1.23,0,0,1-1.209-1.208V13.94H581.19a1.23,1.23,0,0,1-1.208-1.208V1.207A1.229,1.229,0,0,1,581.19,0h19.795a1.23,1.23,0,0,1,1.208,1.207V54.644a1.378,1.378,0,0,1-1.208,1.115m-11.617-2.323h10.409V2.323H582.4v9.293h5.855a1.231,1.231,0,0,1,1.208,1.209V53.436Z" transform="translate(-2553.504 9524)"/>
      <path id="Path_1491722" data-name="Path 1491722" d="M562.43,55.759H549.7a1.229,1.229,0,0,1-1.208-1.208V1.207A1.229,1.229,0,0,1,549.7,0h19.7a1.23,1.23,0,0,1,1.208,1.207V12.825a1.23,1.23,0,0,1-1.208,1.208h-5.855v40.7c.093.465-.465,1.022-1.115,1.022m-11.617-2.323h10.5V12.825a1.23,1.23,0,0,1,1.208-1.209h5.855V2.323H550.813Z" transform="translate(-2551.008 9524)"/>
      <path id="Path_1491723" data-name="Path 1491723" d="M580.39,59.848H571.1a1.23,1.23,0,0,1-1.208-1.208V52.785a1.23,1.23,0,0,1,1.208-1.208h9.294a1.229,1.229,0,0,1,1.207,1.208V58.64a1.229,1.229,0,0,1-1.207,1.208M572.3,57.525h6.97V53.993H572.3Z" transform="translate(-2552.704 9519.911)"/>
      <path id="Path_1491724" data-name="Path 1491724" d="M576.143,59.849a1.229,1.229,0,0,1-1.208-1.208V52.786a1.208,1.208,0,0,1,2.416,0v5.855a1.229,1.229,0,0,1-1.208,1.208" transform="translate(-2553.104 9519.911)"/>
      <path id="Path_1491725" data-name="Path 1491725" d="M601.984,56.618h-8.178a1.208,1.208,0,0,1,0-2.417h8.178a1.23,1.23,0,0,1,1.208,1.209,1.379,1.379,0,0,1-1.208,1.208" transform="translate(-2554.504 9519.703)"/>
      <path id="Path_1491726" data-name="Path 1491726" d="M557.775,56.618H549.6a1.208,1.208,0,0,1,0-2.417h8.178a1.208,1.208,0,0,1,0,2.417" transform="translate(-2551 9519.703)"/>
      <path id="Path_1491727" data-name="Path 1491727" d="M576.143,14.428a1.229,1.229,0,0,1-1.208-1.208V7.365a1.208,1.208,0,0,1,2.416,0V13.22a1.229,1.229,0,0,1-1.208,1.208" transform="translate(-2553.104 9523.512)"/>
    </g>
  </g>
</svg>
