<svg xmlns="http://www.w3.org/2000/svg" xmlns:xlink="http://www.w3.org/1999/xlink" width="98" height="97.998" viewBox="0 0 98 97.998">
  <defs>
    <linearGradient id="linear-gradient" x1="0.5" x2="0.5" y2="1.267" gradientUnits="objectBoundingBox">
      <stop offset="0" stop-color="#ff9f8a"/>
      <stop offset="1" stop-color="#c946b0"/>
    </linearGradient>
  </defs>
  <g id="Group_1271693" data-name="Group 1271693" transform="translate(-802.781 -1967)">
    <g id="Group_1204180" data-name="Group 1204180" transform="translate(-1 -5.016)">
      <g id="Group_1204143" data-name="Group 1204143" transform="translate(-67.331 1694.852)">
        <g id="Group_1188789" data-name="Group 1188789" transform="translate(871.113 277.164)">
          <path id="Path_1243039" data-name="Path 1243039" d="M41.05,0h0a41.05,41.05,0,0,1,0,82.1h0a41.05,41.05,0,0,1,0-82.1Z" transform="translate(7.951 7.949)" fill="url(#linear-gradient)"/>
          <rect id="Rectangle_400907" data-name="Rectangle 400907" width="88.438" height="88.437" rx="44.218" transform="translate(4.782 4.781)" fill="none"/>
          <g id="Group_1098742" data-name="Group 1098742" transform="translate(0)">
            <g id="Rectangle_400898" data-name="Rectangle 400898" transform="translate(0)" fill="none" stroke="#fff" stroke-width="2" opacity="0.859">
              <rect width="98" height="97.999" rx="48.999" stroke="none"/>
              <rect x="1" y="1" width="96" height="95.999" rx="47.999" fill="none"/>
            </g>
            <g id="Rectangle_400907-2" data-name="Rectangle 400907" transform="translate(0)" fill="none" stroke="#0f1f33" stroke-linecap="round" stroke-width="2">
              <rect width="98" height="97.999" rx="48.999" stroke="none"/>
              <rect x="1" y="1" width="96" height="95.999" rx="47.999" fill="none"/>
            </g>
          </g>
        </g>
      </g>
    </g>
    <g id="Group_1272420" data-name="Group 1272420" transform="translate(2971.282 -7542.813)">
      <rect id="Rectangle_426935" data-name="Rectangle 426935" width="5.022" height="12.552" transform="translate(-2108.815 9527.282)" fill="#74d24f"/>
      <rect id="Rectangle_426936" data-name="Rectangle 426936" width="5.02" height="12.552" transform="translate(-2103.793 9527.282)" fill="#06acb2"/>
      <rect id="Rectangle_426937" data-name="Rectangle 426937" width="5.02" height="12.552" transform="translate(-2113.835 9527.282)" fill="#2a4356"/>
      <path id="Path_1491678" data-name="Path 1491678" d="M453.533,28.387V32.1H442.185V28.387Z" transform="translate(-2551 9524)" fill="#bf522c"/>
      <path id="Path_1491679" data-name="Path 1491679" d="M449.717,32.1v3.816H438.471V32.1h11.246Z" transform="translate(-2551 9524)" fill="#ff6d3b"/>
      <path id="Path_1491680" data-name="Path 1491680" d="M419.09,32.1l.5,3.816h-3.816l.5-3.816.6-4.419a.8.8,0,0,1,1.3-.4c.1.1.2.3.3.4Z" transform="translate(-2551 9524)" fill="#5d5d5d"/>
      <path id="Path_1491681" data-name="Path 1491681" d="M427.424,17.04H409.248a2.228,2.228,0,0,0-2.209,2.209V29.994a2.229,2.229,0,0,0,2.209,2.21h7.13l.6-4.419a.8.8,0,0,1,1.305-.4c.1.1.2.3.3.4l.6,4.419h8.335a2.23,2.23,0,0,0,2.209-2.21V19.249a2.39,2.39,0,0,0-2.31-2.209" transform="translate(-2551 9524)" fill="#bec3c7"/>
      <rect id="Rectangle_426938" data-name="Rectangle 426938" width="21.389" height="7.531" transform="translate(-2122.571 9573.676)" fill="#ffb733"/>
      <rect id="Rectangle_426939" data-name="Rectangle 426939" width="21.389" height="7.531" transform="translate(-2122.571 9566.145)" fill="#bf8926"/>
      <path id="Path_1491682" data-name="Path 1491682" d="M409.55,49.676V61.023h-5.021V42.145h5.021Z" transform="translate(-2551 9524)" fill="#bf8926"/>
      <path id="Path_1491683" data-name="Path 1491683" d="M454.738,42.145V61.023h-5.021V42.145Z" transform="translate(-2551 9524)" fill="#bf8926"/>
      <path id="Path_1491684" data-name="Path 1491684" d="M458.554,35.919v6.226h-57.74V35.919h57.74Z" transform="translate(-2551 9524)" fill="#ffb733"/>
      <path id="Path_1491685" data-name="Path 1491685" d="M418.587,22.462a1.273,1.273,0,0,1,.4.9,1.329,1.329,0,0,1-1.306,1.305,1.093,1.093,0,0,1-.9-.4,1.5,1.5,0,0,1-.4-.9.979.979,0,0,1,.4-.9,1.277,1.277,0,0,1,.9-.4.98.98,0,0,1,.9.4" transform="translate(-2551 9524)"/>
      <path id="Path_1491686" data-name="Path 1491686" d="M438.471,37.124H419.592a1.306,1.306,0,1,1,0-2.611h18.879a1.33,1.33,0,0,1,1.3,1.305,1.4,1.4,0,0,1-1.3,1.306" transform="translate(-2551 9524)"/>
      <path id="Path_1491687" data-name="Path 1491687" d="M404.529,43.45h-3.816a1.329,1.329,0,0,1-1.305-1.305V35.818a1.329,1.329,0,0,1,1.305-1.305h15.063a1.329,1.329,0,0,1,1.3,1.305,1.315,1.315,0,0,1-1.2,1.306H402.019V40.94h2.51a1.329,1.329,0,0,1,1.306,1.305,1.246,1.246,0,0,1-1.306,1.205" transform="translate(-2551 9524)"/>
      <path id="Path_1491688" data-name="Path 1491688" d="M428.429,43.45H409.55a1.306,1.306,0,0,1,0-2.611h18.879a1.33,1.33,0,0,1,1.306,1.306,1.4,1.4,0,0,1-1.306,1.305" transform="translate(-2551 9524)"/>
      <path id="Path_1491689" data-name="Path 1491689" d="M458.554,43.45h-3.815a1.306,1.306,0,1,1,0-2.611h2.51V37.124h-7.532a1.306,1.306,0,0,1,0-2.611h8.837a1.33,1.33,0,0,1,1.306,1.305v6.327a1.491,1.491,0,0,1-1.306,1.305" transform="translate(-2551 9524)"/>
      <path id="Path_1491690" data-name="Path 1491690" d="M409.55,62.228h-5.021a1.329,1.329,0,0,1-1.3-1.305V42.144a1.329,1.329,0,0,1,1.3-1.306h5.021a1.329,1.329,0,0,1,1.305,1.306V61.023a1.315,1.315,0,0,1-1.305,1.205m-3.715-2.511h2.51V43.449h-2.51Z" transform="translate(-2551 9524)"/>
      <path id="Path_1491691" data-name="Path 1491691" d="M454.738,62.228h-5.021a1.329,1.329,0,0,1-1.305-1.305V57.207a1.305,1.305,0,0,1,2.61,0v2.511h2.511V43.45h-3.816a1.306,1.306,0,0,1,0-2.611h5.021a1.329,1.329,0,0,1,1.306,1.306V61.023a1.316,1.316,0,0,1-1.306,1.205" transform="translate(-2551 9524)"/>
      <path id="Path_1491692" data-name="Path 1491692" d="M449.717,50.981a1.329,1.329,0,0,1-1.305-1.305V43.35H429.634v6.326a1.305,1.305,0,0,1-2.611,0V42.145a1.329,1.329,0,0,1,1.3-1.306h21.389a1.329,1.329,0,0,1,1.306,1.306v7.531a1.329,1.329,0,0,1-1.306,1.305" transform="translate(-2551 9524)"/>
      <path id="Path_1491693" data-name="Path 1491693" d="M449.717,58.512H428.429a1.329,1.329,0,0,1-1.306-1.305V49.675a1.329,1.329,0,0,1,1.306-1.305h21.288a1.328,1.328,0,0,1,1.3,1.305v7.532a1.328,1.328,0,0,1-1.3,1.305M429.634,56h18.878V50.981H429.634Z" transform="translate(-2551 9524)"/>
      <path id="Path_1491694" data-name="Path 1491694" d="M439.676,54.7H438.37a1.306,1.306,0,0,1,0-2.611h1.306a1.306,1.306,0,0,1,0,2.611" transform="translate(-2551 9524)"/>
      <path id="Path_1491695" data-name="Path 1491695" d="M439.676,47.165H438.37a1.305,1.305,0,0,1,0-2.61h1.306a1.305,1.305,0,0,1,0,2.61" transform="translate(-2551 9524)"/>
      <path id="Path_1491696" data-name="Path 1491696" d="M428.429,50.981H409.55a1.305,1.305,0,0,1,0-2.61h18.879a1.329,1.329,0,0,1,1.306,1.305,1.49,1.49,0,0,1-1.306,1.305" transform="translate(-2551 9524)"/>
      <path id="Path_1491697" data-name="Path 1491697" d="M427.424,33.408H419.09a1.306,1.306,0,1,1,0-2.611h8.334a.9.9,0,0,0,.9-.9V19.249a.9.9,0,0,0-.9-.9H409.248a.9.9,0,0,0-.9.9V29.993a.9.9,0,0,0,.9.9h7.13a1.306,1.306,0,0,1,0,2.611h-7.13a3.386,3.386,0,0,1-3.414-3.414V19.249a3.386,3.386,0,0,1,3.414-3.414h18.277a3.385,3.385,0,0,1,3.413,3.414V29.993a3.539,3.539,0,0,1-3.514,3.415" transform="translate(-2551 9524)"/>
      <path id="Path_1491698" data-name="Path 1491698" d="M419.592,37.124h-3.816a1.271,1.271,0,0,1-.9-.4,1.5,1.5,0,0,1-.3-1l1.1-8.134v-.2a2.139,2.139,0,0,1,2.008-1.506,2.02,2.02,0,0,1,1.306.4,1.65,1.65,0,0,1,.7,1.1v.2l1.105,8.134v.2a1.159,1.159,0,0,1-1.2,1.205m-2.31-2.511h.9l-.4-3.414Z" transform="translate(-2551 9524)"/>
      <path id="Path_1491699" data-name="Path 1491699" d="M449.717,37.124H438.471a1.33,1.33,0,0,1-1.306-1.306V32.1a1.33,1.33,0,0,1,1.306-1.306h3.815a1.306,1.306,0,0,1,0,2.612h-2.61v1.305h8.836V32.1a1.305,1.305,0,1,1,2.611,0v3.816a1.5,1.5,0,0,1-1.406,1.205" transform="translate(-2551 9524)"/>
      <path id="Path_1491700" data-name="Path 1491700" d="M453.533,33.408H442.185a1.328,1.328,0,0,1-1.3-1.306V28.286a1.328,1.328,0,0,1,1.3-1.3h11.348a1.33,1.33,0,0,1,1.306,1.3V32.1a1.491,1.491,0,0,1-1.306,1.306M443.491,30.9h8.837V29.592h-8.837Z" transform="translate(-2551 9524)"/>
      <path id="Path_1491701" data-name="Path 1491701" d="M437.165,17.04a1.329,1.329,0,0,1-1.306-1.305V3.283a1.33,1.33,0,0,1,1.306-1.306h5.02a1.329,1.329,0,0,1,1.306,1.306,1.329,1.329,0,0,1-1.306,1.3H438.37V15.936c.1.5-.5,1.1-1.2,1.1" transform="translate(-2551 9524)"/>
      <path id="Path_1491702" data-name="Path 1491702" d="M442.185,17.04a1.328,1.328,0,0,1-1.3-1.305V3.283a1.329,1.329,0,0,1,1.3-1.306h5.022a1.329,1.329,0,0,1,1.3,1.306,1.328,1.328,0,0,1-1.3,1.3H443.39V15.936c.1.5-.5,1.1-1.205,1.1" transform="translate(-2551 9524)"/>
      <path id="Path_1491703" data-name="Path 1491703" d="M452.228,17.04a1.33,1.33,0,0,1-1.307-1.305V4.488h-2.508V15.835a1.306,1.306,0,1,1-2.612,0V3.283a1.33,1.33,0,0,1,1.306-1.306h5.019a1.329,1.329,0,0,1,1.306,1.306V15.835a1.156,1.156,0,0,1-1.2,1.205" transform="translate(-2551 9524)"/>
      <path id="Path_1491704" data-name="Path 1491704" d="M456.044,20.856a1.329,1.329,0,0,1-1.306-1.305V17.04H434.654a1.306,1.306,0,0,1,0-2.611h21.39a1.33,1.33,0,0,1,1.3,1.306v3.816a1.488,1.488,0,0,1-1.3,1.305" transform="translate(-2551 9524)"/>
    </g>
  </g>
</svg>
