<svg xmlns="http://www.w3.org/2000/svg" xmlns:xlink="http://www.w3.org/1999/xlink" width="98" height="97.998" viewBox="0 0 98 97.998">
  <defs>
    <linearGradient id="linear-gradient" x1="0.5" x2="0.5" y2="1.267" gradientUnits="objectBoundingBox">
      <stop offset="0" stop-color="#ff9f8a"/>
      <stop offset="1" stop-color="#c946b0"/>
    </linearGradient>
  </defs>
  <g id="Group_1272003" data-name="Group 1272003" transform="translate(-802.781 -1967)">
    <g id="Group_1204180" data-name="Group 1204180" transform="translate(-1 -5.016)">
      <g id="Group_1204143" data-name="Group 1204143" transform="translate(-67.331 1694.852)">
        <g id="Group_1188789" data-name="Group 1188789" transform="translate(871.113 277.164)">
          <path id="Path_1243039" data-name="Path 1243039" d="M41.05,0h0a41.05,41.05,0,0,1,0,82.1h0a41.05,41.05,0,0,1,0-82.1Z" transform="translate(7.951 7.949)" fill="url(#linear-gradient)"/>
          <rect id="Rectangle_400907" data-name="Rectangle 400907" width="88.438" height="88.437" rx="44.218" transform="translate(4.782 4.781)" fill="none"/>
          <g id="Group_1098742" data-name="Group 1098742" transform="translate(0)">
            <g id="Rectangle_400898" data-name="Rectangle 400898" transform="translate(0)" fill="none" stroke="#fff" stroke-width="2" opacity="0.859">
              <rect width="98" height="97.999" rx="48.999" stroke="none"/>
              <rect x="1" y="1" width="96" height="95.999" rx="47.999" fill="none"/>
            </g>
            <g id="Rectangle_400907-2" data-name="Rectangle 400907" transform="translate(0)" fill="none" stroke="#0f1f33" stroke-linecap="round" stroke-width="2">
              <rect width="98" height="97.999" rx="48.999" stroke="none"/>
              <rect x="1" y="1" width="96" height="95.999" rx="47.999" fill="none"/>
            </g>
          </g>
        </g>
      </g>
    </g>
    <g id="Group_1272417" data-name="Group 1272417" transform="translate(3254.142 -7542.061)">
      <path id="Path_1491781" data-name="Path 1491781" d="M154.079,6.334a.792.792,0,0,1,1.109.908l-2.319,8.368h-9.477l-2.319-8.368a.792.792,0,0,1,1.109-.908l2.924,1.513a.951.951,0,0,0,.907-.1l1.613-1.614a.792.792,0,0,1,1.109,0l1.614,1.614a.752.752,0,0,0,.907.1Z" transform="translate(-2551 9524)" fill="#414a56"/>
      <path id="Path_1491782" data-name="Path 1491782" d="M153.171,20.651s3.629-1.109,3.629-2.42v-.1a2.5,2.5,0,0,0-2.52-2.521h-12.7a2.5,2.5,0,0,0-2.52,2.521v.1c0,1.311,3.125,2.42,3.125,2.42-11.9,6.15-13.107,20.87-12.3,31.053A11.509,11.509,0,0,0,141.274,62.29h14.619A11.575,11.575,0,0,0,167.387,50.7c0-15.728-6.856-28.633-14.216-30.045" transform="translate(-2551 9524)" fill="#a28671"/>
      <rect id="Rectangle_426984" data-name="Rectangle 426984" width="2.52" height="2.52" transform="translate(-2399.14 9564.815)"/>
      <path id="Path_1491783" data-name="Path 1491783" d="M151.255,43.436a2.182,2.182,0,0,1,.2,1.21,2.924,2.924,0,0,1-2.722,2.823v1.613h-1.513V47.57a5.035,5.035,0,0,1-2.621-.706l.5-1.815a5.026,5.026,0,0,0,2.621.706c.908,0,1.513-.3,1.513-1.008,0-.605-.5-1.008-1.613-1.311-1.614-.6-2.824-1.311-2.824-2.823a2.82,2.82,0,0,1,2.622-2.722V36.378h1.512V37.79a5.535,5.535,0,0,1,2.218.5l-.4,1.714a4.745,4.745,0,0,0-2.218-.5c-1.008,0-1.311.4-1.311.908s.5.806,1.815,1.31a3.661,3.661,0,0,1,2.218,1.714" transform="translate(-2551 9524)"/>
      <rect id="Rectangle_426985" data-name="Rectangle 426985" width="2.521" height="2.52" transform="translate(-2409.222 9564.815)"/>
      <path id="Path_1491784" data-name="Path 1491784" d="M148.029,53.418a1.31,1.31,0,1,1,0-2.621A8.133,8.133,0,0,0,156.2,42.63a1.311,1.311,0,1,1,2.621,0,10.8,10.8,0,0,1-10.788,10.788" transform="translate(-2551 9524)"/>
      <path id="Path_1491785" data-name="Path 1491785" d="M141.677,50.9a1.144,1.144,0,0,1-.806-.3,10.525,10.525,0,0,1-3.428-7.864A10.692,10.692,0,0,1,148.13,32.043a10.565,10.565,0,0,1,7.259,2.823,1.285,1.285,0,0,1-1.714,1.916,8.221,8.221,0,0,0-5.545-2.218,8.2,8.2,0,0,0-5.545,14.216,1.383,1.383,0,0,1,.1,1.814,2.247,2.247,0,0,1-1.008.3" transform="translate(-2551 9524)"/>
      <path id="Path_1491786" data-name="Path 1491786" d="M156.1,63.5H141.476a13.115,13.115,0,0,1-8.671-3.327,12.707,12.707,0,0,1-4.033-8.368,50.029,50.029,0,0,1,1.411-17.442c1.815-6.05,4.941-10.587,9.478-13.511a3.164,3.164,0,0,1-1.714-2.52v-.1a3.829,3.829,0,0,1,3.831-3.831h1.613a1.311,1.311,0,1,1,0,2.621h-1.613a1.335,1.335,0,0,0-1.31,1.311v.1a7.224,7.224,0,0,0,2.217,1.311,1.327,1.327,0,0,1,.908,1.209,1.24,1.24,0,0,1-.706,1.109c-11.09,5.646-12.4,19.358-11.594,29.843a10.217,10.217,0,0,0,10.183,9.377H156.1a10.31,10.31,0,0,0,7.259-3.024A9.806,9.806,0,0,0,166.278,51c-.1-15.93-6.957-27.827-13.308-29.137a1.2,1.2,0,0,1-1.009-1.21,1.3,1.3,0,0,1,.907-1.311,6.8,6.8,0,0,0,2.723-1.311,1.25,1.25,0,0,0-1.311-1.209h-1.613a1.32,1.32,0,0,1-1.311-1.21,1.335,1.335,0,0,1,1.311-1.311h1.613a3.809,3.809,0,0,1,3.831,3.73v.1a2.83,2.83,0,0,1-1.613,2.319c2.823,1.613,5.545,4.839,7.662,9.175A47.874,47.874,0,0,1,168.7,50.6a12.733,12.733,0,0,1-3.731,9.074A11.982,11.982,0,0,1,156.1,63.5" transform="translate(-2551 9524)"/>
      <path id="Path_1491787" data-name="Path 1491787" d="M152.768,16.921h-9.477a1.211,1.211,0,0,1-1.21-.908l-2.319-8.368a1.952,1.952,0,0,1,.3-1.815,2.1,2.1,0,0,1,1.612-.806,2.941,2.941,0,0,1,.908.2l2.621,1.311,1.311-1.311a1.949,1.949,0,0,1,2.823,0l1.311,1.311,2.621-1.311a2.935,2.935,0,0,1,.908-.2,2.107,2.107,0,0,1,1.613.806,1.907,1.907,0,0,1,.3,1.815l-2.117,8.368a1.211,1.211,0,0,1-1.21.908M144.3,14.4h7.562l1.814-6.453-2.016,1.009a2.964,2.964,0,0,1-.907.2,1.989,1.989,0,0,1-1.412-.6l-1.311-1.21-1.209,1.21a1.99,1.99,0,0,1-1.412.6,2.964,2.964,0,0,1-.907-.2l-2.017-1.009Z" transform="translate(-2551 9524)"/>
    </g>
  </g>
</svg>
