<svg xmlns="http://www.w3.org/2000/svg" xmlns:xlink="http://www.w3.org/1999/xlink" width="98" height="97.999" viewBox="0 0 98 97.999">
  <defs>
    <linearGradient id="linear-gradient" x1="0.5" x2="0.5" y2="1.267" gradientUnits="objectBoundingBox">
      <stop offset="0" stop-color="#ff9f8a"/>
      <stop offset="1" stop-color="#c946b0"/>
    </linearGradient>
  </defs>
  <g id="Group_1271789" data-name="Group 1271789" transform="translate(-802.781 -1967)">
    <g id="Group_1204180" data-name="Group 1204180" transform="translate(-1 -5.016)">
      <g id="Group_1204143" data-name="Group 1204143" transform="translate(-67.331 1694.852)">
        <g id="Group_1188789" data-name="Group 1188789" transform="translate(871.113 277.164)">
          <path id="Path_1243039" data-name="Path 1243039" d="M41.05,0h0a41.05,41.05,0,0,1,0,82.1h0a41.05,41.05,0,0,1,0-82.1Z" transform="translate(7.951 7.949)" fill="url(#linear-gradient)"/>
          <rect id="Rectangle_400907" data-name="Rectangle 400907" width="88.438" height="88.437" rx="44.218" transform="translate(4.782 4.781)" fill="none"/>
          <g id="Group_1098742" data-name="Group 1098742" transform="translate(0)">
            <g id="Rectangle_400898" data-name="Rectangle 400898" transform="translate(0)" fill="none" stroke="#fff" stroke-width="2" opacity="0.859">
              <rect width="98" height="97.999" rx="48.999" stroke="none"/>
              <rect x="1" y="1" width="96" height="95.999" rx="47.999" fill="none"/>
            </g>
            <g id="Rectangle_400907-2" data-name="Rectangle 400907" transform="translate(0)" fill="none" stroke="#0f1f33" stroke-linecap="round" stroke-width="2">
              <rect width="98" height="97.999" rx="48.999" stroke="none"/>
              <rect x="1" y="1" width="96" height="95.999" rx="47.999" fill="none"/>
            </g>
          </g>
        </g>
      </g>
    </g>
    <g id="Group_1272407" data-name="Group 1272407" transform="translate(6810.569 6850.839)">
      <path id="Path_1491644" data-name="Path 1491644" d="M640.086,46.683,642,48.9l-4.845,9.589-2.321-4.341Z" transform="translate(-6593.878 -4879)" fill="#1f3442"/>
      <path id="Path_1491645" data-name="Path 1491645" d="M629.387,46.683l5.451,7.469-2.524,4.341L627.571,48.9Z" transform="translate(-6593.878 -4879)" fill="#2f4a5f"/>
      <path id="Path_1491646" data-name="Path 1491646" d="M623.432,66.265h-5.854V52.538l7.671-2.624,2.322-1.01,4.743,9.589,2.524-4.34,2.321,4.34L642,48.9l9.791,3.634V66.265H623.432Z" transform="translate(-6593.878 -4879)" fill="#86dcfd"/>
      <path id="Path_1491647" data-name="Path 1491647" d="M615.964,28.818c2.522,0,4.541,2.321,4.541,5.147s-2.019,5.148-4.541,5.148-4.543-2.321-4.543-5.148c0-2.926,2.019-5.147,4.543-5.147" transform="translate(-6593.878 -4879)" fill="#ffd8a8"/>
      <path id="Path_1491648" data-name="Path 1491648" d="M653.511,28.818c2.523,0,4.542,2.321,4.542,5.147s-2.019,5.148-4.542,5.148-4.542-2.321-4.542-5.148,2.019-5.147,4.542-5.147" transform="translate(-6593.878 -4879)" fill="#ffd8a8"/>
      <path id="Path_1491649" data-name="Path 1491649" d="M626.158,30.332a12.361,12.361,0,0,1,.2-1.918,3.184,3.184,0,0,0,1.918.707h9.689a2.266,2.266,0,0,0,2.019-1.312l3.532,1.715v-.1a2.51,2.51,0,0,1,.1.808c0,4.845-3.129,13.525-8.781,13.525s-8.68-8.579-8.68-13.424" transform="translate(-6593.878 -4879)" fill="#ffd8a8"/>
      <path id="Path_1491650" data-name="Path 1491650" d="M643.619,27.1v2.523l-3.533-1.715a2.389,2.389,0,0,1-2.018,1.312h-9.69a3.441,3.441,0,0,1-1.918-.707,4.077,4.077,0,0,1-1.514-3.129V21.954h12.92a2.679,2.679,0,0,1,2.22,1.615c.1.1.1.2.2.4Z" transform="translate(-6593.878 -4879)" fill="#a28671"/>
      <path id="Path_1491651" data-name="Path 1491651" d="M652.3,51.427l-9.892-3.633a1.246,1.246,0,0,0-.908,2.321l9.084,3.332V65.053H618.89V53.447l6.762-2.424,2.423-.908a1.246,1.246,0,0,0-.908-2.321l-2.322.908-7.57,2.725a1.219,1.219,0,0,0-.808,1.212V66.365a1.321,1.321,0,0,0,1.212,1.312H651.9a1.336,1.336,0,0,0,1.312-1.312V52.537a1.315,1.315,0,0,0-.909-1.11" transform="translate(-6593.878 -4879)"/>
      <path id="Path_1491652" data-name="Path 1491652" d="M637.159,59.7a1.161,1.161,0,0,1-1.11-.6l-2.321-4.24a1.238,1.238,0,0,1,.1-1.311l5.248-7.47a1.242,1.242,0,0,1,1.009-.5,1.171,1.171,0,0,1,1.01.4l1.817,2.221a1.422,1.422,0,0,1,.2,1.413L638.27,59a1.243,1.243,0,0,1-1.111.706m-.908-5.45.808,1.514,3.33-6.662-.3-.3Z" transform="translate(-6593.878 -4879)"/>
      <path id="Path_1491653" data-name="Path 1491653" d="M632.315,59.7h0a1.242,1.242,0,0,1-1.11-.706l-4.744-9.488a1.24,1.24,0,0,1,.1-1.312l1.716-2.221a1.262,1.262,0,0,1,2.018,0l5.451,7.469a1.4,1.4,0,0,1,.1,1.413l-2.524,4.24a1.109,1.109,0,0,1-1.009.6m-3.23-10.6,3.331,6.662.908-1.514L629.287,48.8Z" transform="translate(-6593.878 -4879)"/>
      <path id="Path_1491654" data-name="Path 1491654" d="M634.939,45.069c-2.927,0-5.652-2.019-7.671-5.551a20.464,20.464,0,0,1-2.423-9.185,15.038,15.038,0,0,1,.2-2.12,1.287,1.287,0,0,1,2.524.5,8.687,8.687,0,0,0-.1,1.616,18.113,18.113,0,0,0,2.119,7.973c1.01,1.918,2.827,4.239,5.35,4.239s4.34-2.321,5.35-4.239a18.113,18.113,0,0,0,2.119-7.973,1.348,1.348,0,0,0-.1-.505,1.249,1.249,0,0,1,2.423-.606,5.067,5.067,0,0,1,.2,1.211,20.458,20.458,0,0,1-2.422,9.185c-1.918,3.432-4.542,5.451-7.57,5.451" transform="translate(-6593.878 -4879)"/>
      <path id="Path_1491655" data-name="Path 1491655" d="M643.619,30.837a.755.755,0,0,1-.5-.1l-2.624-1.312a3.526,3.526,0,0,1-2.423,1.009h-9.69a4.652,4.652,0,0,1-2.725-.908,5.473,5.473,0,0,1-2.018-4.138V21.955a1.335,1.335,0,0,1,1.312-1.312h12.818a4.124,4.124,0,0,1,3.331,2.119.525.525,0,0,1,.2.4l3.331,3.028a1.1,1.1,0,0,1,.4.909v2.523a1.109,1.109,0,0,1-.606,1.009,4.544,4.544,0,0,1-.808.2m-17.562-7.671v2.221a2.634,2.634,0,0,0,1.11,2.119,1.615,1.615,0,0,0,1.111.4h9.689a1.1,1.1,0,0,0,.909-.606,1.3,1.3,0,0,1,1.716-.605l1.614.807-2.927-2.725a.557.557,0,0,1-.3-.505.354.354,0,0,1-.1-.2,1.787,1.787,0,0,0-1.111-.908Z" transform="translate(-6593.878 -4879)"/>
      <path id="Path_1491656" data-name="Path 1491656" d="M663.705,53.85H653.511a1.312,1.312,0,1,1,0-2.624h8.983V45.473l-4.239-1.616-3.634,2.625a1.372,1.372,0,0,1-1.514,0l-3.633-2.625-.707.3a1.246,1.246,0,1,1-.909-2.321l1.413-.505a1.1,1.1,0,0,1,1.212.2l3.431,2.524,3.432-2.524a1.653,1.653,0,0,1,1.212-.2l5.752,2.12a1.217,1.217,0,0,1,.808,1.211v7.873a1.5,1.5,0,0,1-1.413,1.312" transform="translate(-6593.878 -4879)"/>
      <path id="Path_1491657" data-name="Path 1491657" d="M659.264,53.85a1.336,1.336,0,0,1-1.312-1.312V48.3a1.312,1.312,0,1,1,2.624,0v4.239a1.271,1.271,0,0,1-1.312,1.312" transform="translate(-6593.878 -4879)"/>
      <path id="Path_1491658" data-name="Path 1491658" d="M616.569,53.85H606.375a1.336,1.336,0,0,1-1.313-1.312V44.665a1.311,1.311,0,0,1,.808-1.211l5.753-2.12a1.333,1.333,0,0,1,1.211.2l3.432,2.524,3.432-2.524a1.288,1.288,0,0,1,1.211-.2l1.413.505a1.246,1.246,0,1,1-.908,2.321l-.707-.3-3.634,2.625a1.37,1.37,0,0,1-1.513,0l-3.634-2.625-4.239,1.616v5.753h8.983a1.335,1.335,0,0,1,1.312,1.312,1.427,1.427,0,0,1-1.413,1.312" transform="translate(-6593.878 -4879)"/>
      <path id="Path_1491659" data-name="Path 1491659" d="M611.32,53.85a1.335,1.335,0,0,1-1.312-1.312V48.3a1.312,1.312,0,0,1,2.624,0v4.239a1.272,1.272,0,0,1-1.312,1.312" transform="translate(-6593.878 -4879)"/>
      <path id="Path_1491660" data-name="Path 1491660" d="M615.964,40.224a6.112,6.112,0,0,1-5.856-6.359,5.874,5.874,0,1,1,11.709,0,6.111,6.111,0,0,1-5.853,6.359m0-10.194a3.625,3.625,0,0,0-3.332,3.835,3.364,3.364,0,1,0,6.662,0,3.625,3.625,0,0,0-3.33-3.835" transform="translate(-6593.878 -4879)"/>
      <path id="Path_1491661" data-name="Path 1491661" d="M653.511,40.224a6.111,6.111,0,0,1-5.854-6.359,5.874,5.874,0,1,1,11.708,0c-.1,3.533-2.725,6.359-5.854,6.359m0-10.194a3.624,3.624,0,0,0-3.331,3.835,3.364,3.364,0,1,0,6.662,0c-.1-2.119-1.615-3.835-3.331-3.835" transform="translate(-6593.878 -4879)"/>
    </g>
  </g>
</svg>
