<svg id="Group_1272382" data-name="Group 1272382" xmlns="http://www.w3.org/2000/svg" xmlns:xlink="http://www.w3.org/1999/xlink" width="98" height="97.999" viewBox="0 0 98 97.999">
  <defs>
    <clipPath id="clip-path">
      <rect id="Rectangle_426922" data-name="Rectangle 426922" width="58.677" height="59.7" transform="translate(0 0)" fill="none"/>
    </clipPath>
  </defs>
  <g id="Group_1204180" data-name="Group 1204180" transform="translate(0)">
    <g id="Group_1204143" data-name="Group 1204143">
      <g id="Group_1188789" data-name="Group 1188789">
        <path id="Path_1243039" data-name="Path 1243039" d="M41.05,0h0a41.05,41.05,0,1,1,0,82.1h0a41.05,41.05,0,1,1,0-82.1Z" transform="translate(7.951 7.949)" fill="#bbccf6"/>
        <rect id="Rectangle_400907" data-name="Rectangle 400907" width="88.438" height="88.437" rx="44.218" transform="translate(4.782 4.781)" fill="none"/>
        <g id="Group_1098742" data-name="Group 1098742">
          <g id="Rectangle_400898" data-name="Rectangle 400898" transform="translate(0)" fill="none" stroke="#fff" stroke-width="2" opacity="0.859">
            <rect width="98" height="97.999" rx="48.999" stroke="none"/>
            <rect x="1" y="1" width="96" height="95.999" rx="47.999" fill="none"/>
          </g>
          <g id="Rectangle_400907-2" data-name="Rectangle 400907" transform="translate(0)" fill="none" stroke="#0f1f33" stroke-linecap="round" stroke-width="2">
            <rect width="98" height="97.999" rx="48.999" stroke="none"/>
            <rect x="1" y="1" width="96" height="95.999" rx="47.999" fill="none"/>
          </g>
        </g>
      </g>
    </g>
  </g>
  <g id="Group_1272392" data-name="Group 1272392" transform="translate(19.662 18.101)">
    <g id="Group_1272386" data-name="Group 1272386" clip-path="url(#clip-path)">
      <path id="Path_1491465" data-name="Path 1491465" d="M38.983,46,51.1,34a3.927,3.927,0,0,1,2.727-1.1A4.116,4.116,0,0,1,56.556,34a3.661,3.661,0,0,1,0,5.3L41.407,54.2a8.092,8.092,0,0,1-6.06,2.3l-19.39-1.3-4.646,3.3-10-9.9,8.18-7.2a7.854,7.854,0,0,1,5.858-1.9l20.7,1.8a3.251,3.251,0,0,1,2.121,1,3.2,3.2,0,0,1,1.01,2.1,2.939,2.939,0,0,1-.2,1.6" fill="#ffd8a8"/>
      <path id="Path_1491466" data-name="Path 1491466" d="M34.337,1.6a.486.486,0,0,1,.707.5l-1.414,5H27.975l-1.414-5a.466.466,0,0,1,.707-.5l1.818.9c.2.1.4.1.5-.1l.91-.9a.493.493,0,0,1,.707,0l.807.9c.1.1.4.2.505.1Z" fill="#8e725d"/>
      <path id="Path_1491467" data-name="Path 1491467" d="M33.933,10.1s2.222-.6,2.222-1.4V8.6A1.546,1.546,0,0,0,34.64,7.1H27.065a1.546,1.546,0,0,0-1.514,1.5v.1c0,.8,1.818,1.4,1.818,1.4C20.2,13.7,19.491,22.5,20,28.5a6.9,6.9,0,0,0,6.868,6.3H35.65A6.84,6.84,0,0,0,42.517,28c-.1-9.4-4.241-17.1-8.584-17.9" fill="#a28671"/>
      <path id="Path_1491468" data-name="Path 1491468" d="M31.51,24.3c1.01.3,1.414.8,1.414,1.5a1.537,1.537,0,0,1-1.515,1.5v.8H30.6v-.7a2.941,2.941,0,0,1-1.414-.4l.2-1a2.632,2.632,0,0,0,1.414.4c.505,0,.808-.2.808-.5s-.3-.5-.909-.7c-.909-.3-1.515-.7-1.515-1.5A1.59,1.59,0,0,1,30.6,22.2v-.8h.808v.7a2.162,2.162,0,0,1,1.212.3l-.2,1a2.586,2.586,0,0,0-1.212-.3c-.505,0-.707.2-.707.5s.3.5,1.01.7"/>
      <path id="Path_1491469" data-name="Path 1491469" d="M11.311,59.7a1.242,1.242,0,0,1-.909-.4L.4,49.4a1.206,1.206,0,0,1,0-1.8l8.181-7.2a9.347,9.347,0,0,1,6.867-2.2l20.6,1.7a5.224,5.224,0,0,1,2.929,1.3,4.52,4.52,0,0,1,1.111,1.7l10-9.9a5.169,5.169,0,0,1,3.535-1.5A4.76,4.76,0,0,1,57.162,33a4.917,4.917,0,0,1,0,7.1l-14.847,15a9.174,9.174,0,0,1-7.069,2.6L16.36,56.4l-4.241,3a.927.927,0,0,1-.808.3m-8.08-11,8.282,8.2,3.737-2.7a.789.789,0,0,1,.807-.2l19.391,1.3A7.035,7.035,0,0,0,40.6,53.4l14.947-15a2.4,2.4,0,0,0,0-3.5,2.447,2.447,0,0,0-1.818-.7,2.92,2.92,0,0,0-1.818.7L40.094,46.7a4.8,4.8,0,0,1-4.545,2.7l-13.533-.6a1.251,1.251,0,1,1,.1-2.5l13.533.6a2.335,2.335,0,0,0,2.02-1.1.756.756,0,0,1,.2-.5,2.471,2.471,0,0,0,.1-.8,2.085,2.085,0,0,0-.707-1.3,1.789,1.789,0,0,0-1.313-.6l-20.6-1.7A6.345,6.345,0,0,0,10.4,42.5Z"/>
      <path id="Path_1491470" data-name="Path 1491470" d="M15.957,56.4a1.153,1.153,0,0,1-.808-.3L8.786,50.7a1.257,1.257,0,0,1-.1-1.8,1.287,1.287,0,0,1,1.817-.1l6.363,5.4a1.258,1.258,0,0,1,.1,1.8,1.455,1.455,0,0,1-1.01.4"/>
      <path id="Path_1491471" data-name="Path 1491471" d="M31.106,31.1a1.3,1.3,0,1,1,0-2.6,3.816,3.816,0,0,0,3.837-3.8,1.313,1.313,0,0,1,2.626,0,6.611,6.611,0,0,1-6.463,6.4"/>
      <path id="Path_1491472" data-name="Path 1491472" d="M27.672,29.8a1.154,1.154,0,0,1-.808-.3,6.1,6.1,0,0,1-2.02-4.6,6.369,6.369,0,0,1,6.363-6.3,5.98,5.98,0,0,1,4.242,1.7,1.362,1.362,0,0,1,.1,1.8,1.4,1.4,0,0,1-1.817.1,4.012,4.012,0,0,0-2.525-1A3.818,3.818,0,0,0,27.369,25a3.408,3.408,0,0,0,1.212,2.7,1.363,1.363,0,0,1,.1,1.8,5.418,5.418,0,0,1-1.01.3"/>
      <path id="Path_1491473" data-name="Path 1491473" d="M35.549,36H26.763a8.691,8.691,0,0,1-5.555-2.1,8.355,8.355,0,0,1-2.626-5.3,28.748,28.748,0,0,1,.909-10.5,14.9,14.9,0,0,1,5.252-7.9,1.79,1.79,0,0,1-.707-1.5V8.6a2.7,2.7,0,0,1,2.727-2.7h1.212a1.3,1.3,0,1,1,0,2.6h-.909c-.1,0-.1,0-.2.1a9.413,9.413,0,0,0,1.01.5,1.242,1.242,0,0,1,.808,1.2,1.228,1.228,0,0,1-.707,1.1c-6.363,3.2-7.171,11.1-6.666,17.2a5.508,5.508,0,0,0,5.555,5.1H35.65a5.6,5.6,0,0,0,3.939-1.6,5.48,5.48,0,0,0,1.616-4A26.066,26.066,0,0,0,38.68,16.6c-1.414-2.8-3.232-4.7-5.049-5.1a1.192,1.192,0,0,1-1.011-1.2A1.293,1.293,0,0,1,33.529,9a4.4,4.4,0,0,0,1.212-.5.354.354,0,0,0-.2-.1h-.908a1.3,1.3,0,1,1,0-2.6h.908a2.7,2.7,0,0,1,2.727,2.7v.1a1.6,1.6,0,0,1-.606,1.3A13.047,13.047,0,0,1,40.8,15.1a29.32,29.32,0,0,1,2.828,12.6,7.887,7.887,0,0,1-2.323,5.7A7.569,7.569,0,0,1,35.549,36"/>
      <path id="Path_1491474" data-name="Path 1491474" d="M33.631,8.3H27.975a1.211,1.211,0,0,1-1.212-.9l-1.414-5a1.951,1.951,0,0,1,.3-1.5A1.767,1.767,0,0,1,27.066.2a2.393,2.393,0,0,1,.808.2l1.212.6.5-.5a1.719,1.719,0,0,1,2.424,0l.505.5L33.732.4A1.918,1.918,0,0,1,34.54.2a2.127,2.127,0,0,1,1.414.7,1.955,1.955,0,0,1,.3,1.5l-1.414,5a1.188,1.188,0,0,1-1.212.9M28.884,5.8h3.737l.707-2.3-.2.1a1.933,1.933,0,0,1-.808.2,1.681,1.681,0,0,1-1.212-.5l-.4-.4-.4.4a1.873,1.873,0,0,1-1.212.5,2.42,2.42,0,0,1-.808-.2l-.2-.1Z"/>
      <path id="Path_1491475" data-name="Path 1491475" d="M26.258,16.6H22.521a1.3,1.3,0,1,1,0-2.6h3.737a1.3,1.3,0,1,1,0,2.6"/>
      <path id="Path_1491476" data-name="Path 1491476" d="M40.6,19.6H38.377a1.3,1.3,0,1,1,0-2.6H40.6a1.3,1.3,0,1,1,0,2.6"/>
    </g>
  </g>
</svg>
