<svg xmlns="http://www.w3.org/2000/svg" xmlns:xlink="http://www.w3.org/1999/xlink" width="98" height="97.999" viewBox="0 0 98 97.999">
  <defs>
    <linearGradient id="linear-gradient" x1="0.5" x2="0.5" y2="1.267" gradientUnits="objectBoundingBox">
      <stop offset="0" stop-color="#ff9f8a"/>
      <stop offset="1" stop-color="#c946b0"/>
    </linearGradient>
  </defs>
  <g id="Group_1271658" data-name="Group 1271658" transform="translate(-802.781 -1967)">
    <g id="Group_1204180" data-name="Group 1204180" transform="translate(-1 -5.016)">
      <g id="Group_1204143" data-name="Group 1204143" transform="translate(-67.331 1694.852)">
        <g id="Group_1188789" data-name="Group 1188789" transform="translate(871.113 277.164)">
          <path id="Path_1243039" data-name="Path 1243039" d="M41.05,0h0a41.05,41.05,0,0,1,0,82.1h0a41.05,41.05,0,0,1,0-82.1Z" transform="translate(7.951 7.949)" fill="url(#linear-gradient)"/>
          <rect id="Rectangle_400907" data-name="Rectangle 400907" width="88.438" height="88.437" rx="44.218" transform="translate(4.782 4.781)" fill="none"/>
          <g id="Group_1098742" data-name="Group 1098742" transform="translate(0)">
            <g id="Rectangle_400898" data-name="Rectangle 400898" transform="translate(0)" fill="none" stroke="#fff" stroke-width="2" opacity="0.859">
              <rect width="98" height="97.999" rx="48.999" stroke="none"/>
              <rect x="1" y="1" width="96" height="95.999" rx="47.999" fill="none"/>
            </g>
            <g id="Rectangle_400907-2" data-name="Rectangle 400907" transform="translate(0)" fill="none" stroke="#0f1f33" stroke-linecap="round" stroke-width="2">
              <rect width="98" height="97.999" rx="48.999" stroke="none"/>
              <rect x="1" y="1" width="96" height="95.999" rx="47.999" fill="none"/>
            </g>
          </g>
        </g>
      </g>
    </g>
    <g id="Group_1272380" data-name="Group 1272380" transform="translate(10034.019 10456.421)">
      <path id="Path_1491320" data-name="Path 1491320" d="M554.141,58.625a2.521,2.521,0,1,1-2.521,2.521,2.5,2.5,0,0,1,2.521-2.521" transform="translate(-9736.378 -8475)" fill="#afb9d2"/>
      <path id="Path_1491321" data-name="Path 1491321" d="M531.456,17.087V43.2a5.379,5.379,0,0,0,5.344,5.344h34.682a5.379,5.379,0,0,0,5.344-5.344V17.087Z" transform="translate(-9736.378 -8475)" fill="#d7deed"/>
      <path id="Path_1491322" data-name="Path 1491322" d="M579.85,12.751a2.432,2.432,0,0,1,.706,1.815,2.5,2.5,0,0,1-2.521,2.521h-47.89a2.9,2.9,0,0,1-1.815-.706,2.432,2.432,0,0,1-.706-1.815,2.5,2.5,0,0,1,2.521-2.52H551.62V9.525a2.521,2.521,0,0,1,5.041,0v2.521h21.475a2.631,2.631,0,0,1,1.714.705" transform="translate(-9736.378 -8475)" fill="#57606f"/>
      <rect id="Rectangle_426910" data-name="Rectangle 426910" width="2.521" height="2.521" transform="translate(-9198.57 -8449.142)"/>
      <rect id="Rectangle_426911" data-name="Rectangle 426911" width="2.521" height="2.52" transform="translate(-9198.57 -8454.183)"/>
      <rect id="Rectangle_426912" data-name="Rectangle 426912" width="2.52" height="2.52" transform="translate(-9201.091 -8451.662)"/>
      <path id="Path_1491323" data-name="Path 1491323" d="M554.141,59.937a1.334,1.334,0,0,1-1.31-1.312V48.543a1.311,1.311,0,0,1,2.621,0V58.625a1.335,1.335,0,0,1-1.311,1.312" transform="translate(-9736.378 -8475)"/>
      <path id="Path_1491324" data-name="Path 1491324" d="M578.136,18.3h-1.31a1.311,1.311,0,0,1,0-2.622h1.31a1.335,1.335,0,0,0,1.311-1.311,1.235,1.235,0,0,0-.4-.907,1.506,1.506,0,0,0-.908-.4H556.661a1.335,1.335,0,0,1-1.311-1.311V9.223a1.31,1.31,0,1,0-2.621,0v2.52a1.335,1.335,0,0,1-1.311,1.311H530.246a1.335,1.335,0,0,0-1.311,1.31,1.233,1.233,0,0,0,.4.908,1.1,1.1,0,0,0,.908.4h1.209a1.311,1.311,0,0,1,0,2.622h-1.31a4.078,4.078,0,0,1-2.722-1.109,3.9,3.9,0,0,1-1.109-2.722,3.83,3.83,0,0,1,3.831-3.832h20.164V9.323a3.831,3.831,0,0,1,7.663,0v1.311h20.164a4.08,4.08,0,0,1,2.722,1.109,3.9,3.9,0,0,1,1.109,2.723,3.964,3.964,0,0,1-3.831,3.831" transform="translate(-9736.378 -8475)"/>
      <path id="Path_1491325" data-name="Path 1491325" d="M576.826,23.338H555.451a1.311,1.311,0,0,1,0-2.621h21.375a1.333,1.333,0,0,1,1.31,1.31,1.27,1.27,0,0,1-1.31,1.311" transform="translate(-9736.378 -8475)"/>
      <path id="Path_1491326" data-name="Path 1491326" d="M571.482,49.854H536.8a6.648,6.648,0,0,1-6.655-6.655V17.087a1.335,1.335,0,0,1,1.311-1.311h45.37a1.335,1.335,0,0,1,1.311,1.311V43.2a6.714,6.714,0,0,1-6.655,6.655M532.767,18.3V43.2a4.151,4.151,0,0,0,4.133,4.134h34.683a4.152,4.152,0,0,0,4.134-4.134V18.3Z" transform="translate(-9736.378 -8475)"/>
      <path id="Path_1491327" data-name="Path 1491327" d="M554.141,64.978a3.831,3.831,0,1,1,3.831-3.832,3.83,3.83,0,0,1-3.831,3.832m0-5.041a1.31,1.31,0,1,0,1.311,1.311,1.271,1.271,0,0,0-1.311-1.311" transform="translate(-9736.378 -8475)"/>
      <path id="Path_1491328" data-name="Path 1491328" d="M539.018,43.5a1.145,1.145,0,0,1-.807-.3,1.269,1.269,0,0,1-.1-1.814l7.562-8.872a1.2,1.2,0,0,1,1.109-.4,1.454,1.454,0,0,1,1.008.707l1.513,3.125,3.831-5.748a1.264,1.264,0,0,1,1.109-.6,1.339,1.339,0,0,1,1.008.6l4.134,7.26,10.183-11.292a1.285,1.285,0,1,1,1.915,1.714l-11.392,12.7a1.517,1.517,0,0,1-1.11.4,1.339,1.339,0,0,1-1.008-.6l-4.033-7.058-3.932,5.848a1.265,1.265,0,0,1-1.109.6,1.215,1.215,0,0,1-1.008-.706l-1.714-3.328L539.825,43.1c-.1.3-.4.4-.807.4" transform="translate(-9736.378 -8475)"/>
      <path id="Path_1491329" data-name="Path 1491329" d="M570.575,33.42a1.334,1.334,0,0,1-1.311-1.311V28.278h-3.831a1.311,1.311,0,0,1,0-2.622h5.041a1.335,1.335,0,0,1,1.311,1.311v5.042a1.283,1.283,0,0,1-1.21,1.411" transform="translate(-9736.378 -8475)"/>
      <path id="Path_1491330" data-name="Path 1491330" d="M570.575,44.813H537.808A1.334,1.334,0,0,1,536.5,43.5V32.211a1.31,1.31,0,1,1,2.621,0V42.293h31.558a1.335,1.335,0,0,1,1.311,1.31,1.414,1.414,0,0,1-1.412,1.21" transform="translate(-9736.378 -8475)"/>
    </g>
  </g>
</svg>
