<svg xmlns="http://www.w3.org/2000/svg" xmlns:xlink="http://www.w3.org/1999/xlink" width="98" height="97.999" viewBox="0 0 98 97.999">
  <defs>
    <linearGradient id="linear-gradient" x1="0.5" x2="0.5" y2="1.267" gradientUnits="objectBoundingBox">
      <stop offset="0" stop-color="#ff9f8a"/>
      <stop offset="1" stop-color="#c946b0"/>
    </linearGradient>
  </defs>
  <g id="Group_1271790" data-name="Group 1271790" transform="translate(-802.781 -1967)">
    <g id="Group_1204180" data-name="Group 1204180" transform="translate(-1 -5.016)">
      <g id="Group_1204143" data-name="Group 1204143" transform="translate(-67.331 1694.852)">
        <g id="Group_1188789" data-name="Group 1188789" transform="translate(871.113 277.164)">
          <path id="Path_1243039" data-name="Path 1243039" d="M41.05,0h0a41.05,41.05,0,0,1,0,82.1h0a41.05,41.05,0,0,1,0-82.1Z" transform="translate(7.951 7.949)" fill="url(#linear-gradient)"/>
          <rect id="Rectangle_400907" data-name="Rectangle 400907" width="88.438" height="88.437" rx="44.218" transform="translate(4.782 4.781)" fill="none"/>
          <g id="Group_1098742" data-name="Group 1098742" transform="translate(0)">
            <g id="Rectangle_400898" data-name="Rectangle 400898" transform="translate(0)" fill="none" stroke="#fff" stroke-width="2" opacity="0.859">
              <rect width="98" height="97.999" rx="48.999" stroke="none"/>
              <rect x="1" y="1" width="96" height="95.999" rx="47.999" fill="none"/>
            </g>
            <g id="Rectangle_400907-2" data-name="Rectangle 400907" transform="translate(0)" fill="none" stroke="#0f1f33" stroke-linecap="round" stroke-width="2">
              <rect width="98" height="97.999" rx="48.999" stroke="none"/>
              <rect x="1" y="1" width="96" height="95.999" rx="47.999" fill="none"/>
            </g>
          </g>
        </g>
      </g>
    </g>
    <g id="Group_1272406" data-name="Group 1272406" transform="translate(6942.386 6865.007)">
      <path id="Path_1491513" data-name="Path 1491513" d="M522.211,22.018v22.71h-5.046V22.018Z" transform="translate(-6593.878 -4879)" fill="#f2deb9"/>
      <path id="Path_1491514" data-name="Path 1491514" d="M505.759,39.681v5.047h-5.047V22.018h5.047Z" transform="translate(-6593.878 -4879)" fill="#f2deb9"/>
      <path id="Path_1491515" data-name="Path 1491515" d="M489.408,39.681v5.047H484.36V22.018h5.047Z" transform="translate(-6593.878 -4879)" fill="#f2deb9"/>
      <path id="Path_1491516" data-name="Path 1491516" d="M524.735,16.971v5.047H514.642V16.971Z" transform="translate(-6593.878 -4879)" fill="#414440"/>
      <path id="Path_1491517" data-name="Path 1491517" d="M508.283,16.971v5.047H498.188V16.971Z" transform="translate(-6593.878 -4879)" fill="#414440"/>
      <path id="Path_1491518" data-name="Path 1491518" d="M491.931,16.971v5.047H481.838V16.971Z" transform="translate(-6593.878 -4879)" fill="#414440"/>
      <path id="Path_1491519" data-name="Path 1491519" d="M528.469,44.728v3.734H479.314V44.728h49.155Z" transform="translate(-6593.878 -4879)" fill="#414440"/>
      <path id="Path_1491520" data-name="Path 1491520" d="M503.236,1.83,474.268,16.971H532.3Z" transform="translate(-6593.878 -4879)" fill="#414440"/>
      <path id="Path_1491521" data-name="Path 1491521" d="M530.992,48.462V52.3h-54.2V48.462h54.2Z" transform="translate(-6593.878 -4879)" fill="#5a5a5a"/>
      <path id="Path_1491522" data-name="Path 1491522" d="M509.493,12.53l-.5.505v1.413h-1.111V9.906h1.111v1.918L510.6,9.906h1.212L510.1,11.925l1.817,2.523H510.7Z" transform="translate(-6593.878 -4879)"/>
      <path id="Path_1491523" data-name="Path 1491523" d="M506.062,12.53V9.906h1.009v4.542h-.807l-2.12-2.624v2.624h-1.009V9.906h.807Z" transform="translate(-6593.878 -4879)"/>
      <path id="Path_1491524" data-name="Path 1491524" d="M501.015,12.632l-.5-1.616-.5,1.616Zm0-2.726,1.615,4.542h-1.11l-.3-1.01H499.8l-.3,1.01h-1.11l1.615-4.542Z" transform="translate(-6593.878 -4879)"/>
      <path id="Path_1491525" data-name="Path 1491525" d="M497.079,11.219c0-.1,0-.3-.1-.3a.369.369,0,0,0-.3-.1h-1.11v.908h1.009a.373.373,0,0,0,.3-.1.524.524,0,0,0,.2-.4m0,2.119a.372.372,0,0,0,.1-.3.6.6,0,0,0-.1-.4.369.369,0,0,0-.3-.1h-1.211v1.01h1.11a.528.528,0,0,0,.4-.2m1.211-.1a.76.76,0,0,1-.1.5c-.1.1-.2.3-.3.4a.769.769,0,0,1-.5.2c-.2,0-.4.1-.606.1h-2.22V9.906h2.523c.2,0,.3,0,.4.1l.3.3a.529.529,0,0,1,.2.4c0,.1.1.3.1.4a1.427,1.427,0,0,1-.2.605,1.007,1.007,0,0,1-.5.4.924.924,0,0,1,.605.4.787.787,0,0,1,.3.707" transform="translate(-6593.878 -4879)"/>
      <path id="Path_1491526" data-name="Path 1491526" d="M498.189,18.182H491.83a1.312,1.312,0,0,1,0-2.624h6.359a1.312,1.312,0,1,1,0,2.624" transform="translate(-6593.878 -4879)"/>
      <path id="Path_1491527" data-name="Path 1491527" d="M514.641,18.182h-6.359a1.312,1.312,0,1,1,0-2.624h6.359a1.336,1.336,0,0,1,1.312,1.313,1.5,1.5,0,0,1-1.312,1.311" transform="translate(-6593.878 -4879)"/>
      <path id="Path_1491528" data-name="Path 1491528" d="M532.3,18.182h-7.57a1.312,1.312,0,1,1,0-2.624h2.422L503.236,3.244,479.314,15.659h2.423a1.313,1.313,0,0,1,0,2.625h-7.571a1.2,1.2,0,0,1-1.211-1.01,1.291,1.291,0,0,1,.606-1.413L502.63.72a1.291,1.291,0,0,1,1.211,0l29.07,15.141a1.169,1.169,0,0,1,.6,1.413,1.414,1.414,0,0,1-1.211.908" transform="translate(-6593.878 -4879)"/>
      <path id="Path_1491529" data-name="Path 1491529" d="M491.931,23.229h-2.523a1.312,1.312,0,0,1,0-2.624h1.312V18.082h-7.671v2.624h1.312a1.313,1.313,0,0,1,0,2.625h-2.523a1.338,1.338,0,0,1-1.313-1.313V16.971a1.336,1.336,0,0,1,1.313-1.312h10.093a1.335,1.335,0,0,1,1.312,1.312v5.047a1.5,1.5,0,0,1-1.312,1.211" transform="translate(-6593.878 -4879)"/>
      <path id="Path_1491530" data-name="Path 1491530" d="M508.283,23.229h-2.524a1.312,1.312,0,1,1,0-2.624h1.312V18.082H499.5v2.624h1.312a1.313,1.313,0,0,1,0,2.625h-2.625a1.337,1.337,0,0,1-1.312-1.313V16.971a1.336,1.336,0,0,1,1.312-1.312h10.1a1.335,1.335,0,0,1,1.311,1.312v5.047a1.32,1.32,0,0,1-1.311,1.211" transform="translate(-6593.878 -4879)"/>
      <path id="Path_1491531" data-name="Path 1491531" d="M524.735,23.229h-2.523a1.312,1.312,0,0,1,0-2.624h1.211V18.082h-7.57v2.624h1.312a1.313,1.313,0,0,1,0,2.625h-2.523a1.338,1.338,0,0,1-1.313-1.313V16.971a1.336,1.336,0,0,1,1.313-1.312h10.093a1.335,1.335,0,0,1,1.312,1.312v5.047a1.5,1.5,0,0,1-1.312,1.211" transform="translate(-6593.878 -4879)"/>
      <path id="Path_1491532" data-name="Path 1491532" d="M489.408,45.939a1.336,1.336,0,0,1-1.313-1.312v-21.4h-2.524v21.5a1.335,1.335,0,0,1-1.311,1.312,1.317,1.317,0,0,1-1.212-1.312V22.018a1.336,1.336,0,0,1,1.312-1.312h5.048a1.335,1.335,0,0,1,1.311,1.312v22.71a1.5,1.5,0,0,1-1.311,1.211" transform="translate(-6593.878 -4879)"/>
      <path id="Path_1491533" data-name="Path 1491533" d="M505.759,45.939a1.335,1.335,0,0,1-1.312-1.312v-21.4h-2.523v21.5a1.313,1.313,0,0,1-2.625,0V22.018a1.336,1.336,0,0,1,1.312-1.312h5.047a1.336,1.336,0,0,1,1.312,1.312v22.71a1.163,1.163,0,0,1-1.211,1.211" transform="translate(-6593.878 -4879)"/>
      <path id="Path_1491534" data-name="Path 1491534" d="M522.211,45.939a1.335,1.335,0,0,1-1.312-1.312v-21.4h-2.524v21.5a1.312,1.312,0,0,1-2.624,0V22.018a1.336,1.336,0,0,1,1.312-1.312h5.047a1.335,1.335,0,0,1,1.312,1.312v22.71a1.3,1.3,0,0,1-1.211,1.211" transform="translate(-6593.878 -4879)"/>
      <path id="Path_1491535" data-name="Path 1491535" d="M528.469,49.775a1.336,1.336,0,0,1-1.312-1.312V45.939H480.525v2.524a1.335,1.335,0,0,1-1.312,1.312A1.251,1.251,0,0,1,478,48.463V44.628a1.337,1.337,0,0,1,1.312-1.313h49.155a1.336,1.336,0,0,1,1.312,1.313v3.835a1.335,1.335,0,0,1-1.312,1.312" transform="translate(-6593.878 -4879)"/>
      <path id="Path_1491536" data-name="Path 1491536" d="M530.992,53.509A1.336,1.336,0,0,1,529.68,52.2V49.674H478V52.2a1.312,1.312,0,1,1-2.624,0V48.361a1.336,1.336,0,0,1,1.312-1.312h54.3a1.335,1.335,0,0,1,1.312,1.312V52.2a1.335,1.335,0,0,1-1.312,1.312" transform="translate(-6593.878 -4879)"/>
      <path id="Path_1491537" data-name="Path 1491537" d="M532.3,53.509H475.479a1.312,1.312,0,1,1,0-2.624H532.3a1.335,1.335,0,0,1,1.312,1.312,1.5,1.5,0,0,1-1.312,1.312" transform="translate(-6593.878 -4879)"/>
      <path id="Path_1491538" data-name="Path 1491538" d="M500.712,40.893h-11.3a1.313,1.313,0,0,1,0-2.625h11.406a1.336,1.336,0,0,1,1.312,1.313,1.508,1.508,0,0,1-1.413,1.312" transform="translate(-6593.878 -4879)"/>
      <path id="Path_1491539" data-name="Path 1491539" d="M517.165,40.893H505.759a1.313,1.313,0,0,1,0-2.625h11.406a1.337,1.337,0,0,1,1.312,1.313,1.5,1.5,0,0,1-1.312,1.312" transform="translate(-6593.878 -4879)"/>
    </g>
  </g>
</svg>
