<svg xmlns="http://www.w3.org/2000/svg" xmlns:xlink="http://www.w3.org/1999/xlink" width="98" height="97.998" viewBox="0 0 98 97.998">
  <defs>
    <linearGradient id="linear-gradient" x1="0.5" x2="0.5" y2="1.267" gradientUnits="objectBoundingBox">
      <stop offset="0" stop-color="#ff9f8a"/>
      <stop offset="1" stop-color="#c946b0"/>
    </linearGradient>
  </defs>
  <g id="Group_1271695" data-name="Group 1271695" transform="translate(-802.781 -1967)">
    <g id="Group_1204180" data-name="Group 1204180" transform="translate(-1 -5.016)">
      <g id="Group_1204143" data-name="Group 1204143" transform="translate(-67.331 1694.852)">
        <g id="Group_1188789" data-name="Group 1188789" transform="translate(871.113 277.164)">
          <path id="Path_1243039" data-name="Path 1243039" d="M41.05,0h0a41.05,41.05,0,0,1,0,82.1h0a41.05,41.05,0,0,1,0-82.1Z" transform="translate(7.951 7.949)" fill="url(#linear-gradient)"/>
          <rect id="Rectangle_400907" data-name="Rectangle 400907" width="88.438" height="88.437" rx="44.218" transform="translate(4.782 4.781)" fill="none"/>
          <g id="Group_1098742" data-name="Group 1098742" transform="translate(0)">
            <g id="Rectangle_400898" data-name="Rectangle 400898" transform="translate(0)" fill="none" stroke="#fff" stroke-width="2" opacity="0.859">
              <rect width="98" height="97.999" rx="48.999" stroke="none"/>
              <rect x="1" y="1" width="96" height="95.999" rx="47.999" fill="none"/>
            </g>
            <g id="Rectangle_400907-2" data-name="Rectangle 400907" transform="translate(0)" fill="none" stroke="#0f1f33" stroke-linecap="round" stroke-width="2">
              <rect width="98" height="97.999" rx="48.999" stroke="none"/>
              <rect x="1" y="1" width="96" height="95.999" rx="47.999" fill="none"/>
            </g>
          </g>
        </g>
      </g>
    </g>
    <g id="Group_1272422" data-name="Group 1272422" transform="translate(2704.839 -7545.281)">
      <path id="Path_1491728" data-name="Path 1491728" d="M706.269,8.312h-6.056V9.927a2.24,2.24,0,0,1-2.22,2.221h-7.974A2.4,2.4,0,0,1,687.8,9.827V8.211h-7.065a4.372,4.372,0,0,0-4.34,4.34V62.009a4.372,4.372,0,0,0,4.34,4.341h25.536a4.372,4.372,0,0,0,4.34-4.341V12.551a4.421,4.421,0,0,0-4.34-4.239" transform="translate(-2551 9524)" fill="#ecf0f1"/>
      <path id="Path_1491729" data-name="Path 1491729" d="M719.391,54.943V59.99l-2.523,6.359-2.524-6.359V54.943Z" transform="translate(-2551 9524)" fill="#2b2d2b"/>
      <rect id="Rectangle_426982" data-name="Rectangle 426982" width="5.047" height="3.836" transform="translate(-1836.656 9575.209)" fill="#414440"/>
      <rect id="Rectangle_426983" data-name="Rectangle 426983" width="5.047" height="27.757" transform="translate(-1836.656 9547.452)" fill="#5a5a5a"/>
      <path id="Path_1491730" data-name="Path 1491730" d="M719.391,19.616v3.836h-5.047V19.616a2.5,2.5,0,0,1,2.524-2.523,2.893,2.893,0,0,1,1.816.707,2.9,2.9,0,0,1,.707,1.816" transform="translate(-2551 9524)" fill="#ffb733"/>
      <path id="Path_1491731" data-name="Path 1491731" d="M700.415,54.943h6.359L700.415,61.3Z" transform="translate(-2551 9524)" fill="#bec3c7"/>
      <path id="Path_1491732" data-name="Path 1491732" d="M700.213,8.312V9.927a2.24,2.24,0,0,1-2.22,2.221h-7.974A2.4,2.4,0,0,1,687.8,9.827V8.211h12.415Z" transform="translate(-2551 9524)" fill="#2a4356"/>
      <path id="Path_1491733" data-name="Path 1491733" d="M706.774,18.405a1.335,1.335,0,0,1,1.312,1.312,1.1,1.1,0,0,1-.4.909,1.5,1.5,0,0,1-.908.4.986.986,0,0,1-.909-.4,1.509,1.509,0,0,1-.4-.909.983.983,0,0,1,.4-.908,1.5,1.5,0,0,1,.909-.4" transform="translate(-2551 9524)"/>
      <path id="Path_1491734" data-name="Path 1491734" d="M706.774,22.14a1.335,1.335,0,0,1,1.312,1.312,1.1,1.1,0,0,1-.4.909,1.5,1.5,0,0,1-.908.4.987.987,0,0,1-.909-.4,1.509,1.509,0,0,1-.4-.909,1.384,1.384,0,0,1,1.312-1.312" transform="translate(-2551 9524)"/>
      <path id="Path_1491735" data-name="Path 1491735" d="M695.368,56.256a1.336,1.336,0,0,1,1.312,1.312,1.1,1.1,0,0,1-.4.909,1.5,1.5,0,0,1-.908.4.983.983,0,0,1-.908-.4,1.282,1.282,0,0,1-.4-.909,1.1,1.1,0,0,1,.4-.909,1.815,1.815,0,0,1,.908-.4" transform="translate(-2551 9524)"/>
      <path id="Path_1491736" data-name="Path 1491736" d="M691.634,56.256a1.336,1.336,0,0,1,1.312,1.312,1.1,1.1,0,0,1-.4.909,1.5,1.5,0,0,1-.908.4.986.986,0,0,1-.909-.4,1.286,1.286,0,0,1-.4-.909,1.1,1.1,0,0,1,.4-.909,1.509,1.509,0,0,1,.909-.4" transform="translate(-2551 9524)"/>
      <path id="Path_1491737" data-name="Path 1491737" d="M687.8,56.256a1.335,1.335,0,0,1,1.312,1.312,1.1,1.1,0,0,1-.4.909,1.5,1.5,0,0,1-.908.4.987.987,0,0,1-.909-.4,1.286,1.286,0,0,1-.4-.909,1.1,1.1,0,0,1,.4-.909,1.822,1.822,0,0,1,.909-.4" transform="translate(-2551 9524)"/>
      <path id="Path_1491738" data-name="Path 1491738" d="M684.063,56.256a1.335,1.335,0,0,1,1.312,1.312,1.1,1.1,0,0,1-.4.909,1.506,1.506,0,0,1-.909.4.983.983,0,0,1-.908-.4,1.447,1.447,0,0,1-.4-1.01,1.1,1.1,0,0,1,.4-.908,1.407,1.407,0,0,1,.908-.3" transform="translate(-2551 9524)"/>
      <path id="Path_1491739" data-name="Path 1491739" d="M697.993,13.358h-7.974a3.4,3.4,0,0,1-3.432-3.432V8.311a1.313,1.313,0,0,1,2.625,0V9.926a.9.9,0,0,0,.908.909h7.974A.905.905,0,0,0,699,9.926V8.311a1.312,1.312,0,0,1,2.624,0V9.926a3.8,3.8,0,0,1-3.633,3.432" transform="translate(-2551 9524)"/>
      <path id="Path_1491740" data-name="Path 1491740" d="M706.269,67.561H680.733a5.6,5.6,0,0,1-5.552-5.552V12.551A5.6,5.6,0,0,1,680.733,7h25.536a5.6,5.6,0,0,1,5.552,5.55V62.009a5.6,5.6,0,0,1-5.552,5.552M680.733,9.524a2.974,2.974,0,0,0-3.028,3.027V62.009a2.975,2.975,0,0,0,3.028,3.029h25.536a2.975,2.975,0,0,0,3.029-3.029V12.551a2.974,2.974,0,0,0-3.029-3.027Z" transform="translate(-2551 9524)"/>
      <path id="Path_1491741" data-name="Path 1491741" d="M700.415,62.514H680.228a1.336,1.336,0,0,1-1.312-1.312V19.617a1.312,1.312,0,1,1,2.624,0V59.991h18.37l5.552-5.552V27.187a1.312,1.312,0,1,1,2.624,0V54.944a1.237,1.237,0,0,1-.4.909l-6.359,6.358a1.624,1.624,0,0,1-.908.3" transform="translate(-2551 9524)"/>
      <path id="Path_1491742" data-name="Path 1491742" d="M700.415,62.514A1.336,1.336,0,0,1,699.1,61.2V54.843a1.336,1.336,0,0,1,1.312-1.312h6.359a1.313,1.313,0,0,1,0,2.625h-5.047V61.2a1.335,1.335,0,0,1-1.312,1.312" transform="translate(-2551 9524)"/>
      <path id="Path_1491743" data-name="Path 1491743" d="M685.679,33.142a1.236,1.236,0,0,1-.909-.4l-1.817-1.818A1.284,1.284,0,1,1,684.77,29.1l.909.908,2.725-2.725a1.285,1.285,0,0,1,1.817,1.817l-3.533,3.532a1.362,1.362,0,0,1-1.009.5" transform="translate(-2551 9524)"/>
      <path id="Path_1491744" data-name="Path 1491744" d="M699.2,30.417h-6.359a1.313,1.313,0,0,1,0-2.625H699.2a1.335,1.335,0,0,1,1.312,1.313,1.4,1.4,0,0,1-1.312,1.312" transform="translate(-2551 9524)"/>
      <path id="Path_1491745" data-name="Path 1491745" d="M702.938,34.252H692.844a1.312,1.312,0,1,1,0-2.624h10.094a1.312,1.312,0,1,1,0,2.624" transform="translate(-2551 9524)"/>
      <path id="Path_1491746" data-name="Path 1491746" d="M685.679,41.62a1.232,1.232,0,0,1-.909-.4L682.953,39.4a1.284,1.284,0,0,1,1.817-1.816l.909.908,2.725-2.725a1.285,1.285,0,0,1,1.817,1.817l-3.533,3.532a1.874,1.874,0,0,1-1.009.5" transform="translate(-2551 9524)"/>
      <path id="Path_1491747" data-name="Path 1491747" d="M699.2,38.9h-6.359a1.313,1.313,0,0,1,0-2.625H699.2a1.335,1.335,0,0,1,1.312,1.313A1.4,1.4,0,0,1,699.2,38.9" transform="translate(-2551 9524)"/>
      <path id="Path_1491748" data-name="Path 1491748" d="M702.938,42.731H692.844a1.312,1.312,0,1,1,0-2.624h10.094a1.312,1.312,0,1,1,0,2.624" transform="translate(-2551 9524)"/>
      <path id="Path_1491749" data-name="Path 1491749" d="M685.679,50.1a1.236,1.236,0,0,1-.909-.4l-1.817-1.818a1.284,1.284,0,0,1,1.817-1.816l.909.908,2.725-2.726a1.285,1.285,0,0,1,1.817,1.818l-3.533,3.532a1.874,1.874,0,0,1-1.009.5" transform="translate(-2551 9524)"/>
      <path id="Path_1491750" data-name="Path 1491750" d="M699.2,47.374h-6.359a1.313,1.313,0,0,1,0-2.625H699.2a1.335,1.335,0,0,1,1.312,1.313,1.411,1.411,0,0,1-1.312,1.312" transform="translate(-2551 9524)"/>
      <path id="Path_1491751" data-name="Path 1491751" d="M702.938,51.209H692.844a1.312,1.312,0,1,1,0-2.624h10.094a1.312,1.312,0,1,1,0,2.624" transform="translate(-2551 9524)"/>
      <path id="Path_1491752" data-name="Path 1491752" d="M716.867,67.561a1.312,1.312,0,0,1-1.211-.808l-2.523-6.258a.91.91,0,0,1-.1-.5V19.616a3.833,3.833,0,0,1,3.835-3.835,4.08,4.08,0,0,1,2.725,1.111,3.894,3.894,0,0,1,1.11,2.724V59.99a.918.918,0,0,1-.1.5l-2.524,6.358a1.535,1.535,0,0,1-1.211.708m-1.312-7.773,1.312,3.129,1.312-3.129V19.616a1.234,1.234,0,0,0-.4-.908,1.5,1.5,0,0,0-.909-.4,1.335,1.335,0,0,0-1.312,1.311Z" transform="translate(-2551 9524)"/>
      <path id="Path_1491753" data-name="Path 1491753" d="M719.391,24.663h-5.047a1.312,1.312,0,1,1,0-2.624h5.047a1.336,1.336,0,0,1,1.312,1.313,1.5,1.5,0,0,1-1.312,1.311" transform="translate(-2551 9524)"/>
      <path id="Path_1491754" data-name="Path 1491754" d="M719.391,52.42h-5.047a1.312,1.312,0,1,1,0-2.624h5.047a1.335,1.335,0,0,1,1.312,1.312,1.5,1.5,0,0,1-1.312,1.312" transform="translate(-2551 9524)"/>
      <path id="Path_1491755" data-name="Path 1491755" d="M719.391,56.256h-5.047a1.312,1.312,0,1,1,0-2.624h5.047a1.335,1.335,0,0,1,1.312,1.312,1.5,1.5,0,0,1-1.312,1.312" transform="translate(-2551 9524)"/>
    </g>
  </g>
</svg>
